<svg width="40" height="54" viewBox="0 0 40 54" fill="none" xmlns="http://www.w3.org/2000/svg">
<path d="M8.35879 3.08871C8.17359 3.95936 1.37492 49.3589 3.86501 50.8229C6.41574 52.3225 30.6124 54.8561 33.2905 53.3233C35.2705 52.1901 39.7187 17.0277 39.9392 6.89332C40.0074 3.75889 37.8547 3.37179 35.1938 2.8112C34.0248 2.56493 17.9358 -0.398431 10.7296 0.310412C9.12157 0.468789 8.4571 2.62628 8.35879 3.08871Z" fill="#421B36"/>
<path d="M30.9476 49.4839C29.5464 51.0649 6.35985 48.688 5.12294 47.3541C3.93711 46.0754 7.67738 19.5741 8.84609 8.36968C9.13474 5.60065 9.33392 3.81884 9.36731 3.65832C9.45777 3.23056 9.89381 1.56932 11.3817 1.42336C18.0482 0.767733 32.6775 3.50694 33.7587 3.73537C36.2197 4.25402 36.3301 7.38517 36.2676 8.78303C36.2344 9.54324 36.1817 10.4551 36.1107 11.4891C35.3228 23.1762 32.2347 48.0289 30.9476 49.4839Z" fill="white"/>
<path d="M17.4923 1.24512C17.4923 1.24512 17.3029 2.46162 18.2389 2.8209C19.1749 3.18017 28.2421 4.41151 28.83 4.08805C29.4177 3.76459 29.7167 2.82346 29.7167 2.82346L17.713 1.2785" fill="#421B36"/>
<path d="M11.2904 6.32047C11.2904 6.32047 9.85103 12.6621 10.5773 13.3749C11.136 13.9234 17.3401 14.5897 17.6546 14.1379C17.9691 13.6858 18.6829 6.79531 18.1791 6.59955C17.6752 6.40379 11.8293 5.54542 11.2904 6.32047Z" fill="#FFE6DE"/>
<path d="M19.5424 7.06754C19.5424 7.06754 18.103 13.4092 18.8292 14.122C19.388 14.6705 25.5921 15.3368 25.9066 14.8849C26.221 14.4329 26.9349 7.54238 26.4311 7.34662C25.9271 7.15086 20.0813 6.29249 19.5424 7.06754Z" fill="#FFE6DE"/>
<path d="M27.8505 8.1984C27.8505 8.1984 26.4111 14.54 27.1373 15.2529C27.6961 15.8013 33.9002 16.4677 34.2147 16.0158C34.5291 15.5638 35.243 8.67324 34.7392 8.47748C34.2354 8.28172 28.3894 7.42335 27.8505 8.1984Z" fill="#FFE6DE"/>
<path d="M9.58289 16.8986C9.58289 16.8986 8.14351 23.2403 8.86976 23.9531C9.42851 24.5016 15.6326 25.168 15.9471 24.716C16.2616 24.264 16.9754 17.3735 16.4716 17.1777C15.9676 16.9818 10.1218 16.1236 9.58289 16.8986Z" fill="#FFE6DE"/>
<path d="M17.8344 17.6457C17.8344 17.6457 16.395 23.9873 17.1212 24.7002C17.68 25.2486 23.8841 25.9151 24.1986 25.4631C24.513 25.0111 25.2269 18.1205 24.7231 17.9248C24.2192 17.7289 18.3733 16.8706 17.8344 17.6457Z" fill="#FFE6DE"/>
<path d="M26.143 18.7746C26.143 18.7746 24.7036 25.1162 25.4298 25.829C25.9886 26.3775 32.1927 27.0438 32.5071 26.592C32.8216 26.1399 33.5355 19.2494 33.0317 19.0537C32.5277 18.8579 26.6819 17.9995 26.143 18.7746Z" fill="#FFE6DE"/>
<path d="M8.39002 27.4425C8.39002 27.4425 6.95064 33.7842 7.67689 34.497C8.23564 35.0455 14.4397 35.7118 14.7542 35.2599C15.0687 34.8079 15.7825 27.9174 15.2787 27.7216C14.7748 27.5259 8.92893 26.6675 8.39002 27.4425Z" fill="#FFE6DE"/>
<path d="M16.642 28.1896C16.642 28.1896 15.2026 34.5312 15.9288 35.2441C16.4876 35.7926 22.6917 36.4589 23.0062 36.007C23.3206 35.555 24.0345 28.6645 23.5307 28.4687C23.0267 28.2729 17.1807 27.4146 16.642 28.1896Z" fill="#FFE6DE"/>
<path d="M24.9501 29.3185C24.9501 29.3185 23.5107 35.6602 24.237 36.373C24.7957 36.9215 30.9998 37.5878 31.3143 37.1359C31.6288 36.6839 32.3426 29.7934 31.8388 29.5976C31.3348 29.4017 25.489 28.5435 24.9501 29.3185Z" fill="#FFE6DE"/>
<path d="M7.16883 38.1291C7.16883 38.1291 5.72945 44.4707 6.4557 45.1835C7.01445 45.732 13.2186 46.3983 13.533 45.9465C13.8475 45.4944 14.5613 38.6039 14.0575 38.4081C13.5537 38.2124 7.70774 37.354 7.16883 38.1291Z" fill="#FFE6DE"/>
<path d="M15.4208 38.8752C15.4208 38.8752 13.9814 45.2168 14.7077 45.9296C15.2664 46.4781 21.4705 47.1444 21.785 46.6926C22.0995 46.2405 22.8133 39.35 22.3095 39.1542C21.8057 38.9585 15.9597 38.1001 15.4208 38.8752Z" fill="#FFE6DE"/>
<path d="M23.7294 40.0041C23.7294 40.0041 22.29 46.3457 23.0162 47.0586C23.575 47.607 29.7791 48.2734 30.0936 47.8215C30.408 47.3695 31.1219 40.4789 30.6181 40.2832C30.1141 40.0873 24.2683 39.229 23.7294 40.0041Z" fill="#FFE6DE"/>
<path d="M37.554 19.393C38.0043 18.3694 38.0603 17.1333 38.1809 16.0304C38.3197 14.7601 38.4165 13.4857 38.4814 12.2095C38.5059 11.7277 37.7566 11.729 37.7323 12.2095C37.6725 13.3946 37.5859 14.5779 37.4636 15.7582C37.3454 16.8992 37.044 18.1417 37.1614 19.2867C37.1798 19.4679 37.4601 19.6063 37.554 19.393Z" fill="#8380FF"/>
<path d="M38.6209 10.2704C38.6233 10.2658 38.6257 10.2613 38.6282 10.2567C38.6419 10.2242 38.6555 10.1918 38.6692 10.1592C38.6741 10.1231 38.679 10.0869 38.6838 10.0508C38.679 10.0147 38.6741 9.97847 38.6692 9.94237C38.6565 9.88929 38.6323 9.84306 38.5962 9.80368C38.5781 9.77301 38.5537 9.74861 38.523 9.73049C38.4976 9.70523 38.4675 9.68768 38.433 9.67798C38.4011 9.65958 38.3669 9.6503 38.3299 9.65016C38.2757 9.63803 38.2215 9.64046 38.1673 9.65744C38.1627 9.65915 38.1582 9.66086 38.1535 9.66257C38.0834 9.68226 38.0225 9.71765 37.9708 9.76901C37.9196 9.82066 37.8841 9.88145 37.8644 9.95165C37.8447 10.025 37.8447 10.0983 37.8644 10.1717C37.8772 10.2255 37.9019 10.2724 37.9384 10.3123C37.9677 10.3574 38.0063 10.393 38.0546 10.4189C38.1191 10.4563 38.1887 10.4751 38.2635 10.4754C38.3382 10.4751 38.4077 10.4563 38.4723 10.4189C38.5347 10.3821 38.5841 10.3326 38.6209 10.2704Z" fill="#8380FF"/>
<path d="M38.9124 8.54676C38.9148 8.5422 38.9172 8.53763 38.9197 8.53307C38.9334 8.50054 38.9471 8.46815 38.9608 8.43562C38.9656 8.39952 38.9705 8.36327 38.9753 8.32718C38.9705 8.29108 38.9656 8.25484 38.9608 8.21874C38.9481 8.16566 38.9238 8.11943 38.8877 8.08005C38.8696 8.04938 38.8452 8.02498 38.8145 8.00686C38.7891 7.9816 38.759 7.96405 38.7245 7.95435C38.6927 7.93594 38.6583 7.92667 38.6215 7.92653C38.5672 7.9144 38.513 7.91682 38.4588 7.9338C38.4542 7.93551 38.4497 7.93723 38.445 7.93894C38.3749 7.95863 38.314 7.99402 38.2623 8.04538C38.2111 8.09703 38.1756 8.15781 38.1559 8.22801C38.1362 8.30135 38.1362 8.37469 38.1559 8.44803C38.1687 8.50196 38.1934 8.54876 38.2299 8.58871C38.259 8.6338 38.2979 8.66933 38.3461 8.6953C38.4106 8.73268 38.4802 8.75151 38.555 8.7518C38.6296 8.75151 38.6992 8.73268 38.7639 8.6953C38.8262 8.65848 38.8757 8.60897 38.9124 8.54676Z" fill="#8380FF"/>
<path d="M23.875 29.957L23.8914 29.9833C23.9291 30.0278 23.9476 30.0521 23.9476 30.0521L23.875 29.957Z" fill="#FFAE7A"/>
<path d="M32.6057 42.076C32.4504 41.9059 32.9158 42.2648 31.6719 40.7682C29.246 37.8498 26.7719 34.5853 26.7719 34.5853L23.8916 29.9834C23.8546 29.9396 23.7992 29.8764 23.7245 29.7969C23.2556 29.2984 22.0317 28.1691 19.8936 27.314C17.0686 26.1842 14.4317 25.8725 14.5938 29.0852C14.5938 29.0852 12.4303 29.1623 12.088 30.5821C11.7457 32.0018 12.2708 32.4923 12.2708 32.4923C12.2708 32.4923 9.1402 33.6616 11.3633 36.527C11.3633 36.527 10.459 36.3607 10.1377 37.8539C9.81637 39.3471 12.086 41.2915 13.5257 41.6548C14.9653 42.0182 16.6025 40.9651 16.6025 40.9651C16.6593 41.6251 20.7848 48.7659 25.189 47.613L26.4959 50.0047C26.6015 50.129 30.1021 50.0786 30.7413 50.0068C31.7058 49.8985 32.9485 42.4512 32.6057 42.076Z" fill="#FFAE7A"/>
<g opacity="0.2">
<path d="M18.0404 43.3346C19.9225 44.3067 22.1786 44.5307 24.2153 43.9474C23.2068 43.4579 22.5069 42.451 22.228 41.3652C21.949 40.2794 22.056 39.1232 22.3548 38.0427C22.6536 36.9621 23.1376 35.9434 23.6201 34.9316C21.9937 35.8474 20.421 36.938 19.3016 38.4318C18.1821 39.9254 17.5638 41.8805 18.0073 43.6937" fill="#421B36"/>
</g>
<path d="M21.3443 27.3701C21.3443 27.3701 14.2113 40.0113 14.5629 41.1573C14.9144 42.3033 19.4525 43.2756 19.9665 42.9177C20.4806 42.5599 25.189 29.7379 25.189 29.7379L21.3443 27.3701Z" fill="#8380FF"/>
<g opacity="0.2">
<path d="M18.1242 36.8058C18.1128 36.8058 18.1014 36.8058 18.09 36.8058C18.1743 37.1224 17.7739 37.0296 17.7818 36.8058C17.737 36.5501 18.1417 36.582 18.1242 36.8058ZM16.9599 36.8058C16.9796 36.9931 17.27 36.9944 17.2681 36.8058C17.263 36.6649 17.263 36.6649 17.1053 36.63C17.0261 36.6718 16.8898 36.7013 16.9599 36.8058ZM19.4597 36.8058C19.4825 36.8058 19.5054 36.8058 19.5282 36.8058C19.5228 36.8924 19.4426 36.9657 19.582 36.9965C19.605 36.937 19.657 36.9091 19.7141 36.9009C19.7224 36.8608 19.7281 36.8332 19.7337 36.8058C19.7565 36.8058 19.7793 36.8058 19.8021 36.8058C19.7735 36.6796 19.3564 36.6166 19.4597 36.8058ZM22.2002 29.5416C22.4051 29.3024 22.0293 29.0021 21.8824 29.3184C21.9113 29.5136 22.0059 29.6317 22.2002 29.5416ZM22.0882 30.8197C21.6573 30.9264 21.9391 31.3171 22.2614 31.1788C22.2949 31.0136 22.2292 30.9032 22.0882 30.8197ZM21.0774 27.8324C21.1285 27.8943 21.2047 27.9237 21.2957 27.9408C21.3373 27.9096 21.3672 27.8759 21.3881 27.8419L21.1374 27.7168L21.0774 27.8324ZM22.7946 29.2402C22.6828 29.4287 22.6422 29.3479 22.8107 29.5498C22.8985 29.5551 22.9875 29.5604 23.0766 29.5655C23.1111 29.3271 23.0964 29.2923 22.914 29.188C22.8765 29.2045 22.8356 29.2224 22.7946 29.2402ZM20.9797 28.021L20.8149 28.3389C20.8267 28.3442 20.8362 28.35 20.8493 28.3549C21.0269 28.3366 21.0652 28.1283 20.9797 28.021ZM21.3963 28.4365C21.3468 28.4129 21.2917 28.3868 21.2351 28.3599C21.1673 28.404 21.1061 28.4438 21.0476 28.4816C20.9998 28.8678 21.6065 28.7672 21.3963 28.4365ZM22.2738 30.1668C22.1495 29.9559 21.9255 29.9672 21.8668 30.2164C21.979 30.4824 22.2008 30.4422 22.2738 30.1668ZM23.9162 29.7975C23.9531 29.9508 24.1313 30.1024 24.239 29.9274C24.3931 29.5973 24.0622 29.4599 23.9162 29.7975ZM19.1411 32.0916C18.9954 32.1752 18.9438 32.2695 19.0271 32.4314C19.5131 32.5342 19.3869 31.9733 19.1411 32.0916ZM23.1366 30.7361C23.3598 30.9513 23.5339 30.6859 23.422 30.4654C23.2341 30.3165 23.0833 30.551 23.1366 30.7361ZM23.1111 28.9203C23.1445 28.9952 23.174 29.0616 23.2038 29.1283C23.2489 29.1445 23.2913 29.1596 23.3552 29.1824C23.4866 29.0817 23.5002 28.9587 23.4575 28.8745L23.2716 28.7818C23.217 28.7946 23.1597 28.8363 23.1111 28.9203ZM18.2054 36.4144C18.2662 36.4662 18.3252 36.5167 18.3879 36.5701C18.4501 36.5362 18.5083 36.5043 18.5662 36.4726C18.5662 36.4063 18.5662 36.3509 18.5662 36.2895C18.4858 36.2419 18.4185 36.2027 18.3552 36.1653C18.1987 36.2583 18.1958 36.263 18.2054 36.4144ZM24.5516 29.5818C24.5904 29.5478 24.6299 29.5133 24.6693 29.4791L24.3717 29.3305C24.3356 29.4218 24.377 29.5384 24.5516 29.5818ZM20.7906 28.8144C20.7264 28.8374 20.6662 28.8665 20.6316 28.9437C20.7444 29.5079 21.3645 28.8513 20.7906 28.8144ZM21.3124 30.8238C21.0817 30.7913 20.9761 31.1126 21.185 31.2211C21.2785 31.2075 21.3501 31.1668 21.4143 31.0931C21.3769 31.0126 21.3939 30.9089 21.3124 30.8238ZM21.2665 29.1906C20.7457 29.3514 21.3044 29.7757 21.4436 29.3957C21.4183 29.3048 21.4046 29.2097 21.2665 29.1906ZM21.8215 29.7038C21.7506 29.6713 21.6981 29.6362 21.6372 29.5888C21.1797 29.8242 21.8608 30.2889 21.8215 29.7038ZM21.6641 28.7778C21.3793 28.8464 21.4242 29.1251 21.7035 29.1409C21.7583 29.0952 21.8095 29.0523 21.8552 29.0141C21.8729 28.863 21.7686 28.8224 21.6641 28.7778ZM22.9128 33.6865C23.0971 33.5981 23.0971 33.5981 23.0766 33.4391C22.927 33.3433 22.6953 33.3014 22.6896 33.5432C22.7452 33.626 22.8117 33.6739 22.9128 33.6865ZM21.4924 32.3544C21.6115 32.4818 21.7954 32.5056 21.8552 32.3019C21.8596 32.0134 21.4575 32.0402 21.4924 32.3544ZM18.6697 33.6576C18.7583 33.6653 18.8537 33.6876 18.9519 33.5979C18.9789 33.15 18.4136 33.3175 18.6697 33.6576ZM22.272 28.9754C22.4097 29.2505 22.5717 29.2157 22.6721 28.9451C22.5476 28.7705 22.3449 28.7487 22.272 28.9754ZM19.3878 33.0343C19.3182 32.9916 19.248 32.9484 19.1858 32.9103C19.0993 32.9358 19.0348 32.9675 18.9871 33.0468C19.0481 33.391 19.2933 33.3259 19.3878 33.0343ZM24.7738 29.7389C24.714 29.9963 25.0309 30.0725 25.1422 29.8499C25.1313 29.7663 25.0541 29.7649 25.0383 29.6996C25.0336 29.6757 25.0216 29.6598 25.007 29.6474L24.9674 29.6276C24.8925 29.6103 24.7855 29.6628 24.7738 29.7389ZM18.5968 32.7248C18.663 32.752 18.6926 32.8672 18.7618 32.8706C18.8619 32.8509 18.9393 32.7742 18.9839 32.6828C18.8868 32.4655 18.5658 32.4427 18.5968 32.7248ZM23.4681 29.6685C23.4201 29.6411 23.3818 29.6189 23.3371 29.5933C22.7365 29.7831 23.5747 30.2711 23.4681 29.6685ZM22.2965 29.8174C22.3539 29.8793 22.4038 29.9331 22.458 29.9913C22.5361 29.9352 22.7622 29.8292 22.6474 29.7188C22.4593 29.5557 22.3509 29.5664 22.2965 29.8174ZM20.1808 36.4308C20.1705 36.077 19.8191 36.1021 19.8449 36.4411C19.8943 36.5731 20.138 36.5713 20.1808 36.4308ZM19.9092 32.4189C19.9627 32.4334 20.0157 32.4477 20.0674 32.4617C20.118 32.395 20.1624 32.3368 20.2151 32.2675C20.1583 32.057 19.9966 32.0697 19.8485 32.1796C19.8381 32.2217 19.8298 32.2542 19.8221 32.285C19.8524 32.3316 19.8799 32.3739 19.9092 32.4189ZM19.4931 32.8175C19.6961 32.8523 19.7202 32.8412 19.802 32.6704C19.7071 32.3588 19.2838 32.5624 19.4931 32.8175ZM22.8306 28.7552C22.8995 28.7822 22.9711 28.7273 23.0136 28.6529L22.7354 28.5141C22.701 28.596 22.7218 28.6987 22.8306 28.7552ZM23.3144 31.2433C22.8347 31.3585 23.4076 31.8781 23.5002 31.4097C23.4355 31.3519 23.3736 31.2963 23.3144 31.2433ZM22.9703 31.6879C22.7534 31.5956 22.6571 31.8383 22.7774 32.0051C22.9905 32.1172 23.1694 31.8072 22.9703 31.6879ZM23.8248 29.2262C23.7855 29.214 23.7433 29.2008 23.6931 29.1853C23.5657 29.2682 23.4986 29.4902 23.6685 29.5844C23.9031 29.4902 23.9157 29.4611 23.8248 29.2262ZM21.6831 30.4113C21.6092 30.4349 21.5454 30.4569 21.5071 30.5194C21.4515 31.0905 22.0831 30.6692 21.6831 30.4113ZM22.0313 32.8716C22.3106 32.815 22.254 32.4077 21.9467 32.5091C21.872 32.7112 21.8782 32.7639 22.0313 32.8716ZM22.501 30.4153C22.0558 30.539 22.5035 31.075 22.6845 30.5781C22.6195 30.5203 22.5625 30.4698 22.501 30.4153ZM18.1201 33.5381L18.0911 33.5939C18.1005 33.588 18.1108 33.5817 18.1201 33.576C18.1201 33.5626 18.1201 33.5509 18.1201 33.5381ZM20.5702 33.4239C20.3692 33.1199 20.0734 33.6171 20.413 33.6959C20.5387 33.6545 20.6381 33.5359 20.5702 33.4239ZM19.6793 33.6561C19.7215 33.5823 19.76 33.5148 19.7997 33.4459C19.7388 33.3734 19.6843 33.3096 19.5845 33.3004C19.536 33.3403 19.484 33.3831 19.4352 33.4232C19.3892 33.6388 19.5039 33.6185 19.6793 33.6561ZM22.8134 30.8935C22.6153 30.9381 22.7548 31.1511 22.8632 31.2273C23.1964 31.1716 23.1184 30.8812 22.8134 30.8935ZM21.8964 33.559C22.0413 33.7838 22.216 33.6712 22.2376 33.4303C22.0845 33.2436 21.9066 33.3299 21.8964 33.559ZM21.7312 34.6272C21.6549 34.6282 21.586 34.6156 21.5252 34.5651C21.2542 34.6824 21.6671 35.1237 21.8389 34.7342C21.8248 34.6785 21.8008 34.6262 21.7312 34.6272ZM23.8128 32.7918C24.0609 32.4986 23.6163 32.3958 23.5386 32.6437C23.5035 32.8275 23.6778 32.8749 23.8128 32.7918ZM19.5056 34.1686C19.4547 34.2655 19.3583 34.4037 19.5496 34.4074C19.5661 34.441 19.5826 34.4746 19.606 34.5214C19.9451 34.4432 19.7553 34.0967 19.5056 34.1686ZM21.7269 28.3212C22.0134 28.0794 21.5389 27.8167 21.4521 28.1571C21.508 28.2815 21.6089 28.3149 21.7269 28.3212ZM21.1281 31.7279C21.0545 31.8136 21.0723 31.9037 21.0771 32.0024C21.3223 32.1763 21.5152 31.815 21.2815 31.6902C21.227 31.7036 21.1732 31.7167 21.1281 31.7279ZM21.2596 32.5129C21.101 32.4567 21.0092 32.6988 21.1398 32.8091C21.411 32.874 21.5685 32.6124 21.2596 32.5129ZM22.7494 35.1183C22.7037 35.4175 23.1312 35.2941 23.0773 35.0802C23.0014 34.9471 22.718 34.9048 22.7494 35.1183ZM22.7871 34.4722C22.9784 34.5396 23.0222 34.398 23.0517 34.2371C22.9885 34.206 22.9486 34.1371 22.8593 34.1312C22.8039 34.191 22.7079 34.219 22.6873 34.3251C22.7197 34.3728 22.7541 34.4236 22.7871 34.4722ZM20.9176 31.5823C20.9777 31.5173 21.0095 31.3585 20.9512 31.2817C20.7916 31.2369 20.6958 31.305 20.6345 31.4405C20.6649 31.5761 20.8168 31.6015 20.9176 31.5823ZM18.1826 34.7318C18.2473 34.7783 18.2692 34.877 18.3805 34.8924C18.4251 34.8689 18.4789 34.8403 18.537 34.8097C18.5557 34.5497 18.257 34.4228 18.1826 34.7318ZM23.6637 31.2329C23.7191 31.1563 23.8184 31.1563 23.8761 31.076C23.8031 30.9962 23.8292 30.8482 23.7218 30.8318C23.6484 30.8929 23.5979 30.9353 23.5417 30.9821C23.5394 31.1148 23.5394 31.1148 23.6637 31.2329ZM23.8751 30.2821C23.875 30.1026 23.8683 30.093 23.6643 30.0097C23.398 30.2393 23.6126 30.4717 23.8751 30.2821ZM24.5299 30.8604C24.4687 30.8933 24.4153 30.9223 24.3586 30.953C24.3695 31.2176 24.5251 31.2544 24.6218 31.1952L24.6894 31.0216C24.6726 30.9681 24.6259 30.911 24.5299 30.8604ZM21.9382 31.7065C21.9201 31.7872 21.9298 31.8713 21.9315 31.9781C22.2707 32.1639 22.371 31.5183 21.9382 31.7065ZM20.0517 33.7107C19.8585 33.7903 19.8419 33.823 19.8949 34.0347C19.9709 34.0279 20.0373 34.0968 20.1212 34.0673C20.238 33.9467 20.1798 33.821 20.0517 33.7107ZM21.8973 34.3643C21.9813 34.5086 22.1945 34.5276 22.2329 34.3438C22.2751 34.0654 21.8964 34.1032 21.8973 34.3643ZM20.2342 29.8346C20.1929 29.7887 20.1549 29.7336 20.114 29.6909L19.994 29.9225C20.0744 29.9275 20.1684 29.9 20.2342 29.8346ZM21.083 30.0947C21.0139 30.2744 21.2519 30.4748 21.3734 30.2902C21.5129 30.117 21.2372 29.9459 21.083 30.0947ZM20.4174 32.5205C20.2944 32.4544 20.2743 32.6243 20.2502 32.7038C20.3265 32.8528 20.5261 32.9046 20.612 32.7325C20.6471 32.6226 20.4843 32.579 20.4174 32.5205ZM19.2813 36.5337C19.4297 36.4987 19.3166 36.3044 19.2782 36.2142C19.1725 36.0704 19.1019 36.2971 19.0337 36.3617C18.9512 36.5158 19.1689 36.5151 19.2813 36.5337ZM17.9264 34.976C17.9039 35.0609 17.8049 35.1043 17.7826 35.2124C17.855 35.2567 17.9253 35.2996 17.9919 35.3404C18.0947 35.2841 18.0947 35.2841 18.1562 35.1273C18.1034 35.0575 18.0464 34.99 17.9264 34.976ZM24.1431 31.2436C24.0691 31.3007 23.9757 31.3369 23.9227 31.4332C24.0274 31.624 24.1992 31.6769 24.2901 31.4515C24.2518 31.3653 24.2561 31.2657 24.1431 31.2436ZM24.3624 31.8621L24.4016 31.7614C24.376 31.7861 24.3603 31.8196 24.3624 31.8621ZM24.4794 30.0449C24.4243 30.0889 24.3921 30.1305 24.3547 30.1885C24.3767 30.2408 24.3949 30.2819 24.4266 30.3262C24.5836 30.4009 24.704 30.372 24.7205 30.1866C24.6676 30.096 24.5866 30.0622 24.4794 30.0449ZM22.7423 36.0274L22.8296 35.8029C22.8232 35.8013 22.8174 35.799 22.8109 35.7977C22.7096 35.8719 22.6999 35.9614 22.7423 36.0274ZM20.8032 35.7464C20.9738 35.6429 20.9738 35.6429 21.0322 35.536C20.982 35.4704 20.9255 35.4108 20.8276 35.3851C20.6363 35.5428 20.6311 35.6379 20.8032 35.7464ZM23.549 31.7956C23.5618 31.9353 23.6165 32.0177 23.7396 32.0462C24.0561 31.8423 23.7937 31.5591 23.549 31.7956ZM24.1126 32.0921C23.9643 32.0733 23.9926 32.2819 23.9609 32.3768C24.0491 32.4259 24.0712 32.4383 24.1467 32.4167L24.238 32.1819C24.2095 32.1415 24.1658 32.1094 24.1126 32.0921ZM18.5615 33.1102C18.499 33.0119 18.4719 32.9713 18.4213 32.9571L18.2787 33.2322C18.3668 33.2815 18.4917 33.2158 18.5615 33.1102ZM22.8928 30.4123C22.97 30.3556 23.0346 30.2962 23.082 30.2237C22.9052 29.9215 22.4326 30.1918 22.8928 30.4123ZM20.7229 32.1479C20.7132 32.2093 20.7053 32.2584 20.697 32.3107C20.7446 32.352 20.7905 32.3915 20.8357 32.4307C21.1722 32.3832 21.0271 31.943 20.7229 32.1479ZM20.9853 30.7073C21.0214 30.5221 21.0188 30.5175 20.8372 30.4469C20.5 30.557 20.7263 30.8873 20.9853 30.7073ZM20.5752 30.9598C20.51 30.7745 20.2467 30.8668 20.2212 31.0394C20.3045 31.2355 20.6311 31.181 20.5752 30.9598ZM21.8104 33.9082C21.8513 33.6818 21.5019 33.739 21.4828 33.9176C21.6045 34.088 21.8165 34.2187 21.8104 33.9082ZM19.8676 33.0444C19.7539 33.3021 20.1334 33.3641 20.1761 33.0875C20.141 32.916 19.9538 32.9064 19.8676 33.0444ZM22.328 31.4164C22.3497 31.4773 22.3701 31.5341 22.3968 31.6096C22.8718 31.7045 22.5421 30.9691 22.328 31.4164ZM20.1988 31.8494C20.2981 31.9012 20.3472 31.9944 20.4488 32.0077C20.513 31.9536 20.5885 31.9132 20.6154 31.8166C20.5183 31.6072 20.3308 31.6982 20.1988 31.8494ZM19.3045 34.8867C19.3324 34.8165 19.3548 34.7604 19.3772 34.7039C19.0702 34.3603 18.8018 34.9319 19.3045 34.8867ZM24.1431 30.4253C24.0873 30.472 24.0414 30.5106 23.9919 30.5519C23.969 30.6817 24.0439 30.6921 24.0905 30.7916C24.1594 30.8763 24.236 30.7479 24.2849 30.71C24.2894 30.5747 24.2758 30.4744 24.1431 30.4253ZM20.0948 35.7068C20.117 35.6423 20.1593 35.582 20.2051 35.5318C20.1479 35.4517 20.0822 35.4011 19.9695 35.3752C19.7759 35.5138 19.8505 35.766 20.0948 35.7068ZM20.257 30.125C20.2222 30.3837 20.5154 30.4677 20.592 30.2166C20.5451 30.0093 20.4028 30.0194 20.257 30.125ZM18.6147 34.3377C18.7145 34.3639 18.7567 34.4749 18.86 34.4802C18.982 34.4121 18.946 34.3054 18.9418 34.1928C18.7688 34.1385 18.6313 34.1135 18.6147 34.3377ZM20.0588 30.779C20.139 30.7198 20.1078 30.6018 20.2106 30.5382C19.9764 30.2104 19.6647 30.7907 20.0588 30.779ZM17.4179 36.4506C17.5061 36.4755 17.57 36.529 17.6535 36.5223C17.6692 36.505 17.6877 36.4846 17.7141 36.4556C17.6967 36.1058 17.2728 36.1145 17.4179 36.4506ZM24.8177 30.6916L24.9023 30.4741C24.8758 30.4798 24.8482 30.488 24.8194 30.5008C24.8123 30.5562 24.8064 30.6291 24.8177 30.6916ZM17.7815 34.2105C17.8146 34.2949 17.8682 34.3793 17.8672 34.4732C17.9732 34.5066 18.0394 34.4447 18.1198 34.4032C18.1724 34.1839 17.9528 34.1283 17.7815 34.2105ZM22.3191 32.35C22.4801 32.5223 22.7604 32.3313 22.5844 32.1327C22.5181 32.1327 22.4409 32.1327 22.3552 32.1327C22.3433 32.2067 22.2827 32.2638 22.3191 32.35ZM23.3124 32.8869C23.2285 32.9017 23.2365 32.9641 23.2167 33.0079C23.1957 33.0547 23.1177 33.0444 23.1121 33.1156C23.2322 33.3339 23.4893 33.2539 23.4608 33.0073C23.4101 32.9663 23.3622 32.9272 23.3124 32.8869ZM17.3785 35.5843C17.4884 35.7648 17.7033 35.6939 17.7185 35.4824C17.5966 35.3225 17.348 35.3554 17.3785 35.5843ZM17.7068 34.6849C17.6643 34.65 17.622 34.6153 17.5797 34.5806L17.4473 34.8362C17.486 34.8612 17.5433 34.8801 17.6254 34.8903C17.717 34.843 17.7292 34.7713 17.7068 34.6849ZM22.6101 35.6252C22.6615 35.3272 22.3901 35.3313 22.2607 35.5522C22.3911 35.6462 22.4667 35.7943 22.6101 35.6252ZM20.967 33.0084C20.9238 32.9772 20.887 32.9511 20.8377 32.9157C20.3502 33.0849 21.0255 33.5288 20.967 33.0084ZM19.5661 36.1322C19.6265 36.0802 19.6799 36.0344 19.7375 35.9849C19.7348 35.9264 19.7321 35.8651 19.7294 35.8054C19.6807 35.7902 19.6433 35.7782 19.6079 35.7669C19.4096 35.8372 19.3701 36.0294 19.5661 36.1322ZM21.6913 32.8833C21.6313 32.992 21.5065 33.0112 21.4875 33.1254C21.5861 33.2628 21.6995 33.2026 21.8141 33.1698C21.8239 33.1069 21.8372 33.0532 21.8549 32.9915C21.7967 32.9526 21.7459 32.9194 21.6913 32.8833ZM23.3586 33.7592C23.2131 33.7582 22.9409 33.9697 23.1894 34.0373C23.3758 34.0788 23.5922 33.8695 23.3586 33.7592ZM20.6353 33.9877C20.8714 34.1169 20.8489 34.0549 20.9994 33.9476C20.9824 33.9016 20.9657 33.8561 20.95 33.8136C20.8951 33.7972 20.8476 33.7828 20.7956 33.7674C20.7369 33.8373 20.6022 33.8387 20.6353 33.9877ZM19.3533 31.5158C19.37 31.4301 19.3514 31.3549 19.2846 31.2914L19.1337 31.5828C19.1896 31.5896 19.2645 31.5728 19.3533 31.5158ZM19.7038 30.8504C19.4056 30.8529 19.3497 31.2378 19.6957 31.1567C19.7281 31.1101 19.7595 31.0647 19.7909 31.0193C19.764 30.9674 19.7392 30.9189 19.7038 30.8504ZM21.4982 31.4317C21.5773 31.5388 21.5747 31.631 21.7465 31.5945C21.7707 31.5482 21.7964 31.4989 21.8312 31.4322C21.7881 31.276 21.4461 31.2345 21.4982 31.4317ZM20.5822 29.2826C20.5342 29.258 20.4897 29.2352 20.4518 29.2158C20.4035 29.2249 20.3654 29.2422 20.3345 29.266L20.2636 29.403C20.3687 29.5983 20.6637 29.5269 20.5822 29.2826ZM18.986 35.9045C18.9271 35.8635 18.8736 35.8261 18.8309 35.7966C18.7239 35.813 18.6581 35.8568 18.6253 35.9475C18.6326 35.9769 18.6407 36.0095 18.6478 36.038C18.7718 36.1546 18.9597 36.0547 18.986 35.9045ZM17.8102 36.0323C17.8929 36.1704 18.0015 36.1493 18.1135 36.0217C18.1112 35.7856 17.7195 35.7408 17.8102 36.0323ZM19.1598 35.4248C19.1073 35.4466 19.0324 35.4648 19.0379 35.5323C19.0796 35.6034 19.118 35.669 19.1653 35.7495C19.3764 35.7342 19.4072 35.2741 19.1598 35.4248ZM18.9025 35.016C18.8467 34.9981 18.7994 34.9832 18.7544 34.9686C18.3238 35.2307 19.0348 35.4915 18.9025 35.016ZM17.1364 35.7943C17.0615 35.8261 16.994 35.8534 16.9688 35.9284C17.0006 35.9849 17.0301 36.037 17.0645 36.0979C17.3591 36.0555 17.4211 35.9473 17.1364 35.7943ZM18.319 33.7474C18.2906 33.7899 18.2569 33.84 18.2206 33.8946C18.2704 33.9577 18.3147 34.0139 18.3592 34.0701C18.6045 34.0419 18.5725 33.6897 18.319 33.7474ZM19.4724 31.7293C19.4643 31.8784 19.4792 31.9105 19.6035 32.0189C19.8982 31.9536 19.717 31.5799 19.4724 31.7293ZM21.333 35.8001C21.1318 35.7416 21.0602 35.9307 21.1538 36.0827C21.1598 36.0881 21.165 36.0915 21.1707 36.0961L21.315 36.1052C21.3698 36.0414 21.3744 35.8878 21.333 35.8001ZM22.5896 32.9477C22.3333 32.8939 22.2334 33.1115 22.498 33.211C22.6766 33.2437 22.6947 33.0582 22.5896 32.9477ZM16.6392 36.4996C16.7025 36.4996 16.7626 36.4996 16.8331 36.4996C16.8266 36.4083 16.9321 36.3455 16.8749 36.246C16.8265 36.2355 16.7798 36.2252 16.7326 36.2148L16.6138 36.4439C16.6209 36.4616 16.629 36.4799 16.6392 36.4996ZM23.1702 34.8125C23.1834 34.8194 23.1958 34.8246 23.2081 34.8298L23.3234 34.5334C23.1834 34.6496 23.1724 34.6715 23.1702 34.8125ZM23.0145 32.771C22.9944 32.7349 22.9782 32.7064 22.9623 32.6776C22.9791 32.6436 22.9957 32.6098 23.0125 32.576C22.5912 32.3839 22.6506 32.9863 23.0145 32.771ZM19.5118 35.2458C19.6543 35.3222 19.7436 35.247 19.765 35.0923C19.6268 34.9147 19.2618 35.0759 19.5118 35.2458ZM18.2703 35.4422C18.2683 35.5214 18.2603 35.5924 18.2422 35.6737C18.3668 35.6958 18.4768 35.7051 18.5577 35.575C18.4818 35.4035 18.4405 35.3844 18.2703 35.4422ZM22.1654 35.2403C22.1874 34.9549 22.0053 34.8709 21.8856 35.1645C21.9248 35.2183 21.9544 35.2584 21.9823 35.2968C22.0818 35.3019 22.0818 35.3019 22.1654 35.2403ZM22.0679 28.7263C22.3038 28.7273 22.2794 28.3791 22.0517 28.4378C21.8424 28.4984 21.927 28.6354 22.0679 28.7263ZM21.2853 35.3053C21.413 35.2584 21.3998 34.9967 21.2746 34.9733C21.0392 35.0038 21.0476 35.26 21.2853 35.3053ZM20.4442 34.4592C20.4642 34.3739 20.5451 34.399 20.5832 34.3606C20.5688 34.2906 20.5558 34.2258 20.5429 34.163C20.4325 34.147 20.4325 34.147 20.3248 34.2035C20.3433 34.3262 20.3433 34.3262 20.2933 34.4308C20.364 34.4936 20.4328 34.5077 20.4442 34.4592ZM21.285 33.6399C21.3637 33.5873 21.4875 33.4305 21.3645 33.3733C21.2498 33.3465 21.1541 33.3446 21.096 33.4686C21.1553 33.5446 21.1843 33.7193 21.285 33.6399ZM20.9473 29.9248C21.0987 29.7737 20.9151 29.6167 20.7495 29.7049C20.5361 29.8331 20.7911 29.9766 20.9473 29.9248ZM20.581 35.0578C20.5328 35.0338 20.4833 35.0094 20.4348 34.9853C20.3456 35.013 20.291 35.0706 20.2536 35.1478C20.3689 35.3137 20.6581 35.3038 20.581 35.0578ZM22.6227 33.9851C22.5914 33.9056 22.5656 33.8396 22.5424 33.7805C22.1737 33.7177 22.2951 34.204 22.6227 33.9851ZM19.137 33.7851C19.1097 33.8257 19.0815 33.8672 19.0545 33.9073C19.1955 34.0855 19.226 34.088 19.3858 33.9383C19.3045 33.7654 19.2986 33.7618 19.137 33.7851ZM20.1463 34.858C20.2549 34.4765 19.6663 34.6102 19.9082 34.858C19.9769 34.858 20.0494 34.858 20.1463 34.858ZM22.1043 36.1243C22.1508 36.0544 22.1935 35.9905 22.2349 35.9283C22.1844 35.8327 22.1154 35.8046 22.0174 35.837C21.9337 35.9889 21.8785 36.0892 22.1043 36.1243ZM20.3652 35.7973C20.3343 35.8975 20.342 36.0043 20.3202 36.1106C20.3392 36.1175 20.3563 36.1198 20.3737 36.1229C20.3732 36.069 20.3662 36.045 20.3662 36.045L20.5733 36.0581C20.5809 36.0513 20.5886 36.0466 20.5962 36.0387C20.5304 35.9431 20.5114 35.827 20.3652 35.7973ZM20.1329 31.5027C20.2152 31.3129 19.8602 31.2066 19.8424 31.4545C19.9146 31.5569 20.0514 31.64 20.1329 31.5027ZM23.1346 32.2685C23.192 32.3843 23.3967 32.458 23.4602 32.3112C23.5003 32.1314 23.1465 32.0784 23.1346 32.2685ZM20.9649 34.6996C20.9502 34.4832 20.7057 34.6242 20.6647 34.7638C20.7655 34.9222 20.9413 34.8794 20.9649 34.6996ZM21.1135 34.3636C21.1523 34.3905 21.1923 34.4176 21.2371 34.4484C21.3017 34.381 21.3591 34.3211 21.4226 34.2552C21.287 34.0516 21.11 34.1435 21.1135 34.3636ZM21.5202 35.5846C21.6141 35.7404 21.689 35.7541 21.8167 35.6269C21.784 35.549 21.7569 35.4841 21.7301 35.4203C21.5798 35.3861 21.5871 35.5298 21.5202 35.5846ZM23.53 33.4844C23.5817 33.5471 23.6332 33.5916 23.6792 33.6185L23.7767 33.3679C23.6636 33.3423 23.6257 33.4553 23.53 33.4844ZM22.3051 34.6818C22.363 34.8206 22.4791 34.7897 22.5713 34.8115C22.7748 34.6808 22.3997 34.5364 22.3051 34.6818ZM16.275 39.1686C16.0579 39.0894 16.0659 39.4571 16.275 39.4425C16.4326 39.5046 16.522 39.32 16.4678 39.1817C16.4047 39.1478 16.3625 39.0714 16.275 39.0658C16.275 39.1001 16.275 39.1343 16.275 39.1686ZM16.4274 38.3306C16.3716 38.3365 16.3234 38.3416 16.2752 38.3467C16.2496 38.3409 16.2241 38.335 16.2038 38.3306C16.1181 38.4279 16.0864 38.6451 16.2752 38.6207C16.3414 38.6338 16.4073 38.6384 16.4668 38.6174C16.5667 38.4977 16.4734 38.4184 16.4274 38.3306ZM16.275 41.5656C16.275 41.5771 16.275 41.5885 16.275 41.5997C16.1877 41.604 16.1577 41.6698 16.1278 41.728C16.1674 41.8041 16.1703 41.9205 16.275 41.9079C16.3658 41.9195 16.4227 41.8708 16.4668 41.8113C16.4544 41.6798 16.4229 41.5749 16.275 41.5656ZM16.275 40.778C16.275 40.7894 16.275 40.8009 16.275 40.8121C16.2492 40.8066 16.2237 40.8009 16.1938 40.7943C16.1406 40.9269 16.1157 41.0106 16.275 41.052C16.5464 41.1179 16.5391 40.7538 16.275 40.778ZM18.946 36.8058C18.9575 36.8058 18.9689 36.8058 18.9803 36.8058C18.9914 36.6585 18.8794 36.6267 18.785 36.5852C18.6525 36.6053 18.6398 36.704 18.6036 36.8058C18.5922 36.8058 18.5808 36.8058 18.5694 36.8058C18.5792 37.0027 18.9349 37.0248 18.946 36.8058ZM16.4464 36.8058C16.4578 36.8058 16.4692 36.8058 16.4806 36.8058C16.4792 36.7705 16.4879 36.7333 16.4811 36.7003L16.3188 37.0135C16.405 37.0015 16.4243 36.8802 16.4464 36.8058ZM17.3346 38.3875C17.2871 38.3486 17.2437 38.3129 17.1985 38.2757C16.8168 38.2801 16.9522 38.7378 17.2906 38.6768C17.3695 38.5892 17.332 38.4847 17.3346 38.3875ZM17.9491 39.484C18.2393 39.4595 18.1024 38.96 17.8759 39.1137C17.7195 39.2994 17.7378 39.3682 17.9491 39.484ZM17.5014 37.8773C17.1547 38.0538 17.5583 38.4211 17.7519 38.0608C17.6593 37.9619 17.6807 37.7746 17.5014 37.8773ZM16.7654 39.4879C16.7066 39.5172 16.6566 39.542 16.6028 39.5687C16.3618 40.0739 17.2625 39.8616 16.7654 39.4879ZM17.6566 38.7064C17.3193 38.6168 17.2745 39.1612 17.6444 39.0298C17.6787 38.9791 17.713 38.9283 17.7465 38.8789C17.7167 38.8219 17.6887 38.7681 17.6566 38.7064ZM18.3372 37.0425C18.083 37.2641 18.2429 37.3571 18.4955 37.4076C18.5253 37.3016 18.6212 37.2188 18.5288 37.1337C18.4743 37.0906 18.4146 36.9826 18.3372 37.0425ZM16.5762 42.2628C16.5864 42.2631 16.5956 42.2646 16.6059 42.2649C16.6059 42.2649 16.6623 42.184 16.8119 41.9731C16.6919 41.9186 16.5156 42.0577 16.5762 42.2628ZM19.099 37.3942C19.3428 37.5297 19.416 37.2322 19.2788 37.066C19.093 37.0579 18.9079 37.2474 19.099 37.3942ZM17.7966 37.7221C17.936 37.8498 17.973 37.8172 18.1058 37.7362C18.2877 37.5295 17.7699 37.2441 17.7966 37.7221ZM16.8655 38.7952C16.6717 38.5605 16.5554 38.7207 16.5176 38.9637C16.6364 39.0651 16.995 38.9831 16.8655 38.7952ZM18.307 38.7052C18.1256 38.7875 18.1911 39.0995 18.4167 39.0684C18.534 38.9136 18.5945 38.6447 18.307 38.7052ZM18.0108 39.9362C17.7759 39.9532 17.7153 40.1755 17.9107 40.2988C17.9601 40.3206 17.9982 40.2861 18.0399 40.259C18.0735 40.2123 18.1079 40.1645 18.143 40.1157C18.1109 40.0599 18.033 40.0027 18.0108 39.9362ZM18.4549 37.8656C18.303 37.7879 18.2702 38.0004 18.1753 38.0658C18.3162 38.3743 18.722 38.0953 18.4549 37.8656ZM16.7004 38.2427C17.0107 38.1774 16.8754 37.7152 16.5932 37.9334C16.5855 38.0558 16.5551 38.1794 16.7004 38.2427ZM18.7817 37.4239C18.6961 37.5022 18.6437 37.5493 18.5788 37.6275C18.6928 37.9601 19.1897 37.672 18.7817 37.4239ZM17.2996 40.1422C17.2714 40.0282 17.2306 39.9396 17.0947 39.9374C17.0465 39.9756 16.9942 40.0173 16.9291 40.0689C16.9996 40.2473 17.2163 40.3869 17.2996 40.1422ZM16.868 41.3924C16.8943 41.3081 16.846 41.2074 16.751 41.1676C16.6016 41.1904 16.5727 41.295 16.5535 41.4103C16.7188 41.5358 16.7427 41.6224 16.868 41.3924ZM19.3478 38.1665C19.3847 38.0348 19.3433 37.9439 19.2209 37.8836C19.1692 37.9178 19.1181 37.9515 19.0628 37.988C19.0272 38.2421 19.1628 38.2798 19.3478 38.1665ZM18.3829 39.5562C18.182 39.5378 18.1226 39.7747 18.3137 39.851C18.3194 39.8535 18.3248 39.8542 18.3304 39.8559C18.3876 39.7766 18.4461 39.6954 18.5069 39.6113C18.487 39.5751 18.4477 39.5511 18.3829 39.5562ZM19.013 38.8955C19.0137 38.8979 19.015 38.8993 19.0157 38.9018C19.0184 38.8979 19.021 38.8941 19.0237 38.8902C19.0202 38.8919 19.0162 38.8938 19.013 38.8955ZM19.0639 38.7786C19.0702 38.7859 19.078 38.7949 19.0846 38.8025C19.1077 38.7691 19.1304 38.736 19.1526 38.7032C19.1218 38.711 19.0913 38.734 19.0639 38.7786ZM18.8126 38.2885C18.7009 38.3111 18.6279 38.3604 18.6267 38.5092C18.8346 38.7919 19.1103 38.4532 18.8126 38.2885ZM19.8006 37.589C19.7548 37.5399 19.7205 37.4869 19.6435 37.4635C19.5666 37.5674 19.5132 37.6042 19.3847 37.6346C19.5368 37.8401 19.7371 37.8568 19.8006 37.589ZM16.9722 37.5563C16.9269 37.6915 17.0467 37.8122 17.1801 37.8088C17.242 37.7963 17.2642 37.7793 17.2523 37.7068C17.3801 37.4738 17.1387 37.4694 16.9722 37.5563ZM18.0636 38.6238C18.1366 38.5632 18.1105 38.505 18.0951 38.4446C18.0781 38.2994 17.9854 38.3163 17.8716 38.3352C17.7562 38.5157 17.8548 38.6805 18.0636 38.6238ZM16.8148 40.3849C16.7369 40.2889 16.5304 40.3647 16.5797 40.4925C16.6052 40.5492 16.6148 40.6062 16.6089 40.6891C16.7502 40.6319 16.8804 40.6854 16.8353 40.491C16.8443 40.454 16.8436 40.4156 16.8148 40.3849ZM18.7232 39.1657C18.7051 39.2241 18.6764 39.2449 18.6196 39.254C18.5397 39.3161 18.5842 39.3695 18.6603 39.3989C18.7108 39.3288 18.7624 39.2575 18.8153 39.1843C18.8313 39.1623 18.8459 39.1415 18.8614 39.1196C18.83 39.0938 18.784 39.0997 18.7232 39.1657ZM19.8542 37.3131C19.8933 37.3241 19.9324 37.338 19.9704 37.3454C20.0092 37.2685 20.0448 37.1949 20.0767 37.126C19.9521 37.0568 19.7857 37.1162 19.8542 37.3131ZM17.4994 37.0717C17.4704 37.1257 17.4413 37.1796 17.4032 37.2502C17.4239 37.3861 17.6208 37.4684 17.6623 37.3153C17.6582 37.2023 17.6817 37.0271 17.4994 37.0717ZM17.4089 40.5071C17.3527 40.7566 17.6755 40.7101 17.6769 40.5168C17.6432 40.3588 17.3741 40.2923 17.4089 40.5071ZM16.9961 41.7143C17.014 41.6893 17.0324 41.6635 17.0517 41.6365C17.0298 41.6471 17.0073 41.6604 16.9839 41.6795C16.9882 41.6915 16.992 41.7025 16.9961 41.7143ZM16.5662 37.2287C16.7532 37.4583 16.8302 37.4008 16.8827 37.1332C16.7426 37.0636 16.6062 37.0508 16.5662 37.2287ZM17.3743 39.6737C17.4439 39.7347 17.5095 39.7925 17.5881 39.8614C17.6419 39.8209 17.6924 39.7868 17.7117 39.7286C17.6245 39.5009 17.4549 39.5039 17.3743 39.6737ZM17.2601 39.373C17.3225 39.271 17.2379 39.1393 17.1365 39.0828C17.0537 39.1169 17.0231 39.1876 16.9963 39.2712C17.0534 39.4033 17.1528 39.392 17.2601 39.373ZM17.1701 40.8021C17.1271 40.8297 17.0862 40.8562 17.0235 40.8963C17.1741 41.2279 17.4763 40.9072 17.1701 40.8021ZM16.275 37.7988C16.275 37.7874 16.275 37.776 16.275 37.7646C16.3061 37.776 16.3371 37.7871 16.3728 37.8003C16.5584 37.6913 16.4691 37.4714 16.275 37.4564C16.275 37.4678 16.275 37.4792 16.275 37.4906C16.0758 37.4991 16.1188 37.7448 16.275 37.7988ZM16.275 40.2642C16.275 40.2757 16.275 40.2871 16.275 40.2985C16.528 40.3647 16.4862 39.9094 16.275 39.9218C16.275 39.956 16.275 39.9903 16.275 40.0245C16.1948 40.0044 16.1612 40.073 16.0907 40.1103C16.1422 40.187 16.1729 40.2637 16.275 40.2642ZM15.5648 40.7795C15.3707 40.7609 15.1931 40.842 15.3313 41.0474C15.393 41.063 15.4469 41.0767 15.4987 41.0898C15.5822 41.053 15.6006 40.9697 15.6515 40.9133C15.6198 40.8639 15.5927 40.8225 15.5648 40.7795ZM14.5148 40.8049C14.5005 40.8428 14.4849 40.884 14.4658 40.935C14.5273 41.0213 14.5754 41.1026 14.6853 41.04C14.8525 40.9959 14.8686 40.9634 14.7977 40.8111C14.7391 40.7051 14.6102 40.7966 14.5148 40.8049ZM14.9451 39.8438C15.2005 39.8783 15.4138 39.5829 15.0236 39.5227C15.0214 39.5237 15.0186 39.525 15.0163 39.5261L14.9184 39.7149C14.9183 39.7616 14.9194 39.8054 14.9451 39.8438ZM15.2018 40.5681C15.1401 40.2928 15.021 40.308 14.8381 40.4814C14.869 40.6197 14.9893 40.6308 15.0766 40.6834C15.1369 40.6615 15.1886 40.6402 15.2018 40.5681ZM14.7656 40.1074C14.761 40.0829 14.7552 40.0619 14.7486 40.0427L14.6136 40.3029C14.6218 40.3033 14.63 40.3035 14.6396 40.3019C14.68 40.2397 14.7191 40.1791 14.7656 40.1074ZM15.7427 42.0684C15.7445 42.0793 15.7454 42.0916 15.7461 42.1038C15.8446 42.1398 15.9463 42.1726 16.055 42.1977C16.0731 42.0986 15.934 42.0185 15.7427 42.0684ZM15.5882 38.4228L15.4817 38.6281C15.594 38.6251 15.6138 38.5235 15.5882 38.4228ZM16.0074 41.4155C16.0881 41.3398 15.9419 41.294 15.8837 41.2492C16.0466 40.9983 15.612 41.251 15.7157 41.3777C15.7398 41.5711 15.8964 41.4856 16.0074 41.4155ZM16.0248 37.9588C15.9563 37.9041 15.8944 37.9108 15.8373 37.9421L15.7318 38.1456C15.8827 38.2519 16.0787 38.2036 16.0248 37.9588ZM15.4936 39.9378C15.2399 39.9305 15.2842 40.0867 15.3661 40.2551C15.5602 40.2851 15.6917 40.0242 15.4936 39.9378ZM15.7772 40.6127C15.9476 40.7312 16.0061 40.5275 16.0283 40.3892C15.8204 40.3429 15.6064 40.3641 15.7772 40.6127ZM15.717 38.8838C15.724 38.927 15.7318 38.9755 15.7385 39.0175C15.9273 39.0974 15.9707 38.843 16.0345 38.7281C15.8819 38.6081 15.8042 38.7712 15.717 38.8838ZM15.2374 41.3255C15.1349 41.3005 15.128 41.1537 15.005 41.1744C14.9699 41.2179 14.9312 41.2653 14.891 41.3149C14.9016 41.3538 14.9117 41.3906 14.921 41.4241C15.1681 41.4552 15.1875 41.4489 15.2374 41.3255ZM15.3622 39.1854C15.3266 39.3482 15.3808 39.4535 15.5529 39.4141C15.805 39.3041 15.5445 39.1222 15.3622 39.1854ZM15.4339 41.8693C15.4801 41.8049 15.572 41.8199 15.6217 41.75C15.6053 41.6214 15.4723 41.5775 15.355 41.6237C15.3609 41.6561 15.3654 41.6816 15.3711 41.7133C15.3417 41.7327 15.3111 41.753 15.2701 41.7801C15.3162 41.8287 15.3709 41.9002 15.4339 41.8693ZM15.8614 39.5283C15.7694 39.5819 15.7421 39.6675 15.7073 39.7566C15.759 39.7945 15.7913 39.8077 15.851 39.8293C15.9052 39.7746 15.956 39.723 16.0101 39.6683C15.9658 39.6026 15.9299 39.5473 15.8614 39.5283Z" fill="#421B36"/>
</g>
<path d="M14.8154 28.6362C14.8154 28.6362 16.2484 32.9108 19.7204 32.7633C23.1925 32.6157 22.3793 30.323 21.2979 29.4331C20.8476 29.0625 18.5142 27.876 18.5142 27.876L14.8154 28.6362Z" fill="#FFAE7A"/>
<path d="M19.1983 33.86C19.1512 32.4535 14.6463 29.4463 14.6463 29.4463L11.9343 35.4723L11.4132 36.3592C11.4132 36.3592 11.4735 36.4398 11.584 36.5708C11.4229 36.5239 11.2945 36.5113 11.2173 36.5487C10.6856 36.8065 10.4583 37.3346 10.4583 37.3346C10.4263 37.4152 13.3426 42.7455 15.2769 41.3278C15.9814 40.8116 15.8622 39.1682 15.3917 38.7433C15.4022 38.7434 15.3989 38.658 15.4095 38.658C17.884 38.6637 17.5834 35.7524 17.5834 35.7524C17.5834 35.7524 19.2454 35.2664 19.1983 33.86Z" fill="#FFAE7A"/>
<path d="M14.5861 29.088C15.1452 30.3211 16.3412 31.2268 17.4981 31.8631C17.6994 31.9738 17.8795 31.6659 17.6781 31.555C16.5692 30.9452 15.4303 30.0904 14.8941 28.908C14.7995 28.6992 14.4919 28.8804 14.5861 29.088Z" fill="#421B36"/>
<path d="M17.7417 27.6213C18.5276 27.7636 19.2915 28.2896 19.9441 28.726C20.6546 29.2008 21.3496 29.712 21.9337 30.3388C22.0618 30.4764 22.2529 30.2758 22.137 30.1355C21.5703 29.4496 20.7503 28.909 20.0012 28.4459C19.3282 28.0298 18.5663 27.5629 17.7598 27.4866C17.6836 27.4795 17.6656 27.6076 17.7417 27.6213Z" fill="#421B36"/>
<path d="M19.1759 27.5145C19.2911 27.6418 19.3607 27.8126 19.4452 27.9604C19.4951 28.0479 19.544 28.1343 19.5826 28.2277C19.6014 28.2733 19.6531 28.3595 19.6441 28.4089C19.6244 28.5166 19.7712 28.5949 19.8306 28.4875C19.9366 28.2956 19.7945 28.0776 19.6873 27.9205C19.5646 27.7407 19.4029 27.5767 19.2145 27.4647C19.1826 27.4456 19.1522 27.4883 19.1759 27.5145Z" fill="#421B36"/>
<path d="M15.5867 35.0264C15.911 34.6282 16.4164 34.3995 16.9324 34.456C17.4295 34.5105 17.8669 34.8336 18.0962 35.2715C18.2028 35.475 18.5107 35.2949 18.4043 35.0915C18.1219 34.5521 17.578 34.1767 16.9737 34.104C16.3603 34.0302 15.7233 34.2969 15.3345 34.7741C15.1908 34.9506 15.4416 35.2045 15.5867 35.0264Z" fill="#421B36"/>
<path d="M12.117 32.3554C12.6884 33.3776 13.623 34.1088 14.5806 34.7492C15.5227 35.3791 16.7359 36.3147 17.9347 35.8341C18.4474 35.6287 19.0295 35.1488 18.9777 34.5392C18.9585 34.3121 18.6015 34.31 18.621 34.5392C18.662 35.0208 18.1375 35.398 17.7281 35.5312C17.1844 35.7083 16.6007 35.5371 16.1114 35.2835C15.6418 35.0401 15.1998 34.7348 14.7608 34.4411C14.3294 34.1526 13.9067 33.8499 13.5193 33.5037C13.0875 33.1179 12.7084 32.6821 12.4251 32.1753C12.3129 31.975 12.0047 32.1547 12.117 32.3554Z" fill="#421B36"/>
<path d="M11.0761 36.5118C11.5557 36.9524 12.0511 37.3773 12.5754 37.7638C13.1021 38.152 13.6638 38.4948 14.2955 38.682C15.391 39.0066 16.7252 38.8445 17.3477 37.7812C17.6827 37.2092 17.7197 36.5345 17.594 35.8961C17.5498 35.6711 17.2058 35.7663 17.25 35.991C17.4303 36.9074 17.1396 37.9651 16.196 38.3294C15.0299 38.7796 13.7928 38.2048 12.8515 37.5262C12.3156 37.14 11.8142 36.7063 11.3281 36.2597C11.1595 36.1044 10.9066 36.3561 11.0761 36.5118Z" fill="#421B36"/>
<path d="M12.0818 40.857C12.9212 40.0778 14.2879 40.2701 14.8022 41.3094C14.904 41.5152 15.2117 41.3347 15.1102 41.1294C14.8358 40.5748 14.3208 40.172 13.7111 40.0537C13.0335 39.9223 12.3333 40.1372 11.8297 40.6047C11.6609 40.7613 11.9136 41.0131 12.0818 40.857Z" fill="#421B36"/>
<path d="M12.9822 41.7202C13.6097 41.998 14.3661 41.9028 14.9685 41.6015C15.6338 41.2686 16.0192 40.5926 15.9993 39.8501C15.9878 39.4153 15.8402 39.008 15.5737 38.6657C15.4329 38.4847 15.1821 38.7389 15.3215 38.9179C15.7979 39.5297 15.7501 40.524 15.1629 41.0477C14.6681 41.4892 13.7803 41.686 13.1622 41.4123C12.9542 41.3201 12.7726 41.6273 12.9822 41.7202Z" fill="#421B36"/>
<path d="M13.8758 38.1645C14.0427 37.6453 14.5417 37.2389 15.0916 37.208C15.652 37.1764 16.2172 37.5232 16.4339 38.0439C16.4712 38.1335 16.5518 38.1953 16.6534 38.1685C16.7376 38.1462 16.8149 38.038 16.7779 37.9491C16.5017 37.2852 15.824 36.8099 15.0917 36.8511C14.3783 36.8912 13.7494 37.3932 13.5319 38.0695C13.4614 38.2886 13.8057 38.3825 13.8758 38.1645Z" fill="#421B36"/>
<path d="M29.9575 39.4431C29.8 39.3836 31.6719 40.7674 31.6719 40.7674C31.6719 40.7674 28.8271 32.4303 26.4026 30.9398C23.9783 29.4493 17.5828 30.5257 17.2602 32.3732C16.8436 34.7594 20.1219 34.6156 20.1219 34.6156L23.4843 35.0388C23.4843 35.0388 20.6495 41.0809 24.0807 43.5269C27.5121 45.973 29.9575 39.4431 29.9575 39.4431Z" fill="#FFAE7A"/>
<path d="M23.4962 35.1963C23.8613 35.5487 24.2383 35.8987 24.6863 36.1448C24.8685 36.2448 25.0323 35.9595 24.8484 35.8676C24.4074 35.6472 23.9759 35.4196 23.6122 35.0804C23.5351 35.0087 23.42 35.1227 23.4962 35.1963Z" fill="#421B36"/>
<path d="M24.7549 34.994C22.8247 34.7944 20.8728 34.6636 18.9556 34.3631C18.1136 34.2311 17.3631 33.7584 17.3814 32.7742C17.4141 31.0118 20.4993 30.6876 21.7727 30.5821C22.6535 30.5092 23.5441 30.5094 24.4239 30.597C25.013 30.6556 25.8219 30.7071 26.3174 31.081C26.4678 31.1944 26.6656 30.9398 26.5201 30.8183C25.5167 29.9809 23.5728 30.0976 22.3714 30.1481C20.7951 30.2144 18.3007 30.4158 17.3118 31.856C16.738 32.6915 17.0833 33.9718 17.9671 34.4719C18.2774 34.6474 18.669 34.6681 19.0153 34.7142C19.7054 34.8059 20.3996 34.8682 21.093 34.9275C22.3118 35.0318 23.5323 35.0977 24.7548 35.1375C24.849 35.1408 24.845 35.0033 24.7549 34.994Z" fill="#421B36"/>
<path d="M17.3517 32.6665C17.9829 32.7718 18.6794 32.7427 19.2305 32.3816C19.7108 32.0668 20.0564 31.5162 20.011 30.9291C19.9935 30.7017 19.6366 30.6998 19.6543 30.9291C19.691 31.4044 19.4169 31.8458 19.0197 32.0932C18.5554 32.3826 17.9734 32.4106 17.4464 32.3225C17.222 32.2851 17.1254 32.6289 17.3517 32.6665Z" fill="#421B36"/>
<path d="M23.474 35.032C22.6063 36.6008 21.8813 38.6269 21.997 40.4447C22.123 42.4214 23.9666 44.0773 25.7134 44.7241C25.9541 44.8133 26.1288 44.4076 25.8899 44.3055C24.1484 43.5611 22.3974 41.9714 22.4475 39.9434C22.4886 38.279 23.0365 36.6278 23.4954 35.0412C23.4991 35.0285 23.4805 35.0203 23.474 35.032Z" fill="#421B36"/>
<path d="M31.8897 22.3066C32.4115 23.0607 32.7463 24.1086 32.7022 25.0244C32.6451 26.2057 32.3417 27.2209 31.5728 28.1195C30.8039 29.0181 29.341 29.6673 28.1729 29.483L31.8897 22.3066Z" fill="#421B36"/>
<path d="M31.3496 20.3053C31.4609 20.5154 32.9866 23.1008 31.0206 26.9841C31.0206 26.9841 29.3261 30.6895 25.921 30.0892L19.0767 26.6473L23.9684 15.8927C23.9684 15.8927 24.3518 15.6887 25.0439 16.1789C25.7362 16.669 31.019 19.6803 31.3496 20.3053Z" fill="#8380FF"/>
<path d="M24.4238 16.4149C24.7997 16.8046 25.0767 17.2928 25.2144 17.8417C25.481 18.9034 25.593 20.7287 24.4325 23.1366C22.6827 26.7676 20.9872 27.6618 18.7879 26.5707C16.7027 25.5363 5.88726 26.3541 5.81748 26.227C5.51414 25.6739 14.5982 4.33031 15.9167 5.05413C17.171 5.74286 21.7982 13.6924 24.4238 16.4149Z" fill="#8380FF"/>
<path d="M18.8435 19.937C22.0692 13.943 21.7866 7.5246 18.2123 5.60106C14.6379 3.67752 9.12541 6.97724 5.89972 12.9712C2.67402 18.9652 2.95665 25.3836 6.53098 27.3071C10.1053 29.2306 15.6178 25.9309 18.8435 19.937Z" fill="#8380FF"/>
<path d="M5.45945 13.5427C4.32627 15.8721 3.54565 18.4237 3.52482 21.0316C3.50984 22.9156 3.90379 24.9648 5.19421 26.4114C7.73395 29.2589 11.8097 27.6986 14.3229 25.6953C18.1332 22.6579 20.7882 17.6887 21.1732 12.8334C21.4481 9.36653 20.1352 4.94568 15.9676 4.92585C13.9528 4.91629 12.0371 5.93703 10.4929 7.15382C8.34178 8.8486 6.6801 11.1071 5.45945 13.5427C5.38554 13.6901 5.60713 13.8202 5.68118 13.6724C7.43674 10.1697 10.4007 6.4407 14.3684 5.39755C15.9383 4.98478 17.6535 5.15642 18.921 6.24294C20.3513 7.46915 20.87 9.44786 20.9479 11.2615C21.1484 15.9292 18.8747 20.7769 15.6848 24.1003C13.4989 26.3776 9.61693 29.0037 6.42013 27.0985C4.5547 25.9868 3.87982 23.6942 3.79192 21.6479C3.67321 18.8836 4.48194 16.1372 5.68104 13.6722C5.75324 13.5243 5.53179 13.3939 5.45945 13.5427Z" fill="#421B36"/>
<path d="M5.29128 23.8832C5.29128 23.8832 5.29128 23.8832 5.29114 23.8836C5.6731 25.0696 6.35868 25.9495 7.34291 26.3761C10.3522 27.6807 15.0078 24.2453 17.7419 18.7041C20.4754 13.1627 20.2528 7.61277 17.2439 6.3088C15.8041 5.68457 13.9868 6.14557 12.1837 7.40374C12.1821 7.40488 12.1808 7.40559 12.18 7.40631C12.1791 7.40716 12.179 7.40759 12.1784 7.40788C10.215 8.77891 8.26963 11.0941 6.84552 13.9809C5.00534 17.7101 4.50439 21.4429 5.29128 23.8832Z" fill="#A0D2F4"/>
<g opacity="0.2">
<path d="M16.4789 19.399C16.4799 19.5476 16.4652 19.7009 16.2758 19.6472C16.2758 19.6586 16.2758 19.6701 16.2758 19.6815C16.2075 19.6555 16.1368 19.6325 16.1086 19.5475C16.143 19.4603 16.1289 19.3239 16.2758 19.3733C16.2758 19.3619 16.2758 19.3504 16.2758 19.339C16.3405 19.3579 16.4054 19.3771 16.4789 19.399ZM16.4749 18.6991C16.4293 18.7458 16.3834 18.7924 16.337 18.8394C16.3898 18.8535 16.4418 18.8688 16.4961 18.8513C16.478 18.8004 16.4139 18.7703 16.4714 18.7128C16.4737 18.7078 16.4734 18.7038 16.4749 18.6991ZM17.5618 18.0866C17.3448 18.0957 17.2904 18.4827 17.5376 18.4473C17.6488 18.3963 17.7744 18.4116 17.7379 18.2355C17.6651 18.2031 17.6096 18.1555 17.5618 18.0866ZM17.3302 17.9366C17.3096 17.8987 17.3097 17.8559 17.3063 17.8152C17.2336 17.8954 17.1587 17.977 17.0823 18.0599C17.1644 18.0961 17.2475 18.0433 17.3302 17.9366ZM16.9266 18.2594C16.9219 18.2531 16.9167 18.2481 16.9118 18.2424C16.8445 18.3141 16.7762 18.3862 16.7064 18.4593C16.8246 18.4633 16.8641 18.3655 16.9266 18.2594ZM17.6784 17.3984C17.6138 17.4719 17.5471 17.5469 17.4782 17.624C17.604 17.6715 17.79 17.6025 17.6784 17.3984ZM17.3562 19.1353C17.3816 19.1674 17.4064 19.1965 17.4354 19.2199C17.4835 19.1313 17.5303 19.0438 17.5761 18.9572C17.4661 18.9549 17.3816 18.983 17.3562 19.1353ZM17.0873 18.8599C17.2169 18.8412 17.303 18.7967 17.327 18.6707C17.1041 18.4184 16.7629 18.6723 17.0873 18.8599ZM16.7317 18.9143C16.6195 19.0137 16.4796 19.0103 16.5375 19.2005C16.6203 19.2062 16.7117 19.2305 16.7836 19.2683C16.9283 19.1518 16.8538 18.9922 16.7317 18.9143ZM17.8215 17.7809C17.8215 17.8855 17.8363 17.9867 17.9077 18.0819C17.9558 18.0396 18.0021 18.0141 18.0568 18.0041C18.0725 17.9716 18.0886 17.9385 18.1037 17.9064C18.1093 17.8831 18.1147 17.8606 18.1201 17.838C18.0962 17.6883 17.913 17.6585 17.8215 17.7809ZM18.3661 17.2656C18.2072 17.416 18.1879 17.4692 18.2604 17.5712C18.3072 17.4689 18.3514 17.3709 18.3929 17.2766C18.3841 17.2729 18.3758 17.2689 18.3661 17.2656ZM17.8884 17.2208C17.9521 17.2243 18.0185 17.2372 18.087 17.2059C18.0796 17.125 18.0802 17.0534 18.0899 16.9728C18.079 16.9694 18.0683 16.9655 18.0578 16.9614C17.9959 17.0337 17.9306 17.1092 17.8627 17.1874C17.8707 17.1978 17.8784 17.2081 17.8884 17.2208ZM16.9827 19.5008C16.9971 19.6625 17.09 19.68 17.2105 19.6254C17.2315 19.5883 17.2522 19.5513 17.2727 19.5145C17.2934 19.3209 17.072 19.2738 16.9827 19.5008ZM18.7633 16.3768C18.7982 16.2831 18.8244 16.2072 18.8428 16.1492C18.8213 16.1408 18.7993 16.1304 18.7779 16.1133C18.7417 16.1542 18.6974 16.2057 18.6418 16.2715C18.6665 16.3379 18.6893 16.3554 18.7633 16.3768ZM18.2785 16.7295C18.3982 16.8554 18.5139 16.8158 18.5332 16.6426C18.5174 16.6011 18.5017 16.5596 18.4878 16.5231C18.4714 16.5161 18.4546 16.5136 18.4379 16.5136C18.3869 16.5743 18.3327 16.6385 18.2738 16.7081C18.2754 16.7153 18.2755 16.7225 18.2785 16.7295ZM16.5572 19.9323C16.6224 20.0586 16.7171 20.0942 16.8387 20.0556C16.8387 19.9747 16.8387 19.8988 16.8387 19.827C16.7237 19.7276 16.6548 19.8969 16.5572 19.9323ZM16.1592 21.2908C16.1681 21.2908 16.1765 21.2908 16.1852 21.2908C16.2433 21.2043 16.3005 21.118 16.3569 21.0317C16.3286 21.0265 16.3018 21.0217 16.2758 21.017C16.0893 20.9649 16.1354 21.1823 16.1592 21.2908ZM16.2758 20.5033C16.2758 20.4919 16.2758 20.4805 16.2758 20.4691C16.3313 20.4808 16.3865 20.4899 16.448 20.4538C16.4372 20.3776 16.4301 20.3064 16.4256 20.2249C16.3731 20.2145 16.3245 20.2048 16.2758 20.1951C16.117 20.1527 16.1166 20.5261 16.2758 20.5033ZM9.11117 26.4957C9.13557 26.5339 9.15911 26.5709 9.18165 26.6062C9.27254 26.597 9.36286 26.5851 9.45275 26.5716C9.51182 26.3147 9.23659 26.1932 9.11117 26.4957ZM7.79506 23.8932C7.72201 23.8739 7.65795 23.8157 7.55836 23.8513C7.21649 24.2952 8.06816 24.3777 7.79506 23.8932ZM8.0205 22.6263C7.94502 22.7086 7.89451 22.7413 7.85442 22.8524C8.11139 23.293 8.53758 22.6306 8.0205 22.6263ZM8.64774 24.1216C8.77615 23.9442 8.50406 23.7794 8.35809 23.8752C8.18616 24.119 8.46325 24.392 8.64774 24.1216ZM6.3223 19.6743C6.28406 19.6292 6.24568 19.584 6.20929 19.5401C6.20844 19.5418 6.2073 19.5435 6.20644 19.5452C6.23498 19.6077 6.27664 19.6491 6.3223 19.6743ZM11.0974 25.6016C10.9916 25.4792 10.9916 25.4792 10.8664 25.4913C10.7493 25.5762 10.7661 25.7015 10.7543 25.8349C10.9683 25.9084 11.1193 25.8406 11.0974 25.6016ZM9.87166 24.5238C9.97782 24.3209 9.72014 24.2818 9.59372 24.3587C9.50312 24.3761 9.55505 24.5282 9.55933 24.619C9.68703 24.5909 9.81516 24.7227 9.93601 24.6153C9.9099 24.5783 9.89078 24.5511 9.87166 24.5238ZM6.87562 24.6612C6.75192 24.7169 6.67216 24.7909 6.62564 24.9138C6.82297 25.2192 7.24018 24.931 6.87562 24.6612ZM8.64973 23.1475C8.50377 23.0264 8.35338 23.0078 8.27962 23.2073C8.34125 23.5477 8.7499 23.3969 8.64973 23.1475ZM5.28857 23.9147C5.31182 23.9899 5.33636 24.0644 5.36262 24.138C5.37432 24.1311 5.38602 24.1242 5.39786 24.1164C5.38759 24.041 5.34464 23.9635 5.28857 23.9147ZM11.5476 24.1107C11.7324 24.2737 11.8665 24.2758 11.963 24.0263C11.8495 23.7639 11.5954 23.8699 11.5476 24.1107ZM12.5758 25.0514C12.6448 24.9476 12.8395 24.9463 12.7705 24.7736C12.4845 24.5105 12.2181 24.9584 12.5758 25.0514ZM10.6848 24.5686C10.7058 24.3601 10.6989 24.3507 10.4813 24.2914C10.1657 24.4395 10.4186 24.7929 10.6848 24.5686ZM6.55387 24.356C6.46983 24.2327 6.24596 24.2628 6.24596 24.4353C6.25966 24.7773 6.71439 24.6612 6.55387 24.356ZM7.89694 23.7219C7.94731 23.7575 7.99739 23.793 8.05261 23.8321C8.56969 23.6875 7.92648 23.1128 7.89694 23.7219ZM8.59252 21.7113C8.49506 21.6515 8.39861 21.5896 8.30373 21.5242C8.31842 21.5823 8.33127 21.6336 8.34653 21.695C8.46439 21.7504 8.54329 21.7448 8.59252 21.7113ZM7.77095 25.8089C7.94702 25.5045 7.5488 25.3579 7.4512 25.6944C7.48202 25.8734 7.62713 25.8633 7.77095 25.8089ZM5.34749 21.6227C5.31824 21.5232 5.33408 21.3966 5.18641 21.3829C4.73011 21.5181 5.19725 22 5.34749 21.6227ZM7.54537 22.2487C7.51584 22.3496 7.44378 22.4431 7.53438 22.5521C7.6237 22.6276 7.77766 22.5816 7.81204 22.4685C7.7808 22.4114 7.81675 22.3597 7.81661 22.306C7.80277 22.1944 7.62185 22.2118 7.54537 22.2487ZM7.12703 23.4692C7.00361 23.6044 7.06653 23.8015 7.24231 23.8289C7.5254 23.7533 7.37986 23.3739 7.12703 23.4692ZM8.9712 24.2938C8.75589 24.2751 8.60136 24.4389 8.77016 24.618C8.88916 24.617 9.00359 24.6231 9.08705 24.4908C9.04867 24.4232 9.03498 24.342 8.9712 24.2938ZM6.10728 22.5514C6.14138 22.4957 6.17006 22.4488 6.20416 22.3933C6.14623 22.2402 5.92735 22.2059 5.80607 22.3264C5.80607 22.371 5.80607 22.4212 5.80607 22.4749C5.84717 22.5049 5.88783 22.5344 5.92835 22.5636C5.99199 22.5594 6.05277 22.5552 6.10728 22.5514ZM9.49555 25.649C9.33547 25.4565 9.08306 25.4806 9.13528 25.77C9.3172 25.9334 9.46659 25.9045 9.49555 25.649ZM9.50397 25.2463C9.55491 25.3068 9.57588 25.3952 9.65621 25.4355C10.205 25.3762 9.64523 24.8381 9.50397 25.2463ZM5.9733 19.2748C5.98129 19.276 5.98885 19.2758 5.99655 19.2761C5.94276 19.2079 5.89154 19.142 5.84332 19.0786C5.82548 19.1473 5.86058 19.2255 5.9733 19.2748ZM14.8256 20.3963C14.8162 20.3566 14.806 20.3138 14.7955 20.2697C14.7105 20.3412 14.6244 20.4111 14.5382 20.4808C14.6233 20.5418 14.7524 20.532 14.8256 20.3963ZM7.43836 24.8309C7.49044 25.0452 7.57248 25.0078 7.75497 25.0256C7.94503 24.7608 7.58832 24.5529 7.43836 24.8309ZM13.9741 23.7231C14.0724 23.2315 13.5432 23.4702 13.6694 23.6532C13.7365 23.6877 13.7197 23.7369 13.7112 23.7907C13.8155 23.8145 13.9039 23.7988 13.9741 23.7231ZM6.63691 22.4158C6.70997 22.5979 6.96294 22.6193 7.02301 22.4197C7.04556 22.2172 6.62207 22.1576 6.63691 22.4158ZM6.21557 25.2737C6.2785 25.3759 6.43816 25.5063 6.54117 25.3906C6.67472 25.0657 6.3457 24.9551 6.21557 25.2737ZM7.146 24.6073C7.22876 24.571 7.31494 24.6381 7.39741 24.6096C7.40854 24.5593 7.41824 24.5157 7.43108 24.4577C7.25615 24.147 6.89731 24.338 7.146 24.6073ZM12.203 25.0727C12.1372 25.1051 12.0768 25.1346 12.0125 25.1663C11.8842 25.6877 12.6358 25.3994 12.203 25.0727ZM15.3751 21.0204C15.1856 21.102 15.2827 21.3317 15.4581 21.3196C15.7666 21.3538 15.6132 20.8777 15.3751 21.0204ZM8.42729 25.8773C8.665 25.8392 8.70937 25.5732 8.45597 25.5162C8.27676 25.5321 8.22368 25.8496 8.42729 25.8773ZM5.30726 22.5654C5.32038 22.4728 5.33223 22.3904 5.34335 22.3122C5.28942 22.2155 5.20524 22.2189 5.1085 22.2336C4.91217 22.3536 5.10465 22.6798 5.30726 22.5654ZM12.9692 23.4406C12.9466 23.5374 12.8998 23.5921 12.8048 23.6342C13.0087 24.143 13.411 23.5195 12.9692 23.4406ZM11.3596 24.6421C11.4614 24.6351 11.5012 24.4985 11.5212 24.4085C11.4439 24.1671 11.2551 24.3279 11.1681 24.4639C11.075 24.5742 11.2891 24.6084 11.3596 24.6421ZM12.6123 21.7773C12.6243 21.7708 12.6331 21.7639 12.6437 21.7571C12.6319 21.7632 12.6202 21.7698 12.6083 21.7759C12.6097 21.7762 12.6107 21.7769 12.6123 21.7773ZM5.47077 21.3441C5.56537 21.4096 5.59776 21.3086 5.66097 21.2976C5.72789 21.2861 5.7353 21.22 5.76356 21.1674C5.61716 20.8219 5.30982 21.0558 5.47077 21.3441ZM11.1764 22.7912C11.1905 23.0365 11.4837 23.0251 11.5385 22.817C11.5336 22.6323 11.2242 22.5645 11.1764 22.7912ZM6.24924 21.1726C6.22584 21.347 6.47796 21.3795 6.57827 21.2571C6.59254 20.9489 6.35055 20.86 6.24924 21.1726ZM15.4363 20.1432C15.1916 20.3348 15.315 20.5839 15.6042 20.4421C15.7532 20.333 15.5847 20.1676 15.4363 20.1432ZM8.22953 21.8763C8.17189 21.8477 8.12209 21.8231 8.07515 21.8C7.98455 21.8454 7.98455 21.8454 7.88481 22.0075C7.96172 22.2948 8.30302 22.1242 8.22953 21.8763ZM10.1215 25.0326C10.2134 25.032 10.281 25.0469 10.2668 24.9242C10.3546 24.4108 9.60014 24.8922 10.1215 25.0326ZM9.94985 22.4284C9.99608 22.6641 10.2977 22.5566 10.3165 22.348C10.3165 22.348 10.3163 22.3478 10.3161 22.3475C10.2085 22.3361 10.1017 22.3182 9.99508 22.2958C9.96783 22.3285 9.95014 22.3729 9.94985 22.4284ZM5.58563 24.2279C5.51572 24.265 5.47205 24.3133 5.44866 24.3633C5.47434 24.4259 5.50031 24.4884 5.52842 24.5493C5.53555 24.5648 5.54325 24.5799 5.55039 24.5953C5.57764 24.6061 5.6086 24.6144 5.64499 24.618C5.85031 24.4921 5.74372 24.3483 5.58563 24.2279ZM7.27727 22.6053C7.23532 22.6698 7.18096 22.6983 7.10391 22.7351C7.16684 22.7981 7.0788 22.8292 7.07523 22.8868C7.11961 22.9798 7.20907 22.9885 7.29753 23.0082C7.40982 22.8951 7.49829 22.6457 7.27727 22.6053ZM8.49321 22.594C8.55642 22.5361 8.64331 22.5184 8.67313 22.4302C8.60992 22.3713 8.5607 22.1845 8.45326 22.2413C8.25864 22.356 8.26092 22.5357 8.49321 22.594ZM14.486 21.8918C14.4944 22.0013 14.5083 22.1122 14.6293 22.1884C14.981 22.0938 14.7087 21.6276 14.486 21.8918ZM16.0228 20.876C16.0692 20.7039 15.9973 20.5441 15.7981 20.5866C15.7459 20.6433 15.6891 20.6834 15.6631 20.7633C15.7289 20.8913 15.8937 20.9137 16.0228 20.876ZM5.72175 22.134C5.79437 21.9259 5.78367 21.9022 5.56623 21.8137C5.49674 21.8581 5.44495 21.9077 5.40656 21.9665C5.49303 22.1567 5.53755 22.1795 5.72175 22.134ZM10.2235 23.8625C10.0206 23.7473 9.89506 24.0156 10.0318 24.1652C10.2398 24.249 10.3842 23.992 10.2235 23.8625ZM10.2288 25.5473C10.1692 25.4808 10.0716 25.5276 10.0143 25.5712C9.94657 25.6429 10.0172 25.6958 9.96455 25.8049C10.1285 26.0114 10.406 25.7293 10.2288 25.5473ZM15.2342 19.9046C15.2318 19.9013 15.229 19.8986 15.2265 19.8955C15.1509 19.9628 15.0749 20.0296 14.998 20.096C15.1376 20.1001 15.1789 20.0601 15.2342 19.9046ZM8.70937 23.6991C8.78071 23.8394 8.98946 23.8421 9.04182 23.6905C9.11488 23.3795 8.71465 23.417 8.70937 23.6991ZM12.2994 22.0668C12.3091 22.0316 12.3182 21.999 12.3271 21.9669C12.3218 21.9511 12.3148 21.9368 12.3075 21.9227C12.2072 21.9689 12.1072 22.0119 12.0073 22.052C12.0387 22.1519 12.1543 22.2079 12.2994 22.0668ZM6.15122 19.7952C6.00954 19.7859 5.86529 19.7808 5.83318 19.9499C5.86843 20.0014 5.89896 20.0463 5.92978 20.0911C6.13581 20.1111 6.13867 20.1089 6.20444 19.8841C6.18932 19.859 6.17234 19.8304 6.15122 19.7952ZM11.5087 25.1924C11.4724 25.1669 11.4318 25.138 11.3947 25.1119C11.2836 25.1263 11.2172 25.1866 11.1729 25.3C11.2652 25.5861 11.5743 25.4665 11.5087 25.1924ZM13.4092 22.6006C13.5048 22.5348 13.6219 22.4956 13.5583 22.3462C13.4955 22.2895 13.4116 22.2489 13.3276 22.235C13.1508 22.3098 13.2571 22.5447 13.4092 22.6006ZM9.89492 22.7948C9.83785 22.7264 9.78877 22.6675 9.73954 22.6089C9.65036 22.5852 9.60756 22.6498 9.55491 22.7075C9.52837 23.0074 9.78691 23.0632 9.89492 22.7948ZM14.0885 22.3403C14.0327 22.5454 14.2861 22.6517 14.3837 22.488C14.4877 22.284 14.1189 22.0956 14.0885 22.3403ZM9.08648 26.1452C9.04225 26.0377 8.93652 25.8291 8.8034 25.9271C8.79427 26.0027 8.72293 26.0312 8.67713 26.0933C8.78471 26.2928 8.94394 26.2404 9.08648 26.1452ZM11.7101 25.5463C11.5285 25.5621 11.6175 25.6945 11.6349 25.8156C11.7345 25.7613 11.8335 25.7052 11.9314 25.6464C11.9184 25.5361 11.854 25.4763 11.7101 25.5463ZM5.75985 20.4294C5.73345 20.3382 5.72717 20.2832 5.72432 20.18C5.50644 20.1221 5.43838 20.2746 5.42654 20.4624C5.55824 20.489 5.66282 20.5534 5.75985 20.4294ZM5.75656 23.7455C5.76584 23.6998 5.77583 23.6513 5.78638 23.5985C5.73702 23.5516 5.68907 23.5059 5.63871 23.4577C5.54554 23.5123 5.43053 23.5202 5.40685 23.6564C5.52656 23.7958 5.54967 23.8491 5.75656 23.7455ZM6.04136 23.0362C5.83575 22.9824 5.747 23.3637 5.94219 23.3888C6.15893 23.4501 6.2043 23.0998 6.04136 23.0362ZM6.51649 25.9576C6.53818 25.9763 6.56158 25.9934 6.58383 26.0115C6.57756 25.9956 6.57142 25.9796 6.56529 25.9636C6.54845 25.9605 6.53233 25.9586 6.51649 25.9576ZM9.28481 24.1779C9.37256 24.1785 9.45903 24.1827 9.48385 24.057C9.32205 23.6189 8.88758 24.0639 9.28481 24.1779ZM10.9541 22.5942C11.0076 22.5571 11.0534 22.5251 11.1044 22.4894C11.115 22.4167 11.108 22.3633 11.092 22.3229C10.9916 22.3402 10.8914 22.3516 10.7914 22.3575C10.7751 22.4261 10.8111 22.5128 10.9541 22.5942ZM12.411 22.4476C12.4414 22.64 12.7693 22.582 12.7156 22.3802C12.7162 22.3802 12.7166 22.3802 12.717 22.3802C12.7487 22.1125 12.3533 22.2335 12.411 22.4476ZM12.7093 23.315C12.8717 23.0776 12.5278 22.965 12.3934 23.1946C12.3953 23.3595 12.6132 23.464 12.7093 23.315ZM4.97595 21.1989C4.96967 21.1888 4.96396 21.1796 4.95783 21.1698C4.9574 21.1899 4.95683 21.2097 4.95654 21.23C4.96311 21.2197 4.97053 21.2104 4.97595 21.1989ZM8.02835 21.3262C7.98897 21.2963 7.95073 21.2654 7.91192 21.2348C7.93347 21.2651 7.95744 21.2932 7.97813 21.3223C7.99682 21.325 8.01209 21.3252 8.02835 21.3262ZM7.69562 21.4136C7.38685 21.454 7.47902 21.691 7.69062 21.7746C7.79564 21.7208 7.8276 21.6325 7.85043 21.5184C7.79392 21.4803 7.74299 21.4457 7.69562 21.4136ZM7.94132 24.6096C7.99882 24.6233 8.05732 24.6369 8.12737 24.6536C8.15234 24.5424 8.23481 24.4583 8.22925 24.3463C7.98055 24.1767 8.00096 24.3537 7.88752 24.4849C7.90507 24.5257 7.92234 24.5659 7.94132 24.6096ZM7.90493 25.2181C7.88824 25.2431 7.88125 25.2799 7.90921 25.2933C7.97171 25.3237 7.93832 25.4006 7.98341 25.4348C8.04162 25.4348 8.09655 25.4348 8.15348 25.4348C8.18787 25.3501 8.21955 25.2725 8.2565 25.182C8.17845 25.0576 7.97741 25.1182 7.90493 25.2181ZM8.95251 25.4628C9.00829 25.3989 9.02099 25.3145 9.05081 25.2267C8.9916 25.1593 8.91883 25.1415 8.85077 25.1081C8.783 25.1366 8.71337 25.1606 8.68455 25.2418C8.76916 25.3428 8.78671 25.4678 8.95251 25.4628ZM9.27996 22.2322C8.86262 22.3964 9.38112 22.7426 9.45189 22.4556C9.4245 22.3927 9.44676 22.3376 9.45846 22.2786C9.4011 22.2637 9.35273 22.2512 9.27996 22.2322ZM5.42825 18.7318C5.4575 18.8493 5.58178 18.883 5.67809 18.8578C5.61146 18.7669 5.55296 18.6847 5.50288 18.6129C5.46877 18.6429 5.44123 18.6831 5.42825 18.7318ZM8.35367 24.7634C8.14064 25.1059 8.39048 25.0306 8.6279 24.939C8.80483 24.7611 8.48279 24.7441 8.35367 24.7634ZM5.33665 18.3685C5.30925 18.3267 5.2937 18.3022 5.2937 18.3022C5.2937 18.3022 5.28357 18.3455 5.26731 18.4222C5.29385 18.4089 5.31753 18.3902 5.33665 18.3685ZM6.78316 20.546C6.73108 20.6477 6.67658 20.7269 6.65689 20.8212C6.96936 21.0977 7.15713 20.6787 6.78316 20.546ZM12.316 22.8991C12.316 22.821 12.316 22.7608 12.316 22.7015C12.1489 22.5902 12.0513 22.6042 12.0336 22.8119C11.918 22.9801 12.2402 22.9928 12.316 22.8991ZM6.58169 21.9463C6.55673 21.7856 6.34099 21.7759 6.25139 21.8829C6.23655 21.9478 6.32829 21.9909 6.27036 22.058C6.39706 22.2116 6.60438 22.1412 6.58169 21.9463ZM11.0215 23.0635C10.966 23.1083 10.8794 23.054 10.8127 23.1064C10.7818 23.2039 10.8089 23.2878 10.8499 23.3698C11.0989 23.5146 11.1909 23.1656 11.0215 23.0635ZM10.6333 25.9302C10.5045 25.8973 10.3358 25.9783 10.3625 26.1358C10.6192 26.3284 10.8271 26.2167 10.6333 25.9302ZM12.4183 24.1598C12.4788 24.1945 12.528 24.234 12.5908 24.237C12.6437 24.1702 12.6928 24.1086 12.7547 24.0306C12.6049 23.7906 12.3603 23.8837 12.4183 24.1598ZM12.8875 24.5712C12.9363 24.587 12.984 24.6027 13.0322 24.6185C13.2273 24.5546 13.18 24.3216 13.0007 24.2888C12.8514 24.281 12.7711 24.4609 12.8875 24.5712ZM7.4278 26.1975C7.36374 25.9349 7.15257 25.796 7.0691 26.1226C7.1286 26.2612 7.33263 26.2972 7.4278 26.1975ZM7.40797 25.2408C7.31936 25.0442 7.01602 25.1418 7.08394 25.3415C7.22833 25.6066 7.35261 25.4079 7.40797 25.2408ZM10.5264 22.6047C10.3536 22.6447 10.2792 22.8951 10.4791 22.942C10.7078 22.947 10.7728 22.6607 10.5264 22.6047ZM6.53832 20.2224C6.0191 20.0295 6.33314 20.8426 6.58997 20.3665C6.57156 20.3148 6.55444 20.2675 6.53832 20.2224ZM11.9487 23.3096C11.951 23.0141 11.6659 22.9793 11.5896 23.2769C11.7096 23.3324 11.8562 23.4819 11.9487 23.3096ZM7.1403 21.0338C7.12746 21.1368 7.12746 21.1368 7.04128 21.2254C7.3439 21.6378 7.61643 20.9023 7.1403 21.0338ZM6.17662 24.8771C6.099 24.6217 5.90895 24.6088 5.83318 24.859C5.91808 25.0564 6.08259 25.0801 6.17662 24.8771ZM9.71172 23.4665C9.55348 23.4896 9.57774 23.6151 9.53237 23.7271C9.77535 23.9595 10.0293 23.5456 9.71172 23.4665ZM9.37841 23.3779C9.39582 23.3323 9.40467 23.2933 9.42421 23.2614C9.53008 23.1254 9.27582 23.0548 9.17894 23.093C9.15383 23.1439 9.12957 23.193 9.10674 23.2398C9.18051 23.3949 9.18279 23.3962 9.37841 23.3779ZM9.43762 24.9182C9.54792 24.7086 9.22417 24.6011 9.12772 24.7926C9.14613 24.9673 9.33532 25.1497 9.43762 24.9182ZM9.55577 26.0038C9.55448 26.1381 9.60428 26.2334 9.7501 26.2591C9.78848 26.2438 9.82872 26.2276 9.87452 26.209C9.87509 26.1484 9.87723 26.0956 9.86553 26.0399C9.76394 25.9689 9.65536 25.8577 9.55577 26.0038ZM8.69254 22.7965C8.75032 22.8497 8.73534 22.972 8.86518 22.9704C8.93695 22.9206 9.01186 22.871 9.08477 22.8149C9.00558 22.5882 8.78557 22.639 8.69254 22.7965ZM10.4484 25.1139C10.2563 25.2824 10.4093 25.4675 10.643 25.4032C10.7506 25.1926 10.663 25.1059 10.4484 25.1139ZM15.1048 21.7695C15.1774 21.6911 15.1774 21.6911 15.1947 21.5372C15.106 21.4196 14.9697 21.3403 14.8745 21.5019C14.9298 21.6115 14.959 21.7328 15.1048 21.7695ZM7.36531 21.8678C7.32607 21.842 7.29368 21.8206 7.25558 21.7953C7.20208 21.8872 7.08551 21.8703 7.07081 21.9702C7.0778 22.1386 7.3245 22.2188 7.40854 22.0641C7.37173 21.9945 7.35603 21.9401 7.36531 21.8678ZM6.4236 23.8257C6.46441 23.7906 6.50194 23.7579 6.52947 23.7339C6.53247 23.6679 6.53504 23.6138 6.53846 23.5386C6.23883 23.3361 6.1107 23.778 6.4236 23.8257ZM6.95067 25.5564C6.88989 25.53 6.83453 25.5059 6.77888 25.4816C6.43545 25.9035 7.03385 26.0008 6.95067 25.5564ZM13.1124 21.907C12.9686 21.8367 12.874 21.7532 12.8259 21.9662C12.7694 22.3386 13.3086 22.0326 13.1124 21.907ZM5.86914 24.0608C5.87071 24.2584 6.11684 24.164 6.21101 24.0825C6.18019 23.8606 5.85573 23.7878 5.86914 24.0608ZM13.2353 23.2183C13.3448 23.3968 13.5206 23.4525 13.6052 23.2243C13.4872 23.0352 13.3234 22.9923 13.2353 23.2183ZM15.7188 21.6392C15.7739 21.7041 15.8329 21.7294 15.8847 21.7277C15.9311 21.662 15.9768 21.5963 16.0221 21.5306C16.0167 21.5031 16.0059 21.4745 15.9873 21.4459C15.8191 21.3844 15.701 21.4413 15.7188 21.6392ZM13.2716 23.9678C13.2116 24.2023 13.5125 24.2851 13.5957 24.0651C13.647 23.911 13.354 23.8541 13.2716 23.9678ZM7.96857 26.2373C8.01579 26.1191 8.1024 26.233 8.18245 26.1815C8.23396 25.9933 8.20956 25.9502 8.02721 25.895C7.91506 25.9944 7.8216 26.116 7.96857 26.2373ZM6.37495 22.9425C6.62051 22.9857 6.6439 22.8033 6.48296 22.6554C6.27878 22.6277 6.13325 22.8867 6.37495 22.9425ZM6.90644 23.0579C6.82383 23.0921 6.74378 23.1254 6.66174 23.1595C6.6673 23.2291 6.73251 23.2524 6.70269 23.3073C6.70683 23.3581 6.79058 23.4156 6.8488 23.4152C6.95809 23.323 7.07395 23.1551 6.90644 23.0579ZM14.924 20.6377C14.8337 20.8426 15.1217 21.0733 15.2091 20.8039C15.2613 20.6344 15.0456 20.5704 14.924 20.6377ZM14.9693 22.5307C15.1792 22.5752 15.1984 22.4354 15.1973 22.2539C15.0001 22.1546 14.7662 22.3622 14.9693 22.5307ZM11.678 22.2389C11.6519 22.2754 11.6228 22.3162 11.5951 22.355C11.6177 22.4103 11.6382 22.4611 11.6623 22.5207C11.9672 22.6411 11.9979 22.1205 11.678 22.2389ZM14.3418 21.7459C14.4351 21.5867 14.3693 21.3571 14.1567 21.4205C14.1775 21.4531 14.1904 21.4734 14.2066 21.4988C13.9632 21.5652 14.1675 21.8502 14.3418 21.7459ZM12.0056 23.5196C11.9456 23.7736 12.3466 23.8672 12.3406 23.5681C12.1764 23.4294 12.1679 23.4283 12.0056 23.5196ZM10.4043 23.5152C10.3906 23.6289 10.4405 23.686 10.4391 23.7888C10.4684 23.8035 10.4983 23.8181 10.5339 23.8356C10.6541 23.7512 10.6534 23.6339 10.6838 23.5297C10.616 23.4936 10.5795 23.4374 10.5093 23.4363C10.4722 23.4642 10.4321 23.4944 10.4043 23.5152ZM5.84289 21.5603C5.85487 21.6141 5.86686 21.6676 5.88041 21.728C5.97772 21.8201 6.15964 21.7835 6.07931 21.6322C6.12055 21.6169 6.15593 21.6035 6.19574 21.5884C6.11555 21.4073 5.95832 21.4208 5.84289 21.5603ZM6.81156 24.1675C7.00546 24.0745 7.00546 24.0745 6.98549 23.9044C6.93312 23.8843 6.88104 23.8643 6.82026 23.8412C6.6723 23.9143 6.63249 24.1286 6.81156 24.1675ZM8.47666 26.3219C8.42487 26.3586 8.3705 26.3966 8.315 26.4357C8.34768 26.5697 8.41017 26.6238 8.47138 26.6321C8.47966 26.6322 8.48793 26.6326 8.49621 26.6328C8.63147 26.6239 8.74019 26.4026 8.47666 26.3219ZM12.2204 24.6468C12.256 24.5456 12.3521 24.4692 12.2829 24.346C12.184 24.3258 12.0885 24.2828 12.0112 24.3791C12.0372 24.477 12.0145 24.5773 12.0999 24.6541C12.1373 24.6518 12.1808 24.6491 12.2204 24.6468ZM15.2666 22.0036C15.406 22.2773 15.5723 22.1777 15.6216 21.9256C15.5885 21.8977 15.5631 21.8765 15.5369 21.8547C15.4368 21.8925 15.3248 21.8983 15.2666 22.0036ZM11.2127 26.0297C11.2622 26.0066 11.3115 25.9824 11.3606 25.9582C11.3018 25.9595 11.2565 25.9956 11.2127 26.0297ZM5.39087 19.1464C5.34364 19.0799 5.29584 19.0129 5.24319 18.9388C5.21237 18.9475 5.18655 18.9602 5.16386 18.975C5.15073 19.0535 5.13747 19.1374 5.12405 19.227C5.21965 19.263 5.32609 19.2456 5.39087 19.1464ZM16.0277 19.147C15.983 19.1906 15.9375 19.2343 15.8923 19.278C15.9692 19.2818 16.0246 19.2237 16.0277 19.147ZM15.8987 19.7485C15.7031 19.8291 15.7065 19.9457 15.8265 20.0947C16.0604 20.1032 16.0999 19.8563 15.8987 19.7485ZM15.6467 19.5331C15.6453 19.5272 15.6417 19.5234 15.64 19.518C15.5931 19.5619 15.5457 19.6057 15.4983 19.6495C15.5981 19.608 15.6009 19.6048 15.6467 19.5331ZM14.1245 23.0824C14.0451 23.1628 14.0383 23.2315 14.1053 23.3064C14.4409 23.47 14.5026 23.0088 14.1245 23.0824ZM7.7661 26.3794C7.63241 26.3471 7.56449 26.4255 7.49072 26.4904C7.59203 26.5212 7.69961 26.5457 7.81062 26.567C7.83559 26.5178 7.83017 26.4516 7.7661 26.3794ZM11.1826 23.673C11.199 23.7064 11.216 23.7415 11.23 23.7697C11.4009 23.8211 11.4667 23.8144 11.4768 23.6045C11.365 23.445 11.2 23.4718 11.1826 23.673ZM5.67067 22.9417C5.70349 22.8807 5.73202 22.8277 5.76627 22.7641C5.72218 22.717 5.67709 22.6687 5.61945 22.607C5.36904 22.7668 5.34221 22.9114 5.67067 22.9417ZM5.03573 20.6921C5.04986 20.8759 5.12791 20.846 5.26517 20.8659C5.49417 20.636 5.19325 20.4678 5.03573 20.6921ZM9.97825 26.4674C10.0526 26.4493 10.1264 26.4295 10.2 26.4086C10.179 26.3954 10.1549 26.3829 10.1229 26.3724C10.0315 26.4122 10.0133 26.4202 9.97825 26.4674ZM5.96145 20.8522C6.15408 20.8995 6.24454 20.7464 6.10913 20.6025C5.94419 20.4458 5.78424 20.7312 5.96145 20.8522ZM14.1424 20.9124C14.3305 20.9503 14.2932 20.7717 14.3502 20.658C14.3449 20.6511 14.3398 20.648 14.3345 20.6421C14.2517 20.7068 14.1688 20.7707 14.0852 20.8332C14.1036 20.8604 14.1242 20.8858 14.1424 20.9124ZM13.9006 22.1115C13.9388 22.0312 13.9518 21.9604 13.9243 21.8718C13.7426 21.7689 13.7429 21.822 13.7024 21.9849C13.6107 22.1189 13.8091 22.2096 13.9006 22.1115ZM6.66317 21.61C6.6586 21.7904 6.86963 21.6822 6.96037 21.6178C7.02187 21.3179 6.70554 21.3737 6.66317 21.61ZM5.75785 19.4786C5.73159 19.3937 5.48818 19.2822 5.49974 19.4191C5.53526 19.502 5.45279 19.5205 5.44052 19.5937C5.69649 19.6987 5.69036 19.7581 5.75785 19.4786ZM11.0385 23.8769C10.9134 23.8454 10.8301 23.898 10.7626 24.0208C10.8296 24.0705 10.8878 24.1134 10.9462 24.1567C10.997 24.1164 11.0691 24.0942 11.1034 24.0384C11.0996 23.9492 11.1009 23.9488 11.0385 23.8769ZM13 22.6756C12.748 22.7861 12.8446 23.0874 13.1274 22.9252C13.1294 22.823 13.1509 22.6417 13 22.6756ZM11.6374 24.8217C11.61 25.037 11.688 25.0667 11.8738 24.9791C12.0159 24.7186 11.8177 24.6686 11.6374 24.8217ZM14.4605 22.8305C14.5116 23.1103 14.8377 22.9045 14.7525 22.7127C14.6525 22.5664 14.5449 22.7908 14.4605 22.8305ZM11.0581 24.8063C10.9319 24.7431 10.7977 24.7059 10.7483 24.9005C10.8225 24.9456 10.9018 24.9858 10.9884 25.0236C11.0853 24.964 11.0856 24.8911 11.0581 24.8063ZM13.6839 22.8847C13.8287 23.0797 14.049 22.9029 13.9007 22.7159C13.8007 22.5879 13.646 22.7561 13.6839 22.8847ZM9.95727 23.2566C10.075 23.2832 10.1739 23.3812 10.2792 23.3072C10.3601 23.0319 10.0293 23.0095 9.95727 23.2566ZM8.7322 21.8671C8.72521 22.1011 8.80397 22.1867 9.00658 22.0416C9.02171 21.9993 9.01514 21.9655 8.99702 21.9383C8.95022 21.9147 8.90399 21.8892 8.85762 21.8641C8.81339 21.8568 8.76787 21.8574 8.7322 21.8671ZM7.7203 23.1123C7.64996 23.1608 7.60187 23.1003 7.53025 23.0927C7.49914 23.1767 7.51584 23.2538 7.51641 23.3347C7.57976 23.3599 7.6394 23.3835 7.69633 23.406C7.71274 23.323 7.86612 23.1113 7.7203 23.1123ZM13.7155 21.2493C13.7445 21.2762 13.7757 21.3053 13.8103 21.3373C13.8679 21.2999 13.9184 21.2674 13.9783 21.2286C13.9331 21.1487 13.9053 21.0327 13.8545 21.0031C13.8097 21.0352 13.7645 21.0659 13.7194 21.0973C13.7555 21.1577 13.7543 21.1619 13.7155 21.2493ZM5.26188 23.3761C5.38345 23.1729 5.29071 23.0869 5.10051 23.1379C5.11364 23.2101 5.12733 23.2822 5.1426 23.3538C5.18227 23.3685 5.21936 23.3873 5.26188 23.3761ZM14.7695 21.1658C14.7555 21.1384 14.7403 21.1083 14.7213 21.0712C14.6461 21.0699 14.574 20.9823 14.483 21.0661C14.4934 21.1355 14.5041 21.206 14.5161 21.2865C14.6193 21.2717 14.7182 21.2796 14.7695 21.1658ZM5.34179 19.9514C5.30298 19.8588 5.2168 19.8251 5.14446 19.7649C4.92801 19.919 5.26531 20.2305 5.34179 19.9514ZM13.4671 21.48C13.4444 21.4764 13.4006 21.4924 13.3962 21.5082C13.3634 21.582 13.2863 21.6035 13.2685 21.6889C13.4413 21.8701 13.6639 21.5818 13.4671 21.48Z" fill="#421B36"/>
</g>
<path d="M18.9303 15.687C18.9303 15.687 12.8645 13.8267 12.4302 13.9654C11.9959 14.1041 9.69058 17.9409 10.1469 18.3591C10.603 18.7772 15.6416 22.2538 15.6416 22.2538C15.6416 22.2538 18.6292 17.9379 18.9303 15.687Z" fill="#8380FF"/>
<path d="M10.3367 15.6784C9.67747 16.8851 9.60798 18.0923 10.1814 18.3747C10.7549 18.6571 11.7541 17.9079 12.4133 16.701C13.0725 15.4944 13.1419 14.2873 12.5685 14.0048C11.9951 13.7226 10.9959 14.4718 10.3367 15.6784Z" fill="#421B36"/>
<path d="M26.0723 18.7256C26.2299 19.7352 26.262 19.7857 26.1447 20.8008C26.1447 20.8008 30.5528 23.7058 30.7771 23.3091C30.9206 23.0553 30.9767 21.8331 30.7801 21.5677C30.388 21.0387 26.0723 18.7256 26.0723 18.7256Z" fill="white"/>
<path d="M20.012 27.0677C20.917 27.7209 21.9817 28.2007 22.9686 28.7187C23.9012 29.2081 24.8413 29.6873 25.8245 30.0674C25.9921 30.1322 26.0601 29.8667 25.8982 29.8005C24.8272 29.3627 23.7953 28.8441 22.7679 28.3142C21.8844 27.8584 20.9852 27.3078 20.0174 27.055C20.0094 27.0527 20.0057 27.0633 20.012 27.0677Z" fill="#421B36"/>
<path d="M19.6407 13.4528C19.6326 13.4485 19.6246 13.4443 19.6165 13.44C19.6046 13.4337 19.5921 13.4279 19.5794 13.424C19.5668 13.4202 19.5522 13.42 19.5388 13.419C19.5237 13.4184 19.5094 13.4216 19.4963 13.4286C19.4826 13.433 19.4708 13.4407 19.4608 13.4514C19.4418 13.4721 19.4264 13.5003 19.4284 13.5294C19.4294 13.5426 19.4304 13.556 19.4331 13.5688C19.436 13.5824 19.443 13.5948 19.4494 13.6071C19.4537 13.6152 19.4579 13.6232 19.4622 13.6313C19.4826 13.6701 19.531 13.6978 19.5748 13.696C19.6093 13.6944 19.642 13.6827 19.667 13.6577C19.6797 13.6459 19.6887 13.6319 19.6939 13.6158C19.7021 13.6002 19.7058 13.5835 19.7052 13.5655C19.7053 13.521 19.6808 13.4738 19.6407 13.4528Z" fill="#421B36"/>
<path d="M20.0923 9.28291C20.0331 9.87846 20.0794 10.4827 20.0663 11.081C20.0532 11.685 19.9763 12.2778 19.9389 12.8795C19.9245 13.1126 20.2949 13.1626 20.3468 12.9347C20.6042 11.8061 20.636 10.3562 20.1887 9.26993C20.1677 9.21856 20.098 9.22569 20.0923 9.28291Z" fill="white"/>
<path d="M14.1036 24.0058C15.4307 22.8438 16.5056 21.2554 17.3967 19.7464C18.3149 18.1916 19.0186 16.5187 19.5231 14.7859C19.5756 14.6057 19.2959 14.5293 19.2426 14.7085C18.7335 16.4173 18.0426 18.0583 17.1681 19.6127C16.2799 21.1913 15.1446 22.5182 14.0298 23.9319C13.9887 23.984 14.0519 24.0511 14.1036 24.0058Z" fill="#421B36"/>
<path d="M23.9415 16.1631C24.8855 17.7112 25.2248 19.6064 24.8784 21.3871C24.5601 23.0231 23.658 24.4913 22.3825 25.5575C21.6725 26.1511 20.8482 26.6065 19.9676 26.8902C19.75 26.9602 19.843 27.3048 20.0624 27.2342C21.6969 26.7076 23.1208 25.6235 24.0851 24.2045C25.1202 22.6811 25.5376 20.8054 25.299 18.9831C25.1602 17.9222 24.8071 16.8972 24.2496 15.983C24.1302 15.7874 23.8216 15.9663 23.9415 16.1631Z" fill="#421B36"/>
<path d="M21.6295 14.9277C21.5058 15.2189 21.09 18.1252 20.9443 18.4343C20.7569 18.8318 23.8063 20.8954 23.9489 20.7967C24.393 20.4895 24.2591 18.3876 24.0411 17.8643C23.8231 17.3409 21.6295 14.9277 21.6295 14.9277Z" fill="white"/>
</svg>
