<svg width="20" height="20" viewBox="0 0 20 20" fill="none" xmlns="http://www.w3.org/2000/svg">
<path opacity="0.4" d="M7.06824 15.0003H14.977C15.9102 15.0003 16.6668 14.2567 16.6668 13.3396C16.6668 12.0837 14.977 11.6787 14.977 11.6787C14.977 11.6787 11.9038 10.4973 8.3335 11.667C8.3335 11.667 8.21765 7.39427 6.42504 2.64255C6.07135 1.70504 4.91782 1.38495 4.07132 1.93957C3.51272 2.30557 3.23408 2.96671 3.36574 3.6137L5.41122 13.6652C5.56919 14.4416 6.26272 15.0003 7.06824 15.0003Z" fill="#2D7CD0"/>
<path d="M7.06824 15.0003H14.977C15.9102 15.0003 16.6668 14.2567 16.6668 13.3396C16.6668 12.0837 14.977 11.6787 14.977 11.6787C14.977 11.6787 11.9038 10.4973 8.3335 11.667C8.3335 11.667 8.21765 7.39427 6.42504 2.64255C6.07135 1.70504 4.91782 1.38495 4.07132 1.93957C3.51272 2.30557 3.23408 2.96671 3.36574 3.6137L5.41122 13.6652C5.56919 14.4416 6.26272 15.0003 7.06824 15.0003Z" stroke="#2D7CD0" stroke-linecap="round" stroke-linejoin="round"/>
<path d="M10.4165 8.75H14.9998" stroke="#2D7CD0" stroke-linecap="round" stroke-linejoin="round"/>
<path d="M13.3332 15L10.8332 18.3333M10.8332 18.3333H6.6665M10.8332 18.3333H14.9998" stroke="#2D7CD0" stroke-linecap="round" stroke-linejoin="round"/>
</svg>
