<svg width="54" height="54" viewBox="0 0 54 54" fill="none" xmlns="http://www.w3.org/2000/svg">
<rect x="0.929688" y="0.979492" width="52.4615" height="52.4615" rx="26.2308" fill="#2D7DD2" fill-opacity="0.15"/>
<path d="M22.7357 14.1627C22.0128 14.3371 21.2898 14.9011 20.9412 15.5625C20.5822 16.2496 20.6028 15.4241 20.6028 27.2068C20.6028 38.9844 20.5822 38.164 20.9412 38.8459C21.3155 39.5638 22.1153 40.1483 22.8947 40.2765C23.1408 40.3175 24.597 40.3329 27.9605 40.3226L32.6777 40.3072L33.011 40.1893C33.9288 39.8663 34.662 39.0459 34.8517 38.1383C34.9338 37.7538 34.9338 16.6598 34.8517 16.2752C34.662 15.3677 33.9596 14.5729 33.0469 14.2396L32.6777 14.1063L27.858 14.0961C23.8279 14.0909 22.987 14.1012 22.7357 14.1627ZM29.9653 16.6649C30.1602 16.8597 30.1961 17.1058 30.0628 17.3571C29.9038 17.6647 29.832 17.675 27.6837 17.6596L25.7353 17.6442L25.5814 17.4955C25.3046 17.234 25.3251 16.8238 25.6173 16.5931C25.7404 16.4957 25.8327 16.4906 27.7657 16.4906H29.791L29.9653 16.6649ZM28.3759 35.749C28.5297 35.8413 28.6835 35.9951 28.7809 36.1489C28.9142 36.3643 28.9347 36.4514 28.9347 36.7386C28.9296 37.4461 28.4528 37.923 27.7452 37.923C27.2017 37.923 26.7812 37.6 26.6223 37.0616C26.3249 36.0412 27.4683 35.185 28.3759 35.749Z" fill="#2D7DD2"/>
</svg>
