<svg width="30" height="30" viewBox="0 0 30 30" fill="none" xmlns="http://www.w3.org/2000/svg">
<path opacity="0.4" d="M26.25 21.4516C26.25 23.1798 23.818 24.2071 18.9539 26.2619C16.9998 27.0872 16.0227 27.5 15 27.5C13.9773 27.5 13.0002 27.0872 11.0462 26.2619C6.18205 24.2071 3.75 23.1798 3.75 21.4516V8.75L15 14.1935L26.25 8.75V21.4516Z" fill="#656565"/>
<path d="M26.25 8.75V15M3.75 8.75C3.75 12.5806 3.75 20.9678 3.75 21.4516C3.75 23.1798 6.18205 24.2071 11.0462 26.2619C13.0003 27.0873 13.9773 27.5 15 27.5V14.1935" stroke="#656565" stroke-linecap="round" stroke-linejoin="round"/>
<path d="M18.75 23.75C18.75 23.75 19.8438 23.75 20.9375 26.25C20.9375 26.25 24.4118 20 27.5 18.75" stroke="#656565" stroke-linecap="round" stroke-linejoin="round"/>
<path d="M10.4074 12.1142L6.7559 10.3473C4.75196 9.37763 3.75 8.89279 3.75 8.125C3.75 7.35721 4.75196 6.87237 6.7559 5.90269L10.4074 4.13577C12.661 3.04526 13.7879 2.5 15 2.5C16.2121 2.5 17.339 3.04525 19.5926 4.13577L23.2441 5.90269C25.248 6.87237 26.25 7.35721 26.25 8.125C26.25 8.89279 25.248 9.37763 23.2441 10.3473L19.5926 12.1142C17.339 13.2047 16.2121 13.75 15 13.75C13.7879 13.75 12.661 13.2047 10.4074 12.1142Z" stroke="#656565" stroke-linecap="round" stroke-linejoin="round"/>
<path d="M7.5 15L10 16.25" stroke="#656565" stroke-linecap="round" stroke-linejoin="round"/>
<path d="M21.25 5L8.75 11.25" stroke="#656565" stroke-linecap="round" stroke-linejoin="round"/>
</svg>
