<svg width="41" height="40" viewBox="0 0 41 40" fill="none" xmlns="http://www.w3.org/2000/svg">
<path opacity="0.4" d="M35.5 28.6015C35.5 30.9057 32.2573 32.2755 25.7718 35.0152C23.1663 36.1157 21.8637 36.666 20.5 36.666C19.1363 36.666 17.8337 36.1157 15.2282 35.0152C8.74273 32.2755 5.5 30.9057 5.5 28.6015V11.666L20.5 18.924L35.5 11.666V28.6015Z" fill="#4D0099"/>
<path d="M35.5 11.666V19.9993M5.5 11.666C5.5 16.7735 5.5 27.9563 5.5 28.6015C5.5 30.9057 8.74273 32.2755 15.2282 35.0152C17.8337 36.1157 19.1363 36.666 20.5 36.666V18.924" stroke="#4D0099" stroke-width="2" stroke-linecap="round" stroke-linejoin="round"/>
<path d="M25.5 31.6667C25.5 31.6667 26.9583 31.6667 28.4167 35C28.4167 35 33.049 26.6667 37.1667 25" stroke="#4D0099" stroke-width="2" stroke-linecap="round" stroke-linejoin="round"/>
<path d="M14.3765 16.1529L9.50787 13.7971C6.83595 12.5042 5.5 11.8577 5.5 10.834C5.5 9.81027 6.83595 9.16382 9.50787 7.8709L14.3765 5.51502C17.3813 4.061 18.8838 3.33398 20.5 3.33398C22.1162 3.33398 23.6187 4.06098 26.6235 5.51502L31.4922 7.8709C34.164 9.16382 35.5 9.81027 35.5 10.834C35.5 11.8577 34.164 12.5042 31.4922 13.7971L26.6235 16.1529C23.6187 17.607 22.1162 18.334 20.5 18.334C18.8838 18.334 17.3813 17.607 14.3765 16.1529Z" stroke="#4D0099" stroke-width="2" stroke-linecap="round" stroke-linejoin="round"/>
<path d="M10.5 20L13.8333 21.6667" stroke="#4D0099" stroke-width="2" stroke-linecap="round" stroke-linejoin="round"/>
<path d="M28.8337 6.66602L12.167 14.9993" stroke="#4D0099" stroke-width="2" stroke-linecap="round" stroke-linejoin="round"/>
</svg>
