<svg width="20" height="21" viewBox="0 0 20 21" fill="none" xmlns="http://www.w3.org/2000/svg">
<path opacity="0.4" fill-rule="evenodd" clip-rule="evenodd" d="M10.0005 15.4993C10.3914 15.4993 10.7671 15.348 11.0482 15.0773C11.2444 14.8883 11.4457 14.6974 11.6492 14.5043C14.1222 12.1588 16.9413 9.48493 15.3892 5.75246C14.4797 3.56546 12.2965 2.16602 10.0005 2.16602C7.70444 2.16602 5.52124 3.56545 4.61175 5.75246C3.06586 9.46977 5.85395 12.1238 8.31347 14.4652C8.53016 14.6715 8.74433 14.8753 8.95274 15.0773C9.23382 15.348 9.60949 15.4993 10.0005 15.4993ZM10.0003 10.0827C11.1509 10.0827 12.0837 9.14993 12.0837 7.99935C12.0837 6.84876 11.1509 5.91602 10.0003 5.91602C8.84974 5.91602 7.91699 6.84876 7.91699 7.99935C7.91699 9.14993 8.84974 10.0827 10.0003 10.0827Z" fill="#FF0000"/>
<path d="M12.0837 7.99935C12.0837 9.14993 11.1509 10.0827 10.0003 10.0827C8.84974 10.0827 7.91699 9.14993 7.91699 7.99935C7.91699 6.84876 8.84974 5.91602 10.0003 5.91602C11.1509 5.91602 12.0837 6.84876 12.0837 7.99935Z" stroke="#FF0000" stroke-width="1.25"/>
<path d="M11.0482 15.0773C10.7671 15.348 10.3914 15.4993 10.0005 15.4993C9.60949 15.4993 9.23383 15.348 8.95274 15.0773C6.37891 12.5833 2.92965 9.79727 4.61175 5.75246C5.52124 3.56545 7.70444 2.16602 10.0005 2.16602C12.2965 2.16602 14.4797 3.56546 15.3892 5.75246C17.0692 9.79218 13.6283 12.5919 11.0482 15.0773Z" stroke="#FF0000" stroke-width="1.25"/>
<path d="M15 17.166C15 18.0865 12.7614 18.8327 10 18.8327C7.23857 18.8327 5 18.0865 5 17.166" stroke="#FF0000" stroke-width="1.25" stroke-linecap="round"/>
</svg>
