<svg width="54" height="54" viewBox="0 0 54 54" fill="none" xmlns="http://www.w3.org/2000/svg">
<rect x="0.609375" y="0.979492" width="52.4615" height="52.4615" rx="26.2308" fill="#2D7DD2" fill-opacity="0.15"/>
<path d="M26.0687 18.1112C25.8841 18.1471 25.6328 18.2189 25.5046 18.265C25.3764 18.3061 22.8428 19.4549 19.8733 20.814C14.001 23.4963 14.1497 23.4193 13.8779 23.9732C13.6779 24.3835 13.6727 24.9579 13.8676 25.3682C14.1497 25.958 13.9087 25.8349 19.7759 28.5121C22.7146 29.8558 25.2225 30.9995 25.3507 31.0508C26.0123 31.3277 27.0329 31.3995 27.7971 31.2149C28.1151 31.138 29.5767 30.4918 33.7258 28.5993C39.7725 25.8349 39.5315 25.9632 39.7982 25.3785C40.1264 24.6759 39.9264 23.8501 39.3315 23.3937C39.1571 23.2603 28.8587 18.5266 28.2381 18.2907C27.5766 18.0445 26.7457 17.9727 26.0687 18.1112Z" fill="#2D7DD2"/>
<path d="M37.4949 28.671L36.6897 29.0351L36.6846 31.4097C36.6846 34.0253 36.6794 33.9946 36.9974 34.2664C37.4128 34.61 38.1257 34.4048 38.2745 33.892C38.3104 33.7638 38.3257 32.7944 38.3155 31.0045L38.3001 28.3069L37.4949 28.671Z" fill="#2D7DD2"/>
<path d="M18.6435 31.9124L18.6589 34.01L18.7973 34.3844C19.0692 35.128 19.5307 35.7178 20.1564 36.123C20.5462 36.3794 21.8335 36.8872 22.6849 37.1334C24.1671 37.5539 25.2543 37.7026 26.8391 37.7026C28.4444 37.7026 29.6034 37.5385 31.0549 37.118C31.9267 36.8615 33.173 36.3589 33.5474 36.1076C34.1526 35.7076 34.6244 35.1024 34.8808 34.3844L35.0142 34.01L35.0347 31.9124C35.0501 29.9071 35.0501 29.8199 34.9578 29.8455C34.9065 29.8558 33.5987 30.4507 32.0447 31.1636C30.4958 31.8713 29.0854 32.5124 28.9162 32.5791C28.2956 32.8253 27.8238 32.9176 27.0442 32.9432C26.2442 32.974 25.7313 32.9073 25.0902 32.6971C24.9107 32.6355 23.4234 31.979 21.7874 31.2303C20.1513 30.4815 18.7717 29.8558 18.7204 29.8404C18.6332 29.8199 18.6281 29.9071 18.6435 31.9124Z" fill="#2D7DD2"/>
</svg>
