<svg width="54" height="54" viewBox="0 0 54 54" fill="none" xmlns="http://www.w3.org/2000/svg">
<rect x="0.822266" y="0.979492" width="52.4615" height="52.4615" rx="26.2308" fill="#2D7DD2" fill-opacity="0.15"/>
<path d="M28.2659 14.1276C28.2041 14.1533 28.096 14.2563 28.0239 14.349C27.9158 14.4931 19.5025 29.2138 19.2708 29.6669C19.1318 29.9346 19.1575 30.1303 19.3583 30.3311L19.5334 30.5061H23.1685C25.1663 30.5061 26.8036 30.5216 26.8036 30.5473C26.8036 30.5679 26.5977 32.6017 26.3402 35.0629C26.0879 37.524 25.8768 39.6402 25.8768 39.7587C25.8768 40.1912 26.3248 40.4692 26.6749 40.2478C26.7985 40.1706 27.7407 38.5332 31.1802 32.4061C34.3158 26.8247 35.5361 24.6107 35.5464 24.4716C35.567 24.3069 35.5413 24.2502 35.3868 24.0958L35.2066 23.9156H31.52C28.271 23.9156 27.8334 23.9053 27.8334 23.8383C27.8334 23.7971 28.1011 21.7273 28.4255 19.2404C28.7499 16.7535 29.0176 14.6579 29.0176 14.5807C29.0176 14.2717 28.5645 13.9988 28.2659 14.1276Z" fill="#2D7DD2"/>
</svg>
