<svg width="33" height="33" viewBox="0 0 33 33" fill="none" xmlns="http://www.w3.org/2000/svg">
<path d="M17.049 4.12344C16.7424 4.18476 6.83323 7.95588 6.48984 8.13984C5.82147 8.49549 5.19601 9.24358 4.90168 10.0469C4.76065 10.427 4.75451 10.4332 4.74225 14.1982C4.72385 17.1476 4.74225 17.9999 4.79744 18.1226C4.84036 18.2084 4.98753 18.3311 5.1163 18.3924C5.32478 18.4966 5.39223 18.5028 5.60685 18.4353C7.56906 17.865 9.43929 18.0367 11.0397 18.932C12.309 19.6494 13.4312 20.9003 13.9585 22.2003C14.3142 23.0649 14.4245 23.58 14.4552 24.5365C14.492 25.5299 14.4123 26.045 14.0689 27.0445C13.8113 27.811 13.8052 27.9949 14.0382 28.2525L14.216 28.4548H19.1461C23.7266 28.4548 24.0945 28.4487 24.4625 28.3445C26.3388 27.811 27.6388 26.3516 27.8963 24.4691C28.0251 23.5493 27.9576 23.1875 27.5713 22.8074C27.2463 22.4762 27.0072 22.4149 26.0629 22.4149C24.9162 22.4149 24.2969 22.2126 23.7328 21.6546C23.1748 21.1088 22.9724 20.5937 23.0092 19.7905C23.0337 19.1282 23.2177 18.699 23.6776 18.2146C24.2785 17.583 24.8794 17.3929 26.2959 17.3867C26.9275 17.3867 27.0869 17.3684 27.2893 17.2641C27.8166 16.9943 28.0006 16.5038 27.9454 15.5226C27.8657 14.2349 27.461 13.3213 26.5841 12.4506C25.9586 11.8251 25.5601 11.5676 24.7936 11.2916L24.254 11.1015L22.0342 11.0831L19.8145 11.0648L19.7961 8.44643L19.7777 5.82811L19.5753 5.41727C19.3239 4.90219 18.8395 4.44843 18.3489 4.26447C17.9994 4.1357 17.3433 4.06212 17.049 4.12344ZM17.8155 6.07338L17.9688 6.22055V8.64878V11.0709H13.3882C8.5195 11.0709 8.44592 11.077 7.66104 11.3713C7.47708 11.4449 7.16435 11.5982 6.96813 11.7147C6.77191 11.8312 6.59408 11.9294 6.58182 11.9294C6.56343 11.9294 6.56343 11.6473 6.57569 11.2978C6.60635 10.5619 6.71059 10.2983 7.13982 9.93035C7.3667 9.728 7.75915 9.56244 9.72749 8.82048C11.0091 8.33606 13.2533 7.48985 14.7189 6.93798C16.1844 6.37998 17.4476 5.92622 17.5273 5.92622C17.607 5.92009 17.7358 5.98754 17.8155 6.07338ZM19.2442 15.4859C19.3546 15.5533 19.4956 15.6943 19.5631 15.8047C19.8083 16.2094 19.6612 16.7613 19.2442 17.0188C19.048 17.1353 18.9253 17.1415 15.6754 17.1415H12.309L12.0453 16.8717C11.7878 16.6203 11.7755 16.5896 11.7755 16.2523C11.7755 15.9151 11.7878 15.8844 12.0453 15.633L12.309 15.3632H15.6754C18.9253 15.3632 19.048 15.3694 19.2442 15.4859Z" fill="#2D7DD2"/>
<path d="M25.1924 18.7359C24.6651 18.8953 24.3339 19.3 24.2972 19.8273C24.2726 20.275 24.4505 20.649 24.8245 20.9127L25.0943 21.0966L26.2594 21.115C27.0872 21.1273 27.4857 21.115 27.6145 21.0599C27.8843 20.9433 27.964 20.6858 27.964 19.9009C27.964 18.742 27.8721 18.6745 26.3575 18.6807C25.8056 18.6807 25.2844 18.7052 25.1924 18.7359Z" fill="#2D7DD2"/>
<path d="M7.08501 19.9683C5.66854 20.1891 4.46055 20.9617 3.67567 22.1574C2.82334 23.4574 2.66391 25.1191 3.24644 26.6215C3.77378 27.9827 5.09214 29.1478 6.5454 29.5402C7.21378 29.7181 8.30526 29.7181 8.9859 29.5341C10.7335 29.0742 12.0948 27.6884 12.5117 25.9592C12.6773 25.2602 12.6773 24.2607 12.5117 23.6046C12.0702 21.8938 10.6967 20.5141 8.99816 20.0848C8.42176 19.9438 7.58169 19.8886 7.08501 19.9683ZM8.21941 22.182C8.60572 22.4518 8.6793 22.6051 8.6977 23.2796L8.72223 23.8866H9.22504C10.059 23.8866 10.5066 24.2177 10.5066 24.8493C10.5066 25.1559 10.3778 25.3705 10.059 25.5852C9.88729 25.7078 9.77691 25.7262 9.28636 25.7262H8.70996V26.229C8.70996 26.8422 8.56893 27.1979 8.26847 27.3818C7.84537 27.6393 7.2567 27.4861 6.99303 27.063C6.89492 26.8974 6.87039 26.7502 6.87039 26.2903V25.7262H6.26333C5.74212 25.7262 5.63788 25.7078 5.46005 25.5852C4.91431 25.2172 4.90205 24.4998 5.42939 24.0951C5.63788 23.9357 5.71146 23.9173 6.26333 23.8989L6.87039 23.8744V23.2796C6.87039 22.8013 6.89492 22.6541 6.99303 22.4885C7.2567 22.0593 7.82697 21.9183 8.21941 22.182Z" fill="#2D7DD2"/>
</svg>
