<svg width="50" height="50" viewBox="0 0 50 50" fill="none" xmlns="http://www.w3.org/2000/svg">
<rect width="50" height="50" rx="25" fill="#2D7CD0"/>
<path opacity="0.4" d="M21.4478 17.1403L20.9445 16.0078C20.6154 15.2674 20.4508 14.8971 20.2048 14.6138C19.8963 14.2587 19.4943 13.9974 19.0446 13.8598C18.6857 13.75 18.2806 13.75 17.4703 13.75C16.2849 13.75 15.6922 13.75 15.1947 13.9779C14.6086 14.2463 14.0793 14.8291 13.8684 15.4382C13.6894 15.9554 13.7407 16.4868 13.8432 17.5496C14.9349 28.8628 21.1373 35.0651 32.4503 36.1567C33.5132 36.2594 34.0447 36.3106 34.5617 36.1316C35.1709 35.9207 35.7537 35.3914 36.0222 34.8054C36.2499 34.3077 36.2499 33.7151 36.2499 32.5298C36.2499 31.7194 36.2499 31.3142 36.1402 30.9554C36.0026 30.5056 35.7413 30.1036 35.3862 29.7952C35.1029 29.5491 34.7327 29.3846 33.9922 29.0555L32.8597 28.5521C32.0578 28.1957 31.6568 28.0176 31.2494 27.9789C30.8594 27.9417 30.4663 27.9965 30.1013 28.1386C29.7199 28.2871 29.3829 28.568 28.7087 29.1297C28.0377 29.689 27.7022 29.9686 27.2922 30.1184C26.9287 30.2511 26.4482 30.3004 26.0654 30.2439C25.6336 30.1803 25.3029 30.0036 24.6416 29.6501C22.5841 28.5506 21.4494 27.416 20.3498 25.3584C19.9964 24.6971 19.8197 24.3664 19.7561 23.9346C19.6997 23.5518 19.7488 23.0712 19.8816 22.7079C20.0314 22.2978 20.311 21.9623 20.8702 21.2913C21.432 20.6171 21.7129 20.28 21.8614 19.8986C22.0036 19.5337 22.0583 19.1405 22.0212 18.7506C21.9824 18.3432 21.8042 17.9422 21.4478 17.1403Z" fill="#FEFEFE"/>
<path d="M21.4478 17.1403L20.9445 16.0078C20.6154 15.2674 20.4508 14.8971 20.2048 14.6138C19.8963 14.2587 19.4943 13.9974 19.0446 13.8598C18.6857 13.75 18.2806 13.75 17.4703 13.75C16.2849 13.75 15.6922 13.75 15.1947 13.9779C14.6086 14.2463 14.0793 14.8291 13.8684 15.4382C13.6894 15.9554 13.7407 16.4868 13.8432 17.5496C14.9349 28.8627 21.1373 35.0651 32.4503 36.1567C33.5132 36.2594 34.0447 36.3106 34.5617 36.1316C35.1709 35.9208 35.7537 35.3914 36.0222 34.8054C36.2499 34.3077 36.2499 33.7151 36.2499 32.5297C36.2499 31.7194 36.2499 31.3142 36.1402 30.9554C36.0026 30.5056 35.7413 30.1036 35.3862 29.7952C35.1029 29.5491 34.7327 29.3846 33.9922 29.0555L32.8597 28.5521C32.0578 28.1957 31.6568 28.0176 31.2494 27.9789C30.8594 27.9417 30.4663 27.9965 30.1013 28.1386C29.7199 28.2871 29.3829 28.568 28.7087 29.1297C28.0377 29.689 27.7022 29.9686 27.2922 30.1184C26.9287 30.2511 26.4482 30.3004 26.0654 30.2439C25.6336 30.1803 25.3029 30.0036 24.6416 29.6501C22.5841 28.5506 21.4494 27.416 20.3498 25.3584C19.9964 24.6971 19.8197 24.3664 19.7561 23.9346C19.6997 23.5518 19.7488 23.0712 19.8816 22.7079C20.0314 22.2978 20.311 21.9623 20.8702 21.2912C21.432 20.6171 21.7129 20.28 21.8614 19.8986C22.0036 19.5337 22.0583 19.1405 22.0212 18.7506C21.9824 18.3432 21.8042 17.9422 21.4478 17.1403Z" stroke="#FEFEFE" stroke-width="1.25" stroke-linecap="round"/>
</svg>
