<svg width="50" height="50" viewBox="0 0 50 50" fill="none" xmlns="http://www.w3.org/2000/svg">
<rect width="50" height="50" rx="25" fill="#2D7CD0"/>
<path opacity="0.4" d="M27.7132 36.1131C32.942 35.7656 37.107 31.5415 37.4497 26.2386C37.5167 25.2009 37.5167 24.1261 37.4497 23.0884C37.107 17.7855 32.942 13.5614 27.7132 13.2138C25.9294 13.0953 24.067 13.0955 22.2867 13.2138C17.058 13.5614 12.893 17.7855 12.5503 23.0884C12.4832 24.1261 12.4832 25.2009 12.5503 26.2386C12.6751 28.17 13.5293 29.9583 14.5349 31.4683C15.1188 32.5254 14.7334 33.8448 14.1253 34.9973C13.6868 35.8283 13.4675 36.2437 13.6435 36.5439C13.8196 36.844 14.2128 36.8536 14.9993 36.8727C16.5546 36.9106 17.6033 36.4696 18.4358 35.8558C18.908 35.5076 19.1441 35.3335 19.3068 35.3135C19.4695 35.2935 19.7897 35.4254 20.43 35.6891C21.0055 35.9261 21.6737 36.0724 22.2867 36.1131C24.067 36.2315 25.9294 36.2317 27.7132 36.1131Z" fill="#FEFEFE"/>
<path d="M20.625 28.125H29.375M20.625 21.875H25" stroke="#FEFEFE" stroke-width="1.25" stroke-linecap="round" stroke-linejoin="round"/>
<path d="M27.7132 36.1131C32.942 35.7656 37.107 31.5415 37.4497 26.2386C37.5167 25.2009 37.5167 24.1261 37.4497 23.0884C37.107 17.7855 32.942 13.5614 27.7132 13.2138C25.9294 13.0953 24.067 13.0955 22.2867 13.2138C17.058 13.5614 12.893 17.7855 12.5503 23.0884C12.4832 24.1261 12.4832 25.2009 12.5503 26.2386C12.6751 28.17 13.5293 29.9583 14.5349 31.4683C15.1188 32.5254 14.7334 33.8448 14.1253 34.9973C13.6868 35.8283 13.4675 36.2437 13.6435 36.5439C13.8196 36.844 14.2128 36.8536 14.9993 36.8727C16.5546 36.9106 17.6033 36.4696 18.4358 35.8558C18.908 35.5076 19.1441 35.3335 19.3068 35.3135C19.4695 35.2935 19.7897 35.4254 20.43 35.6891C21.0055 35.9261 21.6737 36.0724 22.2867 36.1131C24.067 36.2315 25.9294 36.2317 27.7132 36.1131Z" stroke="#FEFEFE" stroke-width="1.25" stroke-linejoin="round"/>
</svg>
