<svg width="54" height="54" viewBox="0 0 54 54" fill="none" xmlns="http://www.w3.org/2000/svg">
<rect x="0.71582" y="0.892334" width="52.4615" height="52.4615" rx="26.2308" fill="#2D7DD2" fill-opacity="0.15"/>
<path d="M26.0533 16.5994C22.8018 16.8046 19.6528 17.979 17.0526 19.9484C15.9858 20.7587 14.3293 22.3384 14.0523 22.8102C13.8575 23.1538 13.7805 23.6051 13.8626 23.9898C13.9446 24.4001 14.0626 24.6257 14.3395 24.9027C14.8114 25.3796 15.5704 25.5437 16.1961 25.313C16.4628 25.2104 16.6167 25.0822 17.468 24.2565C18.5604 23.2 19.0271 22.8051 19.8426 22.2614C21.417 21.2152 23.0633 20.569 25.0225 20.2305C25.9148 20.0766 27.7509 20.0356 28.6894 20.1536C30.2024 20.3433 31.5922 20.7587 32.9205 21.4101C34.336 22.1076 35.29 22.7999 36.5721 24.0462C37.4696 24.9181 37.6748 25.0309 38.3312 25.0309C38.6954 25.0309 38.8133 25.0104 39.0492 24.8975C39.9262 24.4821 40.3058 23.4461 39.8955 22.5589C39.6595 22.0409 38.1517 20.6151 36.8285 19.6663C34.2847 17.8406 31.3563 16.8097 28.0996 16.5943C27.2432 16.5379 27.0072 16.5379 26.0533 16.5994Z" fill="#2D7DD2"/>
<path d="M25.8178 23.0363C24.0946 23.2978 22.5355 23.9543 21.1405 25.0108C20.484 25.5134 18.93 27.0776 18.7659 27.4058C18.2838 28.3854 18.6633 29.5086 19.648 30.0112C19.9199 30.1445 19.9917 30.1599 20.4584 30.1599C21.2225 30.1599 21.3405 30.0881 22.4585 29.0111C23.6432 27.8674 24.3305 27.411 25.3459 27.0879C27.2487 26.4878 29.336 26.8263 30.8951 27.9802C31.1054 28.1392 31.5772 28.5547 31.9465 28.9034C32.7824 29.6983 33.0696 29.8522 33.6902 29.8522C33.9159 29.8522 34.1928 29.8214 34.3108 29.7907C34.8134 29.6368 35.3057 29.1547 35.5109 28.6111C35.675 28.1803 35.6391 27.5494 35.4339 27.1392C35.1519 26.5801 33.9056 25.3903 32.8183 24.6415C31.5772 23.785 30.0027 23.2004 28.4334 23.0055C27.8282 22.9337 26.4024 22.9491 25.8178 23.0363Z" fill="#2D7DD2"/>
<path d="M26.3411 30.2622C25.2744 30.493 24.3615 31.37 24.0486 32.4572C23.9461 32.8162 23.9307 33.5445 24.023 33.9292C24.1768 34.5959 24.6179 35.2831 25.1359 35.6678C25.7616 36.1293 26.2796 36.3037 27.054 36.3037C28.1874 36.2986 29.2183 35.6575 29.7363 34.6318C30.0748 33.9651 30.1568 33.2317 29.9722 32.5239C29.8235 31.9444 29.5978 31.5495 29.1516 31.1033C28.3977 30.3443 27.3771 30.0365 26.3411 30.2622Z" fill="#2D7DD2"/>
</svg>
