<svg width="54" height="54" viewBox="0 0 54 54" fill="none" xmlns="http://www.w3.org/2000/svg">
<rect x="0.822266" y="0.892334" width="52.4615" height="52.4615" rx="26.2308" fill="#2D7DD2" fill-opacity="0.15"/>
<path d="M23.771 14.748C22.5095 15.1592 21.437 15.5204 21.3925 15.5593C21.2036 15.7149 21.3147 15.9039 21.8204 16.2817C22.0871 16.4818 22.3205 16.6596 22.3428 16.6819C22.3928 16.7374 21.8926 17.6155 21.4314 18.2823C20.3311 19.8883 18.7751 21.3999 17.2468 22.3446C16.5578 22.7725 15.463 23.2893 14.7239 23.5394C13.9792 23.7839 13.8403 23.9062 13.9903 24.1396C14.0681 24.2563 14.1404 24.2785 14.5683 24.323C15.3685 24.3952 16.9912 24.3674 17.6692 24.2674C20.6145 23.8173 22.943 22.289 25.2214 19.2937L25.4826 18.9492L25.6604 19.0714C25.7604 19.1381 25.9661 19.2882 26.1217 19.4049C26.4162 19.6272 26.6385 19.6716 26.7552 19.5327C26.8052 19.4716 26.783 18.8992 26.644 16.8263C26.4495 14.0478 26.444 13.9977 26.1772 14.0089C26.1105 14.0089 25.0269 14.3423 23.771 14.748Z" fill="#2D7DD2"/>
<path d="M33.2019 20.4605C33.0574 20.5383 32.9073 20.6661 32.8406 20.7828C32.7295 20.9773 32.7295 21.044 32.7295 30.3245V39.6717L32.8462 39.8273C32.9073 39.9107 33.0463 40.0385 33.1463 40.1107L33.3352 40.2385L36.086 40.2219C38.7424 40.2052 38.8479 40.1996 38.9924 40.094C39.0758 40.0329 39.198 39.8829 39.2592 39.7551C39.3703 39.5328 39.3703 39.4438 39.3703 30.3078V21.0829L39.2481 20.8384C39.1536 20.655 39.0536 20.555 38.8702 20.4605C38.6257 20.3383 38.609 20.3383 36.036 20.3383C33.463 20.3383 33.4464 20.3383 33.2019 20.4605Z" fill="#2D7DD2"/>
<path d="M24.0984 25.6733C23.9983 25.7344 23.8705 25.8623 23.8094 25.9623C23.6982 26.1401 23.6982 26.2568 23.6982 32.8977C23.6982 39.5385 23.6982 39.6552 23.8094 39.833C23.8705 39.933 23.9983 40.0609 24.0984 40.122C24.2762 40.2276 24.3873 40.2331 26.977 40.2331C30.0168 40.2331 29.939 40.2442 30.1835 39.8108L30.3113 39.5941V32.9088C30.3113 25.5066 30.3335 25.9845 29.9556 25.7122C29.7834 25.59 29.7778 25.59 27.0325 25.5733C24.3651 25.5622 24.2762 25.5622 24.0984 25.6733Z" fill="#2D7DD2"/>
<path d="M15.1954 30.7915C15.1176 30.8248 14.9954 30.9026 14.9287 30.9693C14.6286 31.2472 14.6397 31.0804 14.6397 35.4928C14.6397 39.2884 14.6453 39.6107 14.7397 39.783C14.7897 39.8886 14.9064 40.0275 14.9898 40.0886C15.1454 40.2053 15.201 40.2053 17.9462 40.2053C20.6915 40.2053 20.747 40.2053 20.9026 40.0886C20.986 40.0275 21.1027 39.8886 21.1583 39.783C21.2472 39.6051 21.2527 39.3106 21.2416 35.4261C21.225 31.3583 21.225 31.2527 21.1138 31.1082C21.0527 31.0249 20.9026 30.9026 20.7748 30.8415C20.5581 30.7359 20.447 30.7303 17.9407 30.7359C16.3458 30.7359 15.2788 30.7581 15.1954 30.7915Z" fill="#2D7DD2"/>
</svg>
