<svg width="30" height="30" viewBox="0 0 30 30" fill="none" xmlns="http://www.w3.org/2000/svg">
<rect width="30" height="30" rx="15" fill="#EAF2FA"/>
<path opacity="0.4" d="M16.8087 22.4084C20.2945 22.1768 23.0712 19.3607 23.2997 15.8254C23.3443 15.1336 23.3443 14.4171 23.2997 13.7253C23.0712 10.19 20.2945 7.37395 16.8087 7.14223C15.6194 7.06318 14.3778 7.06335 13.191 7.14223C9.70516 7.37395 6.92851 10.19 6.70004 13.7253C6.65533 14.4171 6.65533 15.1336 6.70004 15.8254C6.78325 17.113 7.35269 18.3052 8.02309 19.3118C8.41234 20.0166 8.15545 20.8962 7.75001 21.6645C7.45768 22.2185 7.31151 22.4955 7.42887 22.6956C7.54624 22.8957 7.80839 22.9021 8.33269 22.9148C9.36956 22.9401 10.0687 22.6461 10.6237 22.2368C10.9385 22.0048 11.0959 21.8887 11.2044 21.8753C11.3128 21.862 11.5263 21.9499 11.9532 22.1258C12.3368 22.2838 12.7823 22.3813 13.191 22.4084C14.3778 22.4873 15.6194 22.4875 16.8087 22.4084Z" fill="#2D7CD0"/>
<path d="M12.0835 17.0837H17.9168M12.0835 12.917H15.0002" stroke="#2D7CD0" stroke-width="1.25" stroke-linecap="round" stroke-linejoin="round"/>
<path d="M16.8087 22.4084C20.2945 22.1768 23.0712 19.3607 23.2997 15.8254C23.3443 15.1336 23.3443 14.4171 23.2997 13.7253C23.0712 10.19 20.2945 7.37395 16.8087 7.14223C15.6194 7.06318 14.3778 7.06335 13.191 7.14223C9.70516 7.37395 6.92851 10.19 6.70004 13.7253C6.65533 14.4171 6.65533 15.1336 6.70004 15.8254C6.78325 17.113 7.35269 18.3052 8.02309 19.3118C8.41234 20.0166 8.15545 20.8962 7.75001 21.6645C7.45768 22.2185 7.31151 22.4955 7.42887 22.6956C7.54624 22.8957 7.80839 22.9021 8.33269 22.9148C9.36956 22.9401 10.0687 22.6461 10.6237 22.2368C10.9385 22.0048 11.0959 21.8887 11.2044 21.8753C11.3128 21.862 11.5263 21.9499 11.9532 22.1258C12.3368 22.2838 12.7823 22.3813 13.191 22.4084C14.3778 22.4873 15.6194 22.4875 16.8087 22.4084Z" stroke="#2D7CD0" stroke-width="1.25" stroke-linejoin="round"/>
</svg>
