<svg width="41" height="40" viewBox="0 0 41 40" fill="none" xmlns="http://www.w3.org/2000/svg">
<path opacity="0.4" d="M31.6972 17.8592C31.376 18.1638 30.9467 18.334 30.4998 18.334C30.053 18.334 29.6237 18.1638 29.3025 17.8592C26.3608 15.0535 22.4188 11.9192 24.3413 7.36873C25.3807 4.90835 27.8758 3.33398 30.4998 3.33398C33.1238 3.33398 35.6188 4.90835 36.6583 7.36873C38.5783 11.9134 34.646 15.0631 31.6972 17.8592Z" fill="#00B3B0"/>
<path d="M31.6972 17.8592C31.376 18.1638 30.9467 18.334 30.4998 18.334C30.053 18.334 29.6237 18.1638 29.3025 17.8592C26.3608 15.0535 22.4188 11.9192 24.3413 7.36873C25.3807 4.90835 27.8758 3.33398 30.4998 3.33398C33.1238 3.33398 35.6188 4.90835 36.6583 7.36873C38.5783 11.9134 34.646 15.0631 31.6972 17.8592Z" stroke="#00B3B0" stroke-width="2.5"/>
<path d="M30.5 10H30.515" stroke="#00B3B0" stroke-width="3.33333" stroke-linecap="round" stroke-linejoin="round"/>
<path opacity="0.4" d="M8.83301 36.666C11.5944 36.666 13.833 34.4274 13.833 31.666C13.833 28.9046 11.5944 26.666 8.83301 26.666C6.07158 26.666 3.83301 28.9046 3.83301 31.666C3.83301 34.4274 6.07158 36.666 8.83301 36.666Z" fill="#00B3B0"/>
<path d="M8.83301 36.666C11.5944 36.666 13.833 34.4274 13.833 31.666C13.833 28.9046 11.5944 26.666 8.83301 26.666C6.07158 26.666 3.83301 28.9046 3.83301 31.666C3.83301 34.4274 6.07158 36.666 8.83301 36.666Z" stroke="#00B3B0" stroke-width="2.5" stroke-linecap="round" stroke-linejoin="round"/>
<path d="M18.8333 11.666H16.3333C13.1117 11.666 10.5 13.9046 10.5 16.666C10.5 19.4275 13.1117 21.666 16.3333 21.666H21.3333C24.555 21.666 27.1667 23.9045 27.1667 26.666C27.1667 29.4275 24.555 31.666 21.3333 31.666H18.8333" stroke="#00B3B0" stroke-width="2.5" stroke-linecap="round" stroke-linejoin="round"/>
</svg>
