<svg width="30" height="30" viewBox="0 0 30 30" fill="none" xmlns="http://www.w3.org/2000/svg">
<rect width="30" height="30" rx="15" fill="#EAF2FA"/>
<path opacity="0.4" d="M12.6319 9.76019L12.2963 9.00521C12.0769 8.51157 11.9672 8.26473 11.8032 8.07584C11.5976 7.83912 11.3296 7.66495 11.0297 7.57321C10.7905 7.5 10.5204 7.5 9.98017 7.5C9.18992 7.5 8.7948 7.5 8.46311 7.65191C8.07239 7.83085 7.71953 8.2194 7.57894 8.6255C7.45959 8.97024 7.49378 9.32452 7.56215 10.0331C8.28992 17.5752 12.4248 21.7101 19.9669 22.4378C20.6755 22.5062 21.0298 22.5404 21.3745 22.4211C21.7806 22.2805 22.1691 21.9276 22.3481 21.5369C22.5 21.2052 22.5 20.8101 22.5 20.0198C22.5 19.4796 22.5 19.2095 22.4268 18.9702C22.335 18.6704 22.1609 18.4024 21.9241 18.1968C21.7353 18.0327 21.4885 17.9231 20.9948 17.7037L20.2398 17.3681C19.7052 17.1305 19.4379 17.0117 19.1663 16.9859C18.9063 16.9612 18.6442 16.9977 18.4009 17.0924C18.1466 17.1914 17.922 17.3787 17.4725 17.7532C17.0251 18.126 16.8015 18.3124 16.5281 18.4122C16.2858 18.5007 15.9655 18.5336 15.7103 18.4959C15.4224 18.4535 15.202 18.3357 14.761 18.1001C13.3894 17.3671 12.6329 16.6107 11.8999 15.2389C11.6643 14.7981 11.5465 14.5776 11.5041 14.2898C11.4664 14.0345 11.4992 13.7142 11.5877 13.4719C11.6876 13.1986 11.874 12.9749 12.2468 12.5275C12.6213 12.0781 12.8086 11.8534 12.9076 11.5991C13.0024 11.3558 13.0388 11.0937 13.0141 10.8337C12.9883 10.5621 12.8695 10.2948 12.6319 9.76019Z" fill="#2D7CD0"/>
<path d="M12.6319 9.76019L12.2963 9.00521C12.0769 8.51157 11.9672 8.26473 11.8032 8.07584C11.5976 7.83912 11.3296 7.66495 11.0297 7.57321C10.7905 7.5 10.5204 7.5 9.98017 7.5C9.18992 7.5 8.7948 7.5 8.46311 7.65191C8.07239 7.83085 7.71953 8.2194 7.57894 8.6255C7.45959 8.97024 7.49378 9.32453 7.56215 10.0331C8.28992 17.5752 12.4248 21.7101 19.9669 22.4378C20.6755 22.5062 21.0298 22.5404 21.3745 22.4211C21.7806 22.2805 22.1691 21.9276 22.3481 21.5369C22.5 21.2052 22.5 20.8101 22.5 20.0198C22.5 19.4796 22.5 19.2095 22.4268 18.9702C22.335 18.6704 22.1609 18.4024 21.9241 18.1968C21.7353 18.0327 21.4885 17.9231 20.9948 17.7037L20.2398 17.3681C19.7052 17.1305 19.4379 17.0117 19.1663 16.9859C18.9063 16.9612 18.6442 16.9977 18.4009 17.0924C18.1466 17.1914 17.922 17.3787 17.4725 17.7532C17.0251 18.126 16.8015 18.3124 16.5281 18.4122C16.2858 18.5007 15.9655 18.5336 15.7103 18.4959C15.4224 18.4535 15.202 18.3358 14.761 18.1001C13.3894 17.3671 12.6329 16.6107 11.8999 15.2389C11.6643 14.7981 11.5465 14.5776 11.5041 14.2898C11.4664 14.0345 11.4992 13.7142 11.5877 13.4719C11.6876 13.1986 11.874 12.9749 12.2468 12.5275C12.6213 12.0781 12.8086 11.8533 12.9076 11.5991C13.0024 11.3558 13.0388 11.0937 13.0141 10.8337C12.9883 10.5621 12.8695 10.2948 12.6319 9.76019Z" stroke="#2D7CD0" stroke-width="1.25" stroke-linecap="round"/>
</svg>
