<svg width="31" height="31" viewBox="0 0 31 31" fill="none" xmlns="http://www.w3.org/2000/svg">
<path opacity="0.4" d="M26.9882 21.6479C26.9882 23.2608 24.5562 24.2196 19.6921 26.1374C17.738 26.9078 16.761 27.293 15.7382 27.293C14.7155 27.293 13.7385 26.9078 11.7844 26.1374C6.92033 24.2196 4.48828 23.2608 4.48828 21.6479V9.79297L15.7382 14.8736L26.9882 9.79297V21.6479Z" fill="#2D7CD0"/>
<path d="M15.7382 27.293C14.7155 27.293 13.7385 26.8873 11.7844 26.0758C6.92033 24.0556 4.48828 23.0456 4.48828 21.3466V9.47376M15.7382 27.293C16.761 27.293 17.738 26.8873 19.6921 26.0758C24.5562 24.0556 26.9882 23.0456 26.9882 21.3466V9.47376M15.7382 27.293V15.0039M4.48828 9.47376C4.48828 10.2286 5.49024 10.7053 7.49418 11.6586L11.1457 13.3958C13.3992 14.4679 14.5261 15.0039 15.7382 15.0039M4.48828 9.47376C4.48828 8.71892 5.49024 8.24227 7.49418 7.28894L10.1133 6.04297M26.9882 9.47376C26.9882 10.2286 25.9862 10.7053 23.9824 11.6586L20.3309 13.3958C18.0772 14.4679 16.9504 15.0039 15.7382 15.0039M26.9882 9.47376C26.9882 8.71892 25.9862 8.24227 23.9824 7.28894L21.3632 6.04297M8.23828 16.2328L10.7383 17.4618" stroke="#2D7CD0" stroke-width="2" stroke-linecap="round" stroke-linejoin="round"/>
<path d="M15.7429 2.29297V11.0429M15.7429 11.0429C16.0718 11.0474 16.3962 10.8176 16.6355 10.5371L18.2383 8.62014M15.7429 11.0429C15.4257 11.0386 15.1044 10.8101 14.8504 10.5371L13.2383 8.62014" stroke="#2D7CD0" stroke-width="2" stroke-linecap="round"/>
</svg>
