<svg width="41" height="40" viewBox="0 0 41 40" fill="none" xmlns="http://www.w3.org/2000/svg">
<path opacity="0.4" d="M32.5193 11.2493H37.1675V24.5827H32.8558C32.832 24.0094 32.6027 23.4431 32.1675 23.0052L22.1675 12.9458H20.5008L18.4438 15.015C17.2428 16.2232 15.3307 16.3297 14.0044 15.2624C13.6456 14.9736 13.4662 14.8292 13.349 14.6802C12.9144 14.1278 12.8731 13.362 13.2457 12.766C13.3463 12.6053 13.5091 12.4424 13.8348 12.1167L15.1066 10.8449C16.5517 9.3998 17.2743 8.67722 18.1932 8.29662C19.112 7.91602 20.4293 7.91602 22.473 7.91602C23.9758 7.91602 24.7273 7.91602 25.4358 8.13055C26.1445 8.3451 27.5708 9.29608 28.8213 10.1297C29.655 10.6854 30.0717 10.9633 30.5442 11.1063C31.0165 11.2493 31.5175 11.2493 32.5193 11.2493Z" fill="#B35F00"/>
<path d="M37.1663 11.2493H32.5182C31.5163 11.2493 31.0153 11.2493 30.543 11.1063C30.0707 10.9633 29.6538 10.6854 28.8202 10.1297C27.5698 9.29607 26.1433 8.3451 25.4347 8.13055C24.7262 7.91602 23.9747 7.91602 22.4718 7.91602C20.4282 7.91602 19.1108 7.91602 18.192 8.29662C17.2732 8.67722 16.5506 9.3998 15.1055 10.8449L13.8337 12.1167C13.508 12.4424 13.3451 12.6053 13.2446 12.766C12.8719 13.362 12.9132 14.1278 13.3478 14.6802C13.4651 14.8292 13.6445 14.9736 14.0033 15.2624C15.3296 16.3297 17.2417 16.2232 18.4427 15.015L20.4997 12.9458H22.1663L32.1663 23.0053C33.0868 23.9313 33.0868 25.4325 32.1663 26.3585C31.2458 27.2845 29.7535 27.2845 28.833 26.3585L27.9997 25.5201M27.9997 25.5201L22.9997 20.4905M27.9997 25.5201C28.9202 26.4461 28.9202 27.9475 27.9997 28.8733C27.0792 29.7993 25.5868 29.7993 24.6663 28.8733L22.9997 27.1968M22.9997 27.1968C23.9202 28.1226 23.9202 29.624 22.9997 30.55C22.0792 31.4758 20.5868 31.4758 19.6663 30.55L17.1663 28.035M22.9997 27.1968L19.6663 23.8635M17.1663 28.035L16.333 27.1968M17.1663 28.035C18.0868 28.961 18.0868 30.4623 17.1663 31.3883C16.2459 32.3141 14.7535 32.3141 13.833 31.3883L9.12696 26.5841C8.15992 25.597 7.67641 25.1035 7.05692 24.843C6.43744 24.5826 5.74647 24.5826 4.36457 24.5826H3.83301" stroke="#B35F00" stroke-width="2.5" stroke-linecap="round" stroke-linejoin="round"/>
<path d="M37.1667 24.584H33" stroke="#B35F00" stroke-width="2.5" stroke-linecap="round"/>
<path d="M14.6663 11.25H3.83301" stroke="#B35F00" stroke-width="2.5" stroke-linecap="round"/>
</svg>
