<svg width="80" height="35" viewBox="0 0 80 35" fill="none" xmlns="http://www.w3.org/2000/svg">
<path d="M75.2931 16.002H8.23926V26.1758H75.2931V16.002Z" fill="#E8505B"/>
<g opacity="0.4">
<path d="M75.2931 16.002H8.23926V26.1758H75.2931V16.002Z" fill="black"/>
</g>
<path d="M78.1166 15.1437C77.3954 12.9346 75.6283 11.3686 73.5465 11.0938L58.493 9.10589L52.9982 4.70461C49.1781 1.64475 44.602 0 39.9088 0H10.5053H10.5048H4.18533C3.989 0 3.80438 0.104871 3.68812 0.282356C3.45252 0.64184 3.57694 1.15398 3.94252 1.32948L6.51849 2.56643C6.4234 2.74856 6.33528 2.93653 6.25959 3.13353L4.80461 6.9178C4.45003 7.84 4.26706 8.83376 4.26706 9.83813C3.4537 9.83813 2.79433 10.5782 2.79433 11.4911V18.0813L1.26815 18.8467C0.534509 19.2147 0.0620117 20.0323 0.0620117 20.9343V22.6437C0.0620117 23.9745 0.898905 25.1204 2.06164 25.3814L10.1386 27.1945V26.3752C10.1386 21.5423 13.6291 17.6245 17.9349 17.6245C22.2408 17.6245 25.7313 21.5423 25.7313 26.3752V27.1945H58.1813V26.3752C58.1813 21.5423 61.6718 17.6245 65.9777 17.6245C70.2835 17.6245 73.774 21.5423 73.774 26.3752V27.1945H77.7578C78.8334 27.1945 79.7053 26.2159 79.7053 25.0086V20.0099L78.1166 15.1437Z" fill="#E8505B"/>
<path d="M6.25962 3.13266L4.80452 6.9168C4.44994 7.839 4.26709 8.83276 4.26709 9.83714H6.27594L8.23961 3.39192L6.51864 2.56543C6.42343 2.74756 6.33531 2.93553 6.25962 3.13266Z" fill="#455A64"/>
<path d="M78.117 15.1443C77.9946 14.7694 77.8399 14.4147 77.6607 14.0801H75.5264L77.4579 19.1115L79.7058 20.5682V20.0105L78.117 15.1443Z" fill="#E8505B"/>
<g opacity="0.2">
<path d="M78.117 15.1443C77.9946 14.7694 77.8399 14.4147 77.6607 14.0801H75.5264L77.4579 19.1115L79.7058 20.5682V20.0105L78.117 15.1443Z" fill="black"/>
</g>
<path d="M2.94953 15.8527H4.05561C4.68766 15.8527 5.30456 15.6361 5.8239 15.2317L7.66516 13.7982C7.98958 13.5457 8.18295 13.1307 8.18295 12.6876C8.18295 11.9411 7.64387 11.3359 6.97871 11.3359H2.95391C2.85645 11.3359 2.77744 11.4245 2.77733 11.5339L2.77295 15.6543C2.77283 15.7638 2.85196 15.8527 2.94953 15.8527Z" fill="#EBEBEB"/>
<path d="M79.8219 20.3415L79.1797 19.9254H79.5715C79.7 19.9254 79.8041 19.8084 79.8041 19.6644C79.8041 19.5202 79.6999 19.4034 79.5715 19.4034H78.374L77.9706 19.142H79.3369C79.4653 19.142 79.5694 19.0251 79.5694 18.881C79.5694 18.7369 79.4652 18.6201 79.3369 18.6201H77.5223L77.4219 18.3587H79.0659C79.1944 18.3587 79.2984 18.2417 79.2984 18.0977C79.2984 17.9535 79.1942 17.8367 79.0659 17.8367H77.2217L77.1213 17.5753H78.8374C78.9659 17.5753 79.0699 17.4584 79.0699 17.3143C79.0699 17.1702 78.9657 17.0534 78.8374 17.0534H76.9209L76.8205 16.792H78.5695C78.698 16.792 78.8021 16.675 78.8021 16.531C78.8021 16.3868 78.6979 16.27 78.5695 16.27H76.62L76.5196 16.0086H78.3029C78.4314 16.0086 78.5355 15.8917 78.5355 15.7476C78.5355 15.6035 78.4313 15.4867 78.3029 15.4867H76.3193L76.2189 15.2253H78.0548C78.1833 15.2253 78.2873 15.1085 78.2873 14.9643C78.2873 14.8201 78.1831 14.7033 78.0548 14.7033H76.0184L75.8794 14.3413H77.6604C77.7888 14.3413 77.8929 14.2244 77.8929 14.0803C77.8929 13.9362 77.7888 13.8193 77.6604 13.8193H75.526C75.4477 13.8193 75.3748 13.8635 75.3317 13.937C75.2888 14.0102 75.2814 14.103 75.3124 14.1837L75.9518 15.8492C75.9519 15.8495 75.9519 15.8496 75.9521 15.8499L76.2525 16.6324C76.2526 16.6328 76.2528 16.6332 76.2529 16.6336L76.5533 17.4163L76.5535 17.4167L76.8539 18.1994C76.854 18.1998 76.8541 18.2002 76.8543 18.2004L77.1549 18.9831L77.155 18.9835L77.2439 19.215C77.2638 19.2667 77.2979 19.3097 77.3413 19.3378L79.589 20.7945C79.6257 20.8182 79.6657 20.8295 79.7051 20.8295C79.7854 20.8295 79.8637 20.7827 79.9067 20.699C79.9712 20.5732 79.9331 20.4135 79.8219 20.3415Z" fill="#E8505B"/>
<g opacity="0.2">
<path d="M79.8219 20.3415L79.1797 19.9254H79.5715C79.7 19.9254 79.8041 19.8084 79.8041 19.6644C79.8041 19.5202 79.6999 19.4034 79.5715 19.4034H78.374L77.9706 19.142H79.3369C79.4653 19.142 79.5694 19.0251 79.5694 18.881C79.5694 18.7369 79.4652 18.6201 79.3369 18.6201H77.5223L77.4219 18.3587H79.0659C79.1944 18.3587 79.2984 18.2417 79.2984 18.0977C79.2984 17.9535 79.1942 17.8367 79.0659 17.8367H77.2217L77.1213 17.5753H78.8374C78.9659 17.5753 79.0699 17.4584 79.0699 17.3143C79.0699 17.1702 78.9657 17.0534 78.8374 17.0534H76.9209L76.8205 16.792H78.5695C78.698 16.792 78.8021 16.675 78.8021 16.531C78.8021 16.3868 78.6979 16.27 78.5695 16.27H76.62L76.5196 16.0086H78.3029C78.4314 16.0086 78.5355 15.8917 78.5355 15.7476C78.5355 15.6035 78.4313 15.4867 78.3029 15.4867H76.3193L76.2189 15.2253H78.0548C78.1833 15.2253 78.2873 15.1085 78.2873 14.9643C78.2873 14.8201 78.1831 14.7033 78.0548 14.7033H76.0184L75.8794 14.3413H77.6604C77.7888 14.3413 77.8929 14.2244 77.8929 14.0803C77.8929 13.9362 77.7888 13.8193 77.6604 13.8193H75.526C75.4477 13.8193 75.3748 13.8635 75.3317 13.937C75.2888 14.0102 75.2814 14.103 75.3124 14.1837L75.9518 15.8492C75.9519 15.8495 75.9519 15.8496 75.9521 15.8499L76.2525 16.6324C76.2526 16.6328 76.2528 16.6332 76.2529 16.6336L76.5533 17.4163L76.5535 17.4167L76.8539 18.1994C76.854 18.1998 76.8541 18.2002 76.8543 18.2004L77.1549 18.9831L77.155 18.9835L77.2439 19.215C77.2638 19.2667 77.2979 19.3097 77.3413 19.3378L79.589 20.7945C79.6257 20.8182 79.6657 20.8295 79.7051 20.8295C79.7854 20.8295 79.8637 20.7827 79.9067 20.699C79.9712 20.5732 79.9331 20.4135 79.8219 20.3415Z" fill="white"/>
</g>
<path d="M18.2086 34.3574C21.9609 34.2946 24.9574 30.8296 24.9015 26.6181C24.8456 22.4066 21.7584 19.0433 18.0061 19.1061C14.2538 19.1689 11.2572 22.6338 11.3132 26.8454C11.3691 31.0569 14.4563 34.4201 18.2086 34.3574Z" fill="#263238"/>
<path d="M11.3139 26.5986C11.3138 26.6053 11.3129 26.6116 11.3127 26.6183C11.2586 30.8297 14.2565 34.2931 18.0088 34.3539C21.7611 34.4147 24.8468 31.0498 24.9009 26.8384C24.901 26.8317 24.9002 26.8254 24.9003 26.8187L11.3139 26.5986Z" fill="#263238"/>
<path d="M13.3413 26.6569C13.3034 29.6138 15.408 32.0453 18.0423 32.088C20.6767 32.1307 22.8431 29.7682 22.881 26.8115C22.919 23.8546 20.8142 21.4232 18.1798 21.3805C15.5456 21.3377 13.3793 23.7001 13.3413 26.6569Z" fill="#FAFAFA"/>
<path d="M18.1809 21.3805C15.5465 21.3378 13.3803 23.7002 13.3423 26.6569L22.8821 26.8113C22.9201 23.8546 20.8153 21.4231 18.1809 21.3805Z" fill="#E0E0E0"/>
<path d="M15.2025 26.6833C15.1793 28.4845 16.4615 29.9657 18.0661 29.9916C19.6708 30.0176 20.9905 28.5785 21.0136 26.7775C21.0368 24.9763 19.7546 23.4951 18.1499 23.4691C16.5452 23.4432 15.2255 24.8822 15.2025 26.6833Z" fill="#263238"/>
<path d="M66.6042 34.3341C70.3422 33.9647 73.1058 30.2641 72.7766 26.0685C72.4475 21.873 69.1505 18.7713 65.4124 19.1407C61.6743 19.5101 58.9108 23.2107 59.2399 27.4062C59.569 31.6018 62.8661 34.7035 66.6042 34.3341Z" fill="#263238"/>
<path d="M59.2158 26.6133C59.2157 26.6199 59.2147 26.6263 59.2146 26.6329C59.1604 30.8444 62.1584 34.3078 65.9107 34.3686C69.663 34.4294 72.7487 31.0645 72.8027 26.853C72.8029 26.8464 72.802 26.84 72.8022 26.8334L59.2158 26.6133Z" fill="#263238"/>
<path d="M61.2378 26.6618C61.1998 29.6187 63.3045 32.0502 65.9388 32.0928C68.5732 32.1356 70.7396 29.7731 70.7775 26.8163C70.8155 23.8595 68.7107 21.4281 66.0763 21.3853C63.4421 21.3426 61.2758 23.705 61.2378 26.6618Z" fill="#FAFAFA"/>
<path d="M66.0759 21.3853C63.4415 21.3427 61.2753 23.7051 61.2373 26.6618L70.7771 26.8162C70.8151 23.8595 68.7103 21.4279 66.0759 21.3853Z" fill="#E0E0E0"/>
<path d="M63.1063 26.6824C63.0831 28.4835 64.3653 29.9647 65.9699 29.9906C67.5746 30.0166 68.8943 28.5775 68.9175 26.7765C68.9406 24.9753 67.6583 23.4941 66.0536 23.4681C64.449 23.4422 63.1293 24.8812 63.1063 26.6824Z" fill="#263238"/>
<path d="M58.4936 9.10312L52.9988 4.70184C51.4078 3.42758 49.6845 2.40263 47.8774 1.63574H46.0659L57.0584 9.83536L58.4936 9.10312Z" fill="#455A64"/>
<path d="M74.7074 13.5969H77.3782C76.9763 13.0065 76.5199 12.4994 76.004 12.0837C75.3936 11.8638 74.6484 12.7224 74.7074 13.5969Z" fill="#FAFAFA"/>
<path d="M20.2775 10.0736H55.6247L45.5334 2.25687C44.7937 1.64795 43.9003 1.31967 42.9831 1.31967H21.0699C21.0699 1.31967 13.1983 1.10302 11.4702 3.76861L20.2775 10.0736Z" fill="#263238"/>
<path d="M17.7251 10.0909C17.5961 10.0909 17.4678 10.0856 17.3399 10.0769C15.5951 9.95738 13.9866 9.0296 12.8807 7.48892L11.4363 5.47658C11.1984 5.14511 11.1175 4.71912 11.2143 4.30773C11.311 3.89634 11.5686 3.57084 11.9209 3.41433L13.1623 2.80063C14.5533 2.18295 16.2888 1.81166 17.7847 1.81166H21.8967L20.5795 10.0911H17.7251V10.0909ZM23.456 10.0909L24.77 1.81152H36.8812V10.0909H23.456ZM40.5625 10.0909L39.1452 1.81152H43.3328C43.9753 1.81152 44.6006 2.04476 45.1152 2.47646L54.1934 10.0909H40.5625Z" fill="#455A64"/>
<path d="M39.1141 25.1539C39.1131 25.1539 39.1121 25.1407 39.1114 25.1148C39.1109 25.085 39.1105 25.0471 39.1097 24.9997C39.1096 24.8936 39.1095 24.7456 39.1094 24.5574C39.1118 24.1683 39.1152 23.6139 39.1194 22.9311C39.134 21.5537 39.1539 19.6588 39.176 17.5659C39.1896 16.5182 39.2026 15.5204 39.2144 14.612C39.2209 14.1582 39.2272 13.7269 39.233 13.323C39.2441 12.9186 39.2385 12.5453 39.1988 12.2052C39.1235 11.5257 38.9805 10.9909 38.8709 10.6287C38.8154 10.4475 38.7675 10.3085 38.7341 10.2148C38.7183 10.171 38.7055 10.136 38.6956 10.1083C38.687 10.0843 38.6828 10.0718 38.6837 10.0713C38.6847 10.0708 38.6908 10.0822 38.7012 10.1054C38.712 10.1284 38.7265 10.1634 38.7455 10.2094C38.7826 10.3016 38.8343 10.4393 38.8934 10.6198C39.0103 10.9805 39.1605 11.5155 39.242 12.1994C39.2848 12.5404 39.2928 12.9213 39.284 13.3239C39.2799 13.7279 39.2756 14.1592 39.2711 14.6129C39.2608 15.5213 39.2493 16.5192 39.2375 17.567C39.2084 19.6599 39.1821 21.5545 39.163 22.9319C39.1505 23.6146 39.1404 24.1689 39.1333 24.5579C39.1285 24.746 39.1248 24.894 39.122 25C39.1202 25.0472 39.1187 25.0852 39.1175 25.1149C39.1164 25.1407 39.1152 25.1539 39.1141 25.1539Z" fill="#263238"/>
<path d="M54.4553 10.6632C54.4559 10.6622 54.4654 10.6694 54.4834 10.6847C54.5039 10.7026 54.5298 10.7253 54.5622 10.7536C54.5797 10.7694 54.599 10.7865 54.62 10.8053C54.6386 10.8279 54.6589 10.8522 54.6805 10.8785C54.7242 10.9316 54.7769 10.9908 54.8234 11.069C55.0255 11.3682 55.2489 11.8559 55.4369 12.491C55.5317 12.8081 55.6213 13.1608 55.7003 13.5439C55.7406 13.7352 55.7763 13.9348 55.8093 14.1412C55.8472 14.3453 55.8557 14.5685 55.8522 14.7878C55.8509 15.6712 55.8282 16.6408 55.8058 17.6589C55.7582 19.6955 55.7032 21.5386 55.6602 22.8726C55.637 23.5357 55.6182 24.074 55.605 24.452C55.5972 24.6346 55.5911 24.7782 55.5867 24.8813C55.5841 24.9271 55.582 24.9639 55.5803 24.993C55.5786 25.0181 55.5771 25.031 55.5761 25.031C55.575 25.031 55.5743 25.0179 55.5741 24.9927C55.5742 24.9637 55.5742 24.9267 55.5743 24.8809C55.576 24.7777 55.5782 24.6339 55.5812 24.4512C55.5897 24.0729 55.6017 23.5345 55.6168 22.871C55.6495 21.5324 55.6946 19.6913 55.7443 17.657C55.7667 16.6394 55.7911 15.6691 55.7956 14.7879C55.7996 14.5661 55.7929 14.3577 55.7561 14.1514C55.7243 13.9462 55.6897 13.7473 55.6507 13.5567C55.5742 13.1746 55.4875 12.8229 55.3958 12.5064C55.214 11.8726 54.9984 11.3858 54.8043 11.0849C54.6105 10.782 54.4479 10.6726 54.4553 10.6632Z" fill="#263238"/>
<path d="M55.622 10.4024C55.622 9.90994 55.3852 9.45568 55.0026 9.21447L53.4111 8.21089C52.9573 7.92468 52.4457 7.77441 51.9252 7.77441C51.6014 7.77441 51.2827 7.83256 50.9803 7.9438C50.3001 8.19403 49.8473 8.91897 49.8201 9.72184C49.7823 10.8375 50.5778 11.765 51.5725 11.765H54.408C55.0784 11.7651 55.622 11.155 55.622 10.4024Z" fill="#E8505B"/>
<path d="M55.6228 10.3986C55.6189 10.3984 55.6182 10.4588 55.6044 10.5711C55.5912 10.6832 55.5551 10.8486 55.4648 11.0377C55.3716 11.2235 55.2153 11.4315 54.9768 11.5768C54.8574 11.6473 54.7188 11.7003 54.5674 11.7217C54.4171 11.7416 54.2505 11.7303 54.0781 11.732C53.3853 11.7295 52.5629 11.7264 51.6505 11.7231C51.4238 11.7246 51.1947 11.6932 50.9747 11.5989C50.7554 11.5071 50.5485 11.3615 50.3744 11.1705C50.2008 10.9796 50.0578 10.7445 49.9694 10.4801C49.8799 10.2162 49.8446 9.92636 49.8634 9.63764C49.9024 9.05832 50.1789 8.52202 50.5796 8.21152C50.7781 8.05142 51.007 7.96129 51.2375 7.90049C51.4675 7.83916 51.699 7.80969 51.9249 7.80902C52.3771 7.80836 52.8046 7.92199 53.1704 8.10864C53.3536 8.20023 53.521 8.31665 53.687 8.41741C53.8518 8.52029 54.0099 8.61892 54.161 8.71331C54.4626 8.90088 54.736 9.0708 54.9768 9.22067C55.2163 9.36523 55.3726 9.57365 55.4642 9.76016C55.5565 9.9484 55.5901 10.1146 55.6053 10.2261C55.6198 10.3383 55.6185 10.3987 55.6228 10.3986C55.6228 10.3986 55.63 10.3383 55.62 10.2239C55.6095 10.1104 55.5801 9.93977 55.4895 9.74463C55.3999 9.55148 55.2417 9.33284 54.997 9.17992C54.7577 9.02699 54.4862 8.85336 54.1866 8.66193C54.0363 8.56609 53.8788 8.46586 53.7149 8.36139C53.5499 8.25957 53.3835 8.14156 53.1958 8.04585C52.8236 7.8527 52.3874 7.73389 51.9249 7.73243C51.6939 7.73203 51.4569 7.76123 51.2213 7.82323C50.9872 7.88389 50.7458 7.97788 50.5382 8.14474C50.119 8.46852 49.8305 9.02726 49.7898 9.63087C49.7701 9.93181 49.8071 10.2343 49.9008 10.5094C49.9934 10.785 50.1426 11.03 50.3239 11.2285C50.5056 11.4271 50.7215 11.5782 50.9501 11.6729C51.1782 11.7704 51.421 11.8021 51.6505 11.7993C52.5629 11.796 53.3853 11.7929 54.0781 11.7904C54.2509 11.7867 54.4147 11.7967 54.5736 11.7738C54.7308 11.7495 54.8739 11.6926 54.9964 11.6176C55.2413 11.4632 55.3985 11.2456 55.4901 11.053C55.5788 10.8569 55.6106 10.6873 55.6192 10.5732C55.6282 10.4588 55.6228 10.3986 55.6228 10.3986Z" fill="#263238"/>
<path d="M51.2264 8.5229C51.232 8.52754 51.2684 8.4605 51.363 8.37462C51.4566 8.28966 51.6167 8.19262 51.8319 8.16209C52.0473 8.12996 52.3078 8.17111 52.5885 8.25395C52.8704 8.33293 53.1746 8.44537 53.482 8.59511C54.0989 8.893 54.6014 9.28952 54.9355 9.60944C55.2728 9.92764 55.4512 10.1621 55.4617 10.1511C55.4655 10.1472 55.4228 10.0872 55.3419 9.98154C55.2592 9.87786 55.1356 9.73117 54.9698 9.56511C54.6415 9.23084 54.1367 8.82092 53.5114 8.51891C53.1999 8.36718 52.8908 8.25541 52.6046 8.17961C52.3203 8.10009 52.0491 8.06252 51.8247 8.10394C51.5998 8.14363 51.4359 8.25408 51.3443 8.35006C51.2978 8.39811 51.268 8.44192 51.2496 8.47245C51.2318 8.50378 51.2244 8.52144 51.2264 8.5229Z" fill="white"/>
<path d="M28.0074 26.9701C28.0074 26.9701 28.0072 26.9381 28.0098 26.8759C28.0129 26.8115 28.0173 26.7198 28.0229 26.6002C28.0272 26.479 28.0411 26.3295 28.0421 26.1523C28.0393 25.9746 28.0361 25.7702 28.0324 25.5404C28.0246 25.3105 27.9953 25.0562 27.9747 24.7773C27.9634 24.6377 27.9351 24.4948 27.9147 24.3446C27.8899 24.1953 27.8744 24.038 27.8396 23.8793C27.7152 23.2407 27.5204 22.5266 27.2313 21.7705C26.9344 21.0187 26.5326 20.2318 26.0084 19.4647C25.4842 18.6987 24.8334 17.9542 24.0516 17.3129C23.2704 16.6737 22.3594 16.1343 21.352 15.7849C20.3472 15.4304 19.2576 15.2394 18.14 15.2399C17.0221 15.2535 15.9342 15.4538 14.929 15.8086C13.9214 16.1589 13.0082 16.6894 12.2114 17.305C11.414 17.9225 10.7342 18.6309 10.1685 19.3595C9.60218 20.0888 9.1486 20.8375 8.78622 21.5525C8.43211 22.2735 8.16588 22.957 7.96482 23.5707C7.91337 23.7236 7.87505 23.8758 7.832 24.0198C7.79226 24.165 7.74625 24.3021 7.71609 24.4381C7.6553 24.7097 7.59108 24.9557 7.54838 25.1808C7.50817 25.4064 7.47245 25.6068 7.44146 25.781C7.41355 25.9554 7.39936 26.1047 7.38268 26.2246C7.36731 26.3432 7.35548 26.434 7.3472 26.4978C7.3388 26.5593 7.33301 26.5906 7.33301 26.5906C7.33301 26.5906 7.33466 26.5587 7.34093 26.497C7.34779 26.433 7.35761 26.3418 7.37038 26.2229C7.38505 26.1026 7.39723 25.9527 7.42337 25.7777C7.45282 25.6028 7.48676 25.4014 7.52496 25.1751C7.566 24.949 7.62857 24.702 7.68782 24.4292C7.71727 24.2926 7.76245 24.1549 7.8016 24.009C7.84394 23.8643 7.88167 23.7115 7.93241 23.5578C8.13099 22.9411 8.39521 22.2538 8.74825 21.5288C9.10945 20.8095 9.56279 20.0562 10.1299 19.3219C10.6964 18.5885 11.3783 17.875 12.1791 17.2527C12.9792 16.6322 13.8976 16.0974 14.9107 15.7442C15.9213 15.3865 17.0154 15.1844 18.1396 15.1709C19.2636 15.1702 20.3596 15.3629 21.3702 15.7203C22.3834 16.0728 23.2999 16.6168 24.0849 17.2616C24.8706 17.9083 25.5236 18.6585 26.0487 19.4299C26.5739 20.2025 26.9753 20.9946 27.2711 21.7509C27.5588 22.5116 27.7515 23.2295 27.8732 23.8714C27.9073 24.0309 27.9221 24.1889 27.9461 24.3389C27.9656 24.4897 27.9933 24.6334 28.0037 24.7734C28.0225 25.0535 28.0501 25.3088 28.0562 25.5394C28.0577 25.7698 28.059 25.9748 28.0603 26.1528C28.0574 26.3303 28.0415 26.48 28.0352 26.6012C28.0268 26.7207 28.0205 26.8123 28.016 26.8767C28.0113 26.9385 28.0074 26.9701 28.0074 26.9701Z" fill="#263238"/>
<path d="M21.0567 15.6478C21.0549 15.649 21.043 15.6311 21.0221 15.5957C20.9981 15.5529 20.969 15.5012 20.9339 15.4388C20.8591 15.3014 20.753 15.1009 20.6279 14.8492C20.5038 14.597 20.3558 14.2965 20.221 13.944C20.1894 13.8545 20.1558 13.764 20.1383 13.6595C20.1259 13.6055 20.1372 13.552 20.1457 13.4979C20.157 13.4467 20.1716 13.3982 20.1845 13.3474C20.2428 13.1493 20.3109 12.9485 20.3837 12.7444C20.6762 11.9282 20.968 11.2032 21.1803 10.6789C21.2871 10.4172 21.3751 10.2062 21.4374 10.0611C21.4666 9.99501 21.4908 9.94005 21.5108 9.89492C21.5281 9.85722 21.5383 9.83797 21.5402 9.8389C21.5421 9.83996 21.5358 9.86107 21.522 9.90063C21.505 9.94722 21.4843 10.0039 21.4592 10.0721C21.3989 10.23 21.3181 10.4417 21.2199 10.6987C21.018 11.2276 20.7325 11.9557 20.4409 12.7699C20.3683 12.9734 20.3 13.1733 20.2418 13.368C20.2178 13.4669 20.1791 13.5605 20.1964 13.6493C20.211 13.7408 20.2432 13.8325 20.2735 13.9197C20.4035 14.2683 20.5473 14.5714 20.6661 14.8257C20.7845 15.0716 20.8819 15.274 20.9545 15.4251C20.9856 15.4901 21.0114 15.544 21.0326 15.5885C21.0502 15.6263 21.0585 15.6467 21.0567 15.6478Z" fill="#263238"/>
<path d="M11.224 18.1991C11.2239 18.2182 9.32195 18.224 6.97638 18.2121C4.62998 18.2001 2.72852 18.175 2.72852 18.1559C2.72863 18.1368 4.63021 18.131 6.97661 18.1429C9.3223 18.1547 11.2241 18.18 11.224 18.1991Z" fill="#263238"/>
<path d="M55.5762 25.0392C55.5762 25.0583 49.4062 25.0735 41.7968 25.0731C34.1848 25.0727 28.0161 25.0569 28.0161 25.0378C28.0161 25.0186 34.1848 25.0035 41.7968 25.0039C49.4062 25.0043 55.5762 25.0202 55.5762 25.0392Z" fill="#263238"/>
<path d="M79.7028 25.1195C79.7028 25.1386 78.7578 25.154 77.5925 25.154C76.4267 25.154 75.4819 25.1385 75.4819 25.1195C75.4819 25.1004 76.4267 25.085 77.5925 25.085C78.7578 25.085 79.7028 25.1004 79.7028 25.1195Z" fill="#263238"/>
<path d="M74.4847 12.6172C74.4846 12.6184 74.4693 12.618 74.4394 12.6162C74.4065 12.6137 74.3628 12.6103 74.3071 12.606C74.1873 12.5952 74.0167 12.5798 73.7986 12.56C73.3571 12.5195 72.7188 12.4536 71.9306 12.3654C70.3543 12.1897 68.1794 11.9125 65.7853 11.5372C63.3907 11.1607 61.2313 10.7576 59.6723 10.4411C58.8928 10.2831 58.2629 10.15 57.8285 10.0531C57.614 10.0049 57.4462 9.96718 57.3284 9.94063C57.2738 9.92762 57.2308 9.9174 57.1987 9.9097C57.1695 9.9024 57.1547 9.89801 57.1548 9.89682C57.155 9.89563 57.1703 9.89762 57.1997 9.9028C57.2323 9.90877 57.2755 9.91687 57.3307 9.92695C57.4489 9.95045 57.6175 9.9839 57.8328 10.0267C58.2723 10.1139 58.9025 10.2388 59.6798 10.393C61.2401 10.697 63.3999 11.0924 65.7937 11.4687C68.1868 11.8438 70.3601 12.1286 71.935 12.3167C72.7201 12.4078 73.3568 12.4817 73.8008 12.5332C74.0184 12.5584 74.1886 12.5782 74.3081 12.592C74.3636 12.5992 74.4073 12.6048 74.4399 12.609C74.4697 12.6133 74.4848 12.616 74.4847 12.6172Z" fill="#263238"/>
<path d="M43.7732 13.4505C43.773 13.4467 43.8067 13.4472 43.8686 13.4347C43.9301 13.4228 44.0215 13.3952 44.1209 13.322C44.2188 13.2498 44.3245 13.126 44.3775 12.9472C44.405 12.858 44.4142 12.7593 44.4103 12.6507C44.4082 12.5451 44.3843 12.434 44.3359 12.3304C44.2402 12.1248 44.0306 11.9523 43.7832 11.9526C43.5295 11.9534 43.2589 11.9543 42.9743 11.9553C42.4037 11.9561 41.7776 11.957 41.1201 11.9581C40.9629 11.9581 40.8099 12.0265 40.6976 12.1427C40.5847 12.2581 40.5129 12.4184 40.497 12.5836C40.482 12.7528 40.5019 12.9188 40.5738 13.0591C40.643 13.1995 40.7558 13.3056 40.8807 13.3652C41.0071 13.4282 41.1434 13.4192 41.2797 13.4199C41.4147 13.4205 41.5457 13.4211 41.6726 13.4216C41.9256 13.4232 42.1616 13.4245 42.3778 13.4259C42.8042 13.4305 43.1513 13.4343 43.3988 13.437C43.5147 13.4398 43.6071 13.4419 43.6764 13.4436C43.7399 13.4458 43.7732 13.4482 43.7732 13.4505C43.7732 13.4529 43.7398 13.4553 43.6764 13.4576C43.6071 13.4592 43.5147 13.4614 43.3988 13.4641C43.1513 13.4667 42.8042 13.4706 42.3778 13.4752C42.1617 13.4766 41.9256 13.478 41.6726 13.4795C41.5459 13.48 41.4147 13.4807 41.2797 13.4812C41.2114 13.4803 41.1456 13.4844 41.0724 13.4794C41.0004 13.4735 40.9275 13.4568 40.8587 13.4247C40.7217 13.3605 40.5981 13.2452 40.5217 13.0919C40.4423 12.9403 40.42 12.752 40.436 12.5759C40.4529 12.3945 40.5316 12.218 40.6555 12.0911C40.7785 11.9632 40.9474 11.8876 41.12 11.8877C41.7774 11.8886 42.4037 11.8896 42.9742 11.8905C43.259 11.8918 43.53 11.8931 43.7839 11.8943C44.0516 11.897 44.2755 12.0859 44.3749 12.3073C44.4254 12.4188 44.4492 12.5379 44.4499 12.6499C44.4525 12.7591 44.4412 12.8678 44.4104 12.9599C44.3513 13.1473 44.2375 13.2736 44.1339 13.345C44.0287 13.4172 43.9335 13.4411 43.8703 13.4487C43.8067 13.4568 43.7732 13.4505 43.7732 13.4505Z" fill="#263238"/>
<path d="M43.5454 11.7196C43.5454 11.739 43.0747 11.7547 42.4942 11.7547C41.9135 11.7547 41.4429 11.739 41.4429 11.7196C41.4429 11.7002 41.9135 11.6846 42.4942 11.6846C43.0747 11.6846 43.5454 11.7002 43.5454 11.7196Z" fill="white"/>
<path d="M26.299 13.5656C26.2989 13.5618 26.3326 13.5623 26.3945 13.5498C26.456 13.5379 26.5474 13.5103 26.6468 13.4371C26.7447 13.3649 26.8504 13.2411 26.9034 13.0623C26.9308 12.9731 26.94 12.8744 26.9362 12.7658C26.934 12.6602 26.9103 12.5491 26.8618 12.4455C26.7661 12.2399 26.5564 12.0674 26.3091 12.0677C26.0554 12.0685 25.7848 12.0694 25.5002 12.0704C24.9296 12.0712 24.3034 12.0721 23.646 12.0732C23.4888 12.0732 23.3357 12.1416 23.2235 12.2578C23.1105 12.3733 23.0388 12.5335 23.0229 12.6987C23.0079 12.8679 23.0278 13.0339 23.0997 13.1742C23.1689 13.3146 23.2816 13.4207 23.4066 13.4802C23.533 13.5432 23.6693 13.5342 23.8056 13.5348C23.9406 13.5355 24.0716 13.536 24.1985 13.5366C24.4515 13.5382 24.6875 13.5395 24.9037 13.5408C25.33 13.5455 25.6772 13.5493 25.9247 13.552C26.0406 13.5548 26.1331 13.5569 26.2023 13.5586C26.2657 13.5609 26.299 13.5633 26.299 13.5656C26.299 13.568 26.2657 13.5704 26.2023 13.5727C26.1331 13.5743 26.0406 13.5765 25.9247 13.5793C25.6773 13.582 25.33 13.5858 24.9037 13.5905C24.6876 13.5918 24.4515 13.5933 24.1985 13.5947C24.0717 13.5952 23.9406 13.5959 23.8056 13.5964C23.7373 13.5955 23.6715 13.5996 23.5983 13.5946C23.5263 13.5887 23.4534 13.572 23.3846 13.5399C23.2476 13.4758 23.124 13.3604 23.0476 13.2071C22.9681 13.0556 22.9459 12.8673 22.9619 12.6911C22.9788 12.5098 23.0574 12.3332 23.1814 12.2063C23.3044 12.0785 23.4733 12.0028 23.6458 12.0029C24.3033 12.0039 24.9294 12.0048 25.5001 12.0057C25.7849 12.007 26.0559 12.0084 26.3098 12.0096C26.5775 12.0122 26.8013 12.2011 26.9008 12.4225C26.9514 12.5341 26.9751 12.6531 26.9758 12.7653C26.9784 12.8743 26.9669 12.9831 26.9363 13.0753C26.877 13.2627 26.7634 13.389 26.6598 13.4604C26.5546 13.5326 26.4594 13.5565 26.3961 13.5641C26.3326 13.5719 26.299 13.5656 26.299 13.5656Z" fill="#263238"/>
<path d="M26.0727 11.8339C26.0727 11.8533 25.602 11.8689 25.0215 11.8689C24.4408 11.8689 23.9702 11.8533 23.9702 11.8339C23.9702 11.8145 24.4408 11.7988 25.0215 11.7988C25.602 11.7987 26.0727 11.8145 26.0727 11.8339Z" fill="white"/>
<path d="M75.5857 27.2208C75.5857 27.2208 75.5838 27.1888 75.5831 27.1268C75.5827 27.0625 75.5823 26.9707 75.5817 26.8511C75.5797 26.73 75.5851 26.58 75.5776 26.4034C75.5666 26.2264 75.554 26.0228 75.5398 25.7936C75.5222 25.5648 75.4831 25.3124 75.4514 25.0351C75.4352 24.8964 75.4021 24.7549 75.3767 24.6059C75.3473 24.4579 75.325 24.3019 75.2867 24.1445C75.1424 23.5121 74.9318 22.8052 74.6296 22.0568C74.3189 21.3132 73.9099 20.5335 73.381 19.772C72.8524 19.0116 72.201 18.2708 71.4219 17.628C70.6433 16.9876 69.7384 16.4395 68.7348 16.0824C67.734 15.7196 66.6472 15.5202 65.5314 15.5125C64.4152 15.52 63.328 15.7192 62.3269 16.082C61.323 16.4391 60.4178 16.9871 59.6391 17.6275C58.8598 18.2704 58.2083 19.0111 57.6796 19.7716C57.1506 20.5331 56.7416 21.313 56.4308 22.0564C56.1286 22.8049 55.918 23.5117 55.7737 24.1441C55.7354 24.3015 55.7131 24.4575 55.6837 24.6054C55.6583 24.7544 55.625 24.8959 55.6089 25.0346C55.5771 25.3119 55.5382 25.5641 55.5206 25.793C55.5064 26.022 55.4936 26.2256 55.4827 26.4026C55.4753 26.5792 55.4806 26.7293 55.4787 26.8503C55.4781 26.9699 55.4777 27.0615 55.4773 27.1259C55.4766 27.188 55.4747 27.2199 55.4747 27.2199C55.4747 27.2199 55.4723 27.1882 55.471 27.126C55.47 27.0617 55.4684 26.9699 55.4663 26.8503C55.4663 26.7291 55.459 26.5788 55.4644 26.4018C55.4738 26.2243 55.4846 26.0201 55.4967 25.7905C55.5125 25.5608 55.5498 25.3076 55.58 25.0293C55.5953 24.89 55.6277 24.7478 55.6525 24.5984C55.6812 24.4497 55.7027 24.293 55.7403 24.1349C55.8819 23.4995 56.0904 22.789 56.3913 22.0361C56.7008 21.2881 57.1095 20.5033 57.6393 19.7366C58.1688 18.9709 58.8224 18.2244 59.6055 17.5762C60.3878 16.9304 61.2984 16.3778 62.3081 16.0176C63.315 15.6518 64.4086 15.4508 65.5313 15.4434C66.6535 15.4511 67.7468 15.6522 68.7533 16.018C69.7628 16.3782 70.673 16.9309 71.4554 17.5766C72.2382 18.2247 72.8917 18.9712 73.4212 19.7368C73.9511 20.5036 74.3597 21.2884 74.6691 22.0363C74.97 22.7893 75.1785 23.4999 75.3201 24.1353C75.3577 24.2934 75.3792 24.4502 75.4079 24.5989C75.4326 24.7485 75.4649 24.8907 75.4803 25.0299C75.5105 25.3083 75.5477 25.5616 75.5636 25.7912C75.5758 26.0209 75.5865 26.2252 75.5959 26.4027C75.6014 26.5799 75.594 26.73 75.594 26.8512C75.592 26.9709 75.5903 27.0627 75.5892 27.1271C75.5881 27.1891 75.5857 27.2208 75.5857 27.2208Z" fill="#263238"/>
<path d="M24.0065 1.31881C24.0065 1.32001 23.9885 1.32107 23.9534 1.32213C23.9156 1.32279 23.8639 1.32359 23.7976 1.32479C23.6577 1.32558 23.4565 1.32678 23.1988 1.32824C22.6758 1.32824 21.9242 1.32824 20.9967 1.32824C19.1348 1.32147 16.5672 1.31217 13.7314 1.30195C12.3125 1.29386 10.9609 1.28616 9.73119 1.27912C8.50199 1.26863 7.3939 1.27806 6.4644 1.21752C5.53478 1.1635 4.78694 1.04668 4.27612 0.935699C4.02066 0.880608 3.82338 0.830694 3.69091 0.791666C3.62681 0.772948 3.57678 0.758347 3.54012 0.747727C3.50629 0.737372 3.48902 0.731531 3.48926 0.730469C3.48926 0.730469 3.50724 0.732859 3.54165 0.740824C3.57856 0.74985 3.62906 0.762197 3.69375 0.778127C3.82693 0.812774 4.02468 0.858306 4.28038 0.909281C4.79155 1.0119 5.53832 1.12102 6.46652 1.16867C7.39449 1.22283 8.50163 1.20836 9.73107 1.2154C10.9609 1.22071 12.3124 1.22655 13.7313 1.23279C16.5671 1.25098 19.1345 1.26744 20.9966 1.27939C21.9241 1.28868 22.6758 1.29624 23.1988 1.30142C23.4564 1.30554 23.6576 1.30872 23.7976 1.31098C23.8639 1.3127 23.9156 1.31416 23.9534 1.31523C23.9885 1.31642 24.0065 1.31881 24.0065 1.31881Z" fill="#263238"/>
<path d="M32.3894 4.83329C32.3973 4.85015 31.1098 5.6246 29.5141 6.56287C27.9178 7.5014 26.6177 8.24825 26.6099 8.23139C26.602 8.21453 27.8892 7.44021 29.4856 6.50167C31.0812 5.5634 32.3815 4.81643 32.3894 4.83329Z" fill="#FAFAFA"/>
<path d="M35.0833 4.23074C35.0843 4.23286 35.0629 4.2476 35.0212 4.27362C34.9736 4.30242 34.9128 4.33906 34.838 4.38433C34.6709 4.48269 34.4412 4.61797 34.1605 4.78324C33.5881 5.11949 32.799 5.58703 31.9334 6.11577C31.0676 6.64504 30.2894 7.13515 29.7272 7.49224C29.4511 7.6672 29.2252 7.81031 29.0609 7.91451C28.9865 7.96044 28.9261 7.99788 28.8787 8.02709C28.8367 8.05217 28.8141 8.06439 28.813 8.06226C28.812 8.06014 28.8324 8.04394 28.8724 8.015C28.9183 7.98275 28.9768 7.94173 29.0489 7.89115C29.2027 7.78469 29.427 7.63375 29.7054 7.44976C30.2622 7.08165 31.0376 6.5845 31.904 6.05484C32.7701 5.5257 33.563 5.06467 34.1406 4.73943C34.4294 4.57668 34.6641 4.44725 34.8273 4.3599C34.9043 4.31941 34.9667 4.28662 35.0158 4.26074C35.0591 4.2391 35.0823 4.22861 35.0833 4.23074Z" fill="#FAFAFA"/>
<path d="M46.7765 5.32852C46.7773 5.33078 46.76 5.3414 46.7263 5.35972C46.6859 5.3807 46.6369 5.40605 46.5778 5.43671C46.4393 5.50614 46.2539 5.5992 46.029 5.71217C45.5656 5.94474 44.9278 6.27117 44.2305 6.64897C43.5332 7.02731 42.9087 7.3852 42.4585 7.64791C42.2398 7.77548 42.0597 7.88062 41.9251 7.95921C41.867 7.99213 41.8188 8.01934 41.7791 8.04191C41.7454 8.06009 41.7272 8.06872 41.7261 8.0666C41.7251 8.06447 41.7413 8.05186 41.7731 8.02969C41.8114 8.00407 41.8578 7.97301 41.9136 7.93557C42.0361 7.85486 42.2152 7.74176 42.438 7.60476C42.8834 7.33064 43.5055 6.96545 44.2038 6.58672C44.902 6.20852 45.5435 5.88859 46.0117 5.6673C46.2458 5.55659 46.4361 5.4695 46.5687 5.41189C46.6294 5.386 46.68 5.36463 46.7217 5.34684C46.7567 5.33277 46.7756 5.3264 46.7765 5.32852Z" fill="#FAFAFA"/>
<path d="M45.0932 5.14437C45.0968 5.1538 44.9658 5.22363 44.7558 5.33912C44.5457 5.45448 44.2576 5.61802 43.9462 5.8129C43.6349 6.00817 43.3597 6.1976 43.1618 6.33765C42.964 6.47757 42.8423 6.56598 42.8371 6.55775C42.8324 6.55045 42.9454 6.44797 43.1378 6.29703C43.3301 6.14596 43.6032 5.94883 43.9162 5.75263C44.2291 5.55669 44.5221 5.39938 44.7374 5.29491C44.9531 5.19017 45.0901 5.13614 45.0932 5.14437Z" fill="#FAFAFA"/>
<path d="M18.6979 5.07095C18.704 5.08874 17.8516 5.47292 16.7944 5.92891C15.7368 6.38503 14.8747 6.74013 14.8687 6.72235C14.8627 6.70456 15.7147 6.32052 16.7724 5.86439C17.8295 5.4084 18.6917 5.05316 18.6979 5.07095Z" fill="#FAFAFA"/>
<path d="M17.6004 4.67071C17.6062 4.68863 16.8709 5.0063 15.9583 5.38012C15.0454 5.75407 14.3008 6.04254 14.295 6.02462C14.2892 6.00669 15.0242 5.68916 15.9373 5.31508C16.8498 4.94139 17.5945 4.65279 17.6004 4.67071Z" fill="#FAFAFA"/>
<path d="M67.4504 15.1094C67.45 15.1118 67.4166 15.1095 67.3535 15.1033C67.2848 15.0956 67.1929 15.0852 67.0776 15.0724C67.0171 15.0651 66.9508 15.0571 66.8785 15.0483C66.8057 15.0414 66.7261 15.0381 66.6408 15.0321C66.4701 15.023 66.2763 15.0024 66.0611 15.006C65.9535 15.0051 65.8409 15.0041 65.7238 15.0031C65.6065 15.0027 65.4847 15.0132 65.3584 15.0178C65.1055 15.0235 64.837 15.0572 64.5542 15.0864C63.9903 15.1628 63.3743 15.2857 62.7411 15.4774C62.1093 15.6757 61.5236 15.9233 61.0041 16.1811C60.7476 16.3182 60.5014 16.4431 60.2814 16.5832C60.1707 16.6515 60.0612 16.7125 59.9605 16.78C59.8602 16.8481 59.764 16.9135 59.6718 16.976C59.4852 17.0962 59.3279 17.225 59.1855 17.3308C59.115 17.3848 59.0481 17.4332 58.9886 17.481C58.9305 17.5298 58.877 17.5748 58.8284 17.6157C58.7352 17.693 58.661 17.7544 58.6054 17.8005C58.5539 17.8422 58.5263 17.8631 58.525 17.8613C58.5236 17.8594 58.5487 17.8349 58.5977 17.7896C58.6515 17.741 58.7235 17.676 58.814 17.5943C58.8618 17.5518 58.9142 17.5051 58.9713 17.4544C59.03 17.4049 59.0961 17.3548 59.1659 17.2991C59.307 17.19 59.4631 17.0579 59.6489 16.9344C59.7407 16.8704 59.8367 16.8035 59.9366 16.7338C60.0371 16.6648 60.1465 16.6024 60.2572 16.5327C60.477 16.3898 60.7235 16.2623 60.9806 16.1229C61.5014 15.8606 62.0897 15.6099 62.7248 15.4106C63.3613 15.2179 63.981 15.0961 64.548 15.023C64.8324 14.9954 65.1023 14.9636 65.3563 14.9603C65.4832 14.9569 65.6057 14.9477 65.7235 14.9494C65.8411 14.952 65.9541 14.9545 66.0622 14.9569C66.2782 14.9565 66.4725 14.9804 66.6434 14.9932C66.7288 15.0011 66.8084 15.0062 66.8813 15.0151C66.9536 15.026 67.02 15.0361 67.0803 15.0453C67.1952 15.0636 67.2868 15.0782 67.3551 15.0892C67.4179 15.1002 67.4507 15.107 67.4504 15.1094Z" fill="#FAFAFA"/>
<path d="M18.4395 14.7519C18.4393 14.7543 18.413 14.7563 18.3629 14.7577C18.3064 14.7587 18.2339 14.7597 18.1441 14.7612C18.0492 14.7605 17.933 14.7621 17.7984 14.7717C17.6638 14.7798 17.5102 14.7831 17.3414 14.8042C17.2567 14.8128 17.1683 14.8218 17.0763 14.8311C16.9842 14.8419 16.889 14.8587 16.79 14.873C16.5918 14.8983 16.3827 14.9452 16.1618 14.9883C15.7223 15.088 15.2435 15.2225 14.7508 15.4002C14.2588 15.5813 13.8007 15.7883 13.3907 15.9926C12.9825 16.2016 12.6215 16.4063 12.3251 16.5924C12.1749 16.6814 12.044 16.7715 11.927 16.8472C11.8097 16.9221 11.7107 16.9904 11.6303 17.0471C11.5535 17.0994 11.4914 17.1418 11.4432 17.1747C11.4 17.2032 11.3767 17.2173 11.3755 17.2153C11.3744 17.2133 11.3953 17.1954 11.4363 17.1631C11.483 17.1274 11.5431 17.0814 11.6174 17.0245C11.6959 16.9643 11.7933 16.8925 11.9092 16.8141C12.0246 16.7352 12.1544 16.6418 12.3037 16.5498C12.5982 16.3577 12.9585 16.1477 13.3671 15.9345C13.7775 15.7263 14.2371 15.5164 14.7316 15.3345C15.2268 15.1558 15.7087 15.0224 16.151 14.9258C16.3734 14.8841 16.5838 14.8392 16.7833 14.8161C16.8828 14.8031 16.9787 14.7875 17.0713 14.778C17.1639 14.7702 17.2528 14.7626 17.338 14.7553C17.5077 14.7374 17.6621 14.7375 17.7972 14.733C17.9325 14.7271 18.049 14.7295 18.1442 14.7342C18.2341 14.7382 18.3068 14.7414 18.3633 14.7438C18.4133 14.7468 18.4396 14.7496 18.4395 14.7519Z" fill="#FAFAFA"/>
<path d="M35.635 2.02321L25.043 2.51465L25.314 9.87424L35.906 9.38281L35.635 2.02321Z" fill="#E0E0E0"/>
<path d="M25.2581 9.94611L24.9824 2.45364L35.6931 1.95703L35.9688 9.4495L25.2581 9.94611ZM25.1054 2.58082L25.3715 9.80805L35.846 9.32233L35.5798 2.09509L25.1054 2.58082Z" fill="#263238"/>
<path d="M26.2966 4.73487L26.7764 4.71256L26.7907 5.10112L26.3109 5.12329L26.3523 6.24634L25.9805 6.2636L25.8804 3.54358L26.8637 3.49805L26.878 3.8866L26.2664 3.91488L26.2966 4.73487Z" fill="#E8505B"/>
<path d="M27.0361 4.14438C27.0201 3.70923 27.2103 3.4513 27.5752 3.43444C27.9402 3.41745 28.1487 3.65693 28.1646 4.09208L28.2167 5.50651C28.2326 5.94166 28.0425 6.1996 27.6775 6.21659C27.3126 6.23345 27.1041 5.9941 27.0881 5.55882L27.0361 4.14438ZM27.4609 5.56877C27.4681 5.76312 27.5451 5.83348 27.6634 5.82803C27.7817 5.82246 27.8532 5.74533 27.8461 5.55099L27.7921 4.08212C27.7849 3.88791 27.7079 3.81742 27.5896 3.823C27.4714 3.82844 27.3998 3.90583 27.4069 4.09991L27.4609 5.56877Z" fill="#E8505B"/>
<path d="M29.2591 6.11046C29.2362 6.04143 29.2211 5.99922 29.2129 5.77779L29.1972 5.35034C29.1879 5.09772 29.1102 5.00798 28.9413 5.01581L28.8128 5.02179L28.8536 6.12931L28.482 6.14657L28.3818 3.42655L28.9428 3.40053C29.328 3.38261 29.5012 3.5808 29.5167 4.00055L29.5245 4.21428C29.5348 4.49398 29.4638 4.68023 29.3014 4.77726C29.4906 4.85811 29.559 5.06108 29.5694 5.3449L29.5848 5.76452C29.5896 5.8966 29.5966 5.99364 29.6375 6.09294L29.2591 6.11046ZM28.7676 3.79771L28.7984 4.63323L28.9437 4.62646C29.0822 4.62009 29.1642 4.54615 29.1562 4.32844L29.1463 4.06029C29.1391 3.86595 29.0786 3.78324 28.9468 3.78922L28.7676 3.79771Z" fill="#E8505B"/>
<path d="M30.7622 3.28598C31.1237 3.26925 31.3187 3.50926 31.3347 3.94441L31.3379 4.03003L30.9864 4.04636L30.9823 3.93352C30.9752 3.73931 30.9048 3.66856 30.7865 3.674C30.6682 3.67944 30.6034 3.75657 30.6105 3.95078C30.6311 4.51045 31.3614 4.5816 31.3901 5.35871C31.406 5.79386 31.226 6.05126 30.861 6.06825C30.496 6.08511 30.2977 5.84537 30.2817 5.41009L30.2756 5.24296L30.627 5.22663L30.6341 5.42097C30.6413 5.61532 30.7182 5.68169 30.8364 5.67625C30.9547 5.6708 31.0265 5.59753 31.0193 5.40318C30.9987 4.84352 30.2683 4.77236 30.2397 3.99512C30.2239 3.55997 30.4006 3.3027 30.7622 3.28598Z" fill="#E8505B"/>
<path d="M32.8312 5.94371L32.4561 5.9611L32.3738 5.47059L31.9176 5.4917L31.8716 5.98818L31.5303 6.00411L31.8087 3.26643L32.3527 3.24121L32.8312 5.94371ZM31.9512 5.12027L32.3093 5.10354L32.0796 3.73636L31.9512 5.12027Z" fill="#E8505B"/>
<path d="M32.9028 3.21648L33.2744 3.19922L33.3602 5.53068L33.9718 5.50228L33.9861 5.89096L33.0029 5.93663L32.9028 3.21648Z" fill="#E8505B"/>
<path d="M34.4617 4.29308L34.972 4.26945L34.9863 4.658L34.476 4.68163L34.5053 5.47826L35.1474 5.44852L35.1617 5.83721L34.148 5.8842L34.0479 3.16418L35.0616 3.11719L35.0759 3.50574L34.4338 3.53548L34.4617 4.29308Z" fill="#E8505B"/>
<path d="M34.5571 8.37547L26.5979 8.74451C26.2325 8.7615 25.924 8.44264 25.9089 8.03245L25.901 7.81594C25.8858 7.40574 26.1699 7.05953 26.5354 7.04254L34.4945 6.6735C34.86 6.65651 35.1684 6.97537 35.1836 7.38556L35.1915 7.60208C35.2065 8.01227 34.9225 8.35848 34.5571 8.37547Z" fill="#FAFAFA"/>
<path d="M27.7094 8.36419C27.7076 8.36286 27.714 8.34932 27.7281 8.32463C27.7428 8.3006 27.7663 8.26609 27.8025 8.22773C27.8733 8.15153 28.0003 8.05568 28.1807 8.02966C28.2699 8.01732 28.372 8.02329 28.4732 8.06697C28.5726 8.10799 28.6768 8.20768 28.6987 8.35185C28.7211 8.4907 28.678 8.64721 28.5746 8.75023C28.4709 8.85204 28.321 8.88603 28.183 8.85457C28.0424 8.82403 27.9252 8.72606 27.8443 8.6119C27.7623 8.49667 27.712 8.36379 27.6861 8.23357C27.634 7.97112 27.6801 7.72156 27.7638 7.545C27.8473 7.36605 27.9584 7.25508 28.039 7.19229C28.0795 7.16016 28.1138 7.14051 28.137 7.12764C28.1607 7.11582 28.1736 7.11065 28.1746 7.11277C28.1772 7.11808 28.1285 7.14556 28.0535 7.21379C27.9793 7.28149 27.8774 7.39393 27.8027 7.5669C27.728 7.73722 27.6894 7.97365 27.7414 8.2191C27.7671 8.34096 27.8154 8.46415 27.8912 8.56929C27.9663 8.67376 28.0717 8.76005 28.1949 8.7866C28.3171 8.81461 28.4479 8.78381 28.5351 8.69885C28.6215 8.61495 28.6608 8.47889 28.6428 8.36313C28.6261 8.24485 28.5434 8.16056 28.4539 8.12007C28.3638 8.07852 28.269 8.06949 28.1854 8.07825C28.0159 8.09644 27.8912 8.18047 27.8183 8.24804C27.7438 8.31627 27.7142 8.36831 27.7094 8.36419Z" fill="#263238"/>
<path d="M29.0532 8.61499C29.0554 8.60902 29.0981 8.63344 29.1801 8.64433C29.2607 8.65296 29.3867 8.64088 29.508 8.54928C29.5667 8.50269 29.6235 8.43724 29.6565 8.35095C29.6893 8.26546 29.7005 8.15993 29.6749 8.06023C29.6503 7.96014 29.5796 7.87558 29.484 7.83708C29.3887 7.79713 29.2782 7.79872 29.1721 7.83323C29.0735 7.86456 28.982 7.91726 28.8943 7.97023L28.8627 7.91235C29.014 7.79567 29.0877 7.59296 29.0782 7.42065C29.0741 7.33649 29.0442 7.25379 28.9905 7.22179C28.9365 7.1894 28.8695 7.21091 28.8151 7.23295C28.5913 7.33038 28.5106 7.48623 28.5032 7.47508C28.5006 7.47309 28.5175 7.43552 28.5629 7.37831C28.6083 7.32215 28.6849 7.24609 28.8008 7.19153C28.8561 7.16737 28.9316 7.13312 29.0119 7.17493C29.0898 7.22007 29.1239 7.32082 29.1311 7.4164C29.1452 7.60876 29.0673 7.8343 28.897 7.96824L28.8655 7.91036C28.9538 7.85633 29.0487 7.80058 29.1555 7.76659C29.2703 7.72916 29.3963 7.7265 29.5054 7.7735C29.6157 7.8177 29.7031 7.92417 29.7295 8.04245C29.7578 8.15993 29.7424 8.27821 29.7032 8.37419C29.6633 8.47122 29.5978 8.54185 29.532 8.5899C29.3963 8.68442 29.2606 8.68814 29.1767 8.67075C29.1342 8.66079 29.1025 8.64765 29.0822 8.6361C29.062 8.62428 29.0522 8.61711 29.0532 8.61499Z" fill="#263238"/>
<path d="M30.2275 8.49927C30.219 8.49927 30.2115 8.35789 30.2062 8.1293C30.201 7.90071 30.1979 7.58503 30.1984 7.2363C30.1986 7.16661 30.1989 7.09824 30.1991 7.03253L30.2598 7.03492C30.2394 7.34144 30.1516 7.59844 30.0689 7.76557C29.9861 7.93403 29.9145 8.01885 29.9098 8.0146C29.9024 8.00863 29.9619 7.91504 30.0331 7.74526C30.1042 7.57653 30.1817 7.32551 30.199 7.03027L30.2597 7.03266C30.2597 7.09837 30.2598 7.16674 30.2598 7.23643C30.2593 7.58516 30.2554 7.90084 30.2495 8.12943C30.2439 8.35789 30.236 8.49927 30.2275 8.49927Z" fill="#263238"/>
<path d="M30.5823 7.86892C30.566 7.86932 30.5512 7.656 30.5872 7.3966C30.6224 7.13708 30.6937 6.93862 30.7091 6.94446C30.726 6.95044 30.6823 7.15367 30.6481 7.40709C30.6129 7.66038 30.6 7.86892 30.5823 7.86892Z" fill="#263238"/>
<path d="M31.0946 7.80592C31.0953 7.82504 30.9679 7.84641 30.81 7.85371C30.6521 7.86101 30.5237 7.85145 30.523 7.83247C30.5222 7.81335 30.6496 7.79198 30.8075 7.78468C30.9654 7.77738 31.0939 7.78694 31.0946 7.80592Z" fill="#263238"/>
<path d="M31.1367 8.76671C31.1287 8.76777 31.109 8.66569 31.0906 8.49829C31.072 8.33103 31.0563 8.09832 31.0552 7.84079C31.0543 7.58326 31.0681 7.35028 31.0854 7.18289C31.1025 7.01536 31.1212 6.91301 31.1294 6.91407C31.1475 6.91633 31.114 7.32984 31.1168 7.84052C31.118 8.35108 31.1548 8.76419 31.1367 8.76671Z" fill="#263238"/>
<path d="M31.594 8.33257C31.5945 8.32753 31.6367 8.33018 31.712 8.33417C31.7861 8.33576 31.8991 8.34532 32.0194 8.29049C32.0775 8.26262 32.1357 8.2123 32.1745 8.14221C32.2142 8.07332 32.2265 7.9796 32.1875 7.90141C32.1495 7.82335 32.0691 7.76614 31.9817 7.74822C31.892 7.73003 31.7945 7.74768 31.6963 7.77636C31.6815 7.78074 31.6668 7.78525 31.6532 7.78937L31.3696 7.87472L31.6311 7.72525C31.7189 7.67507 31.7993 7.6148 31.8707 7.54843C31.9065 7.51524 31.9398 7.48033 31.971 7.44462C32.002 7.40838 32.0331 7.37307 32.0452 7.33696C32.0581 7.30191 32.0483 7.26594 32.0244 7.23833C32.0013 7.21085 31.9679 7.19744 31.9331 7.19253C31.8624 7.1843 31.7909 7.19863 31.7311 7.21841C31.6092 7.26036 31.5248 7.33377 31.4736 7.38913C31.422 7.44542 31.3997 7.48365 31.3954 7.48046C31.3927 7.47873 31.4082 7.43533 31.4566 7.37094C31.5046 7.30775 31.589 7.22372 31.7178 7.17248C31.7824 7.14832 31.8551 7.12947 31.9388 7.13611C31.9799 7.14036 32.0275 7.15629 32.0626 7.19585C32.0982 7.23156 32.1192 7.30112 32.0982 7.35873C32.079 7.41515 32.044 7.45192 32.0134 7.48988C31.9812 7.52785 31.9467 7.56476 31.9095 7.59993C31.8354 7.67029 31.7514 7.73401 31.6594 7.78671L31.6372 7.72259C31.6511 7.71835 31.6661 7.71383 31.6813 7.70932C31.7824 7.67985 31.8893 7.6598 31.9929 7.68157C32.0961 7.70427 32.1901 7.77091 32.2379 7.87141C32.2871 7.97322 32.2666 8.09522 32.2179 8.17301C32.1701 8.25385 32.103 8.30709 32.036 8.33589C31.9002 8.38992 31.7848 8.37041 31.7101 8.36098C31.6342 8.34877 31.5935 8.33709 31.594 8.33257Z" fill="#263238"/>
<path d="M32.8171 8.98937C32.8087 8.98765 32.8251 8.83326 32.8586 8.58489C32.892 8.33651 32.9424 7.99442 33.0016 7.61715C33.0319 7.42984 33.0607 7.25156 33.0876 7.08576C33.0961 7.04434 33.0971 7.01022 33.0846 7.00345C33.0725 6.99164 33.0354 6.99721 33.003 7.00066C32.939 7.0069 32.8784 7.01288 32.8208 7.01859C32.5978 7.03943 32.4594 7.04753 32.4585 7.03797C32.4576 7.02854 32.5943 7.00319 32.816 6.97C32.8734 6.96164 32.9338 6.95287 32.9975 6.94371C33.0287 6.94292 33.065 6.92288 33.1153 6.95341C33.1394 6.97066 33.1494 7.00491 33.1496 7.02934C33.1505 7.05483 33.1461 7.07713 33.1434 7.09691C33.1181 7.26298 33.0908 7.44166 33.0622 7.62923C33.0028 8.0065 32.9458 8.34727 32.9014 8.59352C32.8571 8.8395 32.8255 8.99096 32.8171 8.98937Z" fill="#263238"/>
<path d="M33.566 7.88765C33.5673 7.90663 33.3402 7.94221 33.0589 7.96717C32.7774 7.99199 32.5482 7.99677 32.5469 7.97765C32.5456 7.95867 32.7725 7.92309 33.054 7.89814C33.3354 7.87331 33.5647 7.86867 33.566 7.88765Z" fill="#263238"/>
<path d="M34.671 8.07759C34.6729 8.08516 34.5631 8.1283 34.3763 8.19481C34.1894 8.26145 33.9255 8.35145 33.6193 8.45287L33.5449 8.47756L33.5863 8.40296C33.6568 8.27578 33.7324 8.13958 33.8107 7.99847C33.8667 7.89838 33.9215 7.80081 33.9746 7.70616C34.0269 7.61124 34.0833 7.52257 34.1174 7.43283C34.1531 7.34402 34.1635 7.24871 34.1247 7.18101C34.088 7.11291 34.0141 7.08543 33.9513 7.08516C33.8204 7.08569 33.7345 7.18605 33.6845 7.24472C33.6334 7.30831 33.6086 7.348 33.6045 7.34495C33.6016 7.34283 33.6192 7.29849 33.666 7.2276C33.6897 7.19255 33.7217 7.151 33.7675 7.11211C33.8125 7.07388 33.8757 7.03857 33.9507 7.03631C34.0229 7.03366 34.1148 7.06034 34.1679 7.15034C34.2218 7.23995 34.207 7.36194 34.1698 7.45765C34.133 7.55801 34.0776 7.64629 34.0262 7.7416C33.9733 7.83678 33.9188 7.93475 33.863 8.03538C33.7838 8.17636 33.7074 8.31229 33.636 8.43933L33.603 8.38942C33.9103 8.29198 34.1763 8.21034 34.366 8.15498C34.5557 8.09923 34.6691 8.07002 34.671 8.07759Z" fill="#263238"/>
<path d="M26.6159 7.40723C26.6042 7.40855 26.4426 7.40603 26.4026 7.59958C26.3627 7.79326 26.5203 8.33102 26.7944 8.48183C26.7944 8.48183 26.9312 8.51422 26.9909 8.40563L26.9955 8.39182L26.9029 8.15128L26.7768 8.20146C26.7768 8.20146 26.5506 7.94194 26.6041 7.76658C26.6041 7.76658 26.6959 7.67671 26.7048 7.68361C26.7137 7.69078 26.6159 7.40723 26.6159 7.40723Z" fill="#263238"/>
<path d="M27.0345 8.10902C27.0184 8.10278 27.0692 7.96618 27.0103 7.81883C26.9517 7.67122 26.8271 7.62276 26.8338 7.60511C26.8355 7.59661 26.8701 7.59528 26.9197 7.6209C26.9687 7.64573 27.0314 7.70254 27.0665 7.79055C27.1015 7.87857 27.0975 7.96897 27.0813 8.02645C27.0652 8.08526 27.0412 8.11327 27.0345 8.10902Z" fill="#263238"/>
<path d="M27.1987 8.24836C27.1903 8.24278 27.215 8.19061 27.2297 8.10114C27.2448 8.01299 27.2446 7.88303 27.1921 7.76077C27.1391 7.63877 27.0483 7.55806 26.9772 7.51678C26.9056 7.4743 26.8537 7.46368 26.855 7.45293C26.8552 7.44496 26.9113 7.43766 26.995 7.47217C27.0774 7.50523 27.1863 7.58966 27.2475 7.73064C27.3082 7.87188 27.2998 8.02003 27.272 8.11309C27.2442 8.20813 27.2044 8.253 27.1987 8.24836Z" fill="#263238"/>
<path d="M26.1082 1.81152H25.3955V2.98675H26.1082V1.81152Z" fill="#FAFAFA"/>
<path d="M35.4402 1.77441H34.7275V2.33488H35.4402V1.77441Z" fill="#FAFAFA"/>
</svg>
