<svg width="31" height="30" viewBox="0 0 31 30" fill="none" xmlns="http://www.w3.org/2000/svg">
<path opacity="0.4" d="M24.7645 8.4375H28.2506V18.4375H25.0169C24.999 18.0076 24.827 17.5828 24.5006 17.2544L17.0006 9.70983H15.7506L14.2079 11.2618C13.3071 12.1679 11.8731 12.2478 10.8783 11.4473C10.6092 11.2307 10.4747 11.1224 10.3867 11.0106C10.0608 10.5963 10.0298 10.022 10.3093 9.57502C10.3847 9.45445 10.5069 9.33229 10.7511 9.08805L11.7049 8.1342C12.7888 7.05034 13.3308 6.5084 14.0199 6.22295C14.709 5.9375 15.697 5.9375 17.2298 5.9375C18.3569 5.9375 18.9205 5.9375 19.4519 6.0984C19.9834 6.25931 21.0531 6.97255 21.991 7.59775C22.6163 8.01456 22.9287 8.22296 23.2831 8.33024C23.6374 8.4375 24.0131 8.4375 24.7645 8.4375Z" fill="#656565"/>
<path d="M28.25 8.4375H24.7639C24.0125 8.4375 23.6367 8.4375 23.2825 8.33022C22.9282 8.22296 22.6156 8.01456 21.9904 7.59775C21.0526 6.97254 19.9828 6.25931 19.4513 6.0984C18.9199 5.9375 18.3563 5.9375 17.2291 5.9375C15.6964 5.9375 14.7084 5.9375 14.0193 6.22295C13.3301 6.5084 12.7882 7.05034 11.7043 8.1342L10.7505 9.08805C10.5062 9.33231 10.3841 9.45445 10.3087 9.57502C10.0292 10.022 10.0602 10.5963 10.3861 11.0106C10.474 11.1224 10.6086 11.2307 10.8777 11.4473C11.8724 12.2478 13.3065 12.1679 14.2073 11.2618L15.75 9.70982H17L24.5 17.2545C25.1904 17.949 25.1904 19.0748 24.5 19.7693C23.8096 20.4638 22.6904 20.4638 22 19.7693L21.375 19.1406M21.375 19.1406L17.625 15.3683M21.375 19.1406C22.0654 19.8351 22.0654 20.9611 21.375 21.6555C20.6846 22.35 19.5654 22.35 18.875 21.6555L17.625 20.3981M17.625 20.3981C18.3154 21.0925 18.3154 22.2185 17.625 22.913C16.9346 23.6073 15.8154 23.6073 15.125 22.913L13.25 21.0267M17.625 20.3981L15.125 17.8981M13.25 21.0267L12.625 20.3981M13.25 21.0267C13.9404 21.7212 13.9404 22.8472 13.25 23.5417C12.5596 24.2361 11.4404 24.2361 10.75 23.5417L7.22046 19.9386C6.49519 19.1982 6.13255 18.8281 5.66794 18.6327C5.20333 18.4375 4.6851 18.4375 3.64867 18.4375H3.25" stroke="#656565" stroke-linecap="round" stroke-linejoin="round"/>
<path d="M28.25 18.4375H25.125" stroke="#656565" stroke-linecap="round"/>
<path d="M11.375 8.4375H3.25" stroke="#656565" stroke-linecap="round"/>
</svg>
