<svg width="20" height="21" viewBox="0 0 20 21" fill="none" xmlns="http://www.w3.org/2000/svg">
<path opacity="0.4" d="M13.3337 7.99935C13.3337 4.77769 10.722 2.16602 7.50033 2.16602C4.27867 2.16602 1.66699 4.77769 1.66699 7.99935C1.66699 11.221 4.27867 13.8327 7.50033 13.8327C10.722 13.8327 13.3337 11.221 13.3337 7.99935Z" fill="#2D7CD0"/>
<path d="M11.667 12.166L13.7503 14.2493" stroke="#2D7CD0" stroke-width="1.25" stroke-linejoin="round"/>
<path d="M13.6941 15.9383C13.2127 15.4569 13.2127 14.6764 13.6941 14.195C14.1754 13.7136 14.9559 13.7136 15.4373 14.195L17.9719 16.7296C18.4533 17.211 18.4533 17.9915 17.9719 18.4729C17.4906 18.9543 16.7101 18.9543 16.2287 18.4729L13.6941 15.9383Z" stroke="#2D7CD0" stroke-width="1.25" stroke-linecap="round"/>
<path d="M13.3337 7.99935C13.3337 4.77769 10.722 2.16602 7.50033 2.16602C4.27867 2.16602 1.66699 4.77769 1.66699 7.99935C1.66699 11.221 4.27867 13.8327 7.50033 13.8327C10.722 13.8327 13.3337 11.221 13.3337 7.99935Z" stroke="#2D7CD0" stroke-width="1.25" stroke-linejoin="round"/>
</svg>
