<svg width="31" height="31" viewBox="0 0 31 31" fill="none" xmlns="http://www.w3.org/2000/svg">
<path opacity="0.4" d="M26.9882 22.0619C26.9882 23.6748 24.5562 24.6337 19.6921 26.5514C17.738 27.3218 16.761 27.707 15.7382 27.707C14.7155 27.707 13.7385 27.3218 11.7844 26.5514C6.92033 24.6337 4.48828 23.6748 4.48828 22.0619V10.207L15.7382 15.2877L26.9882 10.207V22.0619Z" fill="#FDFDFD"/>
<path d="M15.7382 27.707C14.7155 27.707 13.7385 27.2955 11.7844 26.4724C6.92033 24.4238 4.48828 23.3994 4.48828 21.6763V9.63496M15.7382 27.707C16.761 27.707 17.738 27.2955 19.6921 26.4724C24.5562 24.4238 26.9882 23.3994 26.9882 21.6763V9.63496M15.7382 27.707V15.2435M4.48828 9.63496C4.48828 10.4005 5.49024 10.8839 7.49418 11.8508L11.1457 13.6125C13.3992 14.6999 14.5261 15.2435 15.7382 15.2435M4.48828 9.63496C4.48828 8.86941 5.49024 8.38599 7.49418 7.41914L9.48828 6.45703M26.9882 9.63496C26.9882 10.4005 25.9862 10.8839 23.9824 11.8508L20.3309 13.6125C18.0772 14.6999 16.9504 15.2435 15.7382 15.2435M26.9882 9.63496C26.9882 8.86941 25.9862 8.38598 23.9824 7.41914L22.044 6.48392M8.23828 16.4899L10.7383 17.7363" stroke="#FDFDFD" stroke-width="2" stroke-linecap="round" stroke-linejoin="round"/>
<path d="M15.7337 11.457V2.70709M15.7337 2.70709C15.4048 2.70264 15.0804 2.93238 14.841 3.21286L13.2383 5.12986M15.7337 2.70709C16.0509 2.71138 16.3722 2.93993 16.6262 3.21286L18.2383 5.12986" stroke="#FDFDFD" stroke-width="2" stroke-linecap="round"/>
</svg>
