<svg xmlns="http://www.w3.org/2000/svg" width="24" height="24" viewBox="0 0 24 24"><path fill="#2D7DD2" d="m4.78 17.116l1.766 1.765q.14.14.14.334t-.14.335t-.344.14t-.344-.14l-2.389-2.37q-.242-.242-.242-.565t.242-.565l2.389-2.389q.14-.14.344-.14t.344.14t.14.345t-.14.344l-1.765 1.766h14.438l-1.765-1.766q-.14-.14-.14-.334q0-.195.14-.335t.344-.14t.344.14l2.389 2.369q.242.242.242.566t-.242.565l-2.389 2.388q-.14.14-.334.131t-.335-.15t-.14-.344t.14-.344l1.746-1.746zM2.77 10.5v-.171q0-.427.247-.764q.248-.336.67-.528q.592-.276 1.241-.406q.649-.131 1.341-.131t1.341.13t1.242.407q.421.192.67.528q.247.337.247.764v.171zm11.46 0v-.171q0-.427.249-.764q.248-.336.669-.528q.593-.276 1.242-.406t1.34-.131t1.342.13q.65.132 1.241.407q.421.192.67.528q.248.337.248.764v.171zM6.27 6.885q-.633 0-1.067-.434t-.434-1.066t.434-1.067t1.066-.433t1.067.433q.433.434.433 1.067q0 .632-.433 1.066q-.434.434-1.067.434m11.462 0q-.633 0-1.067-.434t-.433-1.066t.433-1.067t1.067-.433t1.066.433t.434 1.067t-.434 1.066t-1.066.434"/></svg>