<svg width="20" height="21" viewBox="0 0 20 21" fill="none" xmlns="http://www.w3.org/2000/svg">
<path opacity="0.4" d="M10.0003 9.66667C11.8413 9.66667 13.3337 8.17428 13.3337 6.33333C13.3337 4.49238 11.8413 3 10.0003 3C8.15938 3 6.66699 4.49238 6.66699 6.33333C6.66699 8.17428 8.15938 9.66667 10.0003 9.66667Z" fill="#15B300"/>
<path d="M10.0003 9.66667C11.8413 9.66667 13.3337 8.17428 13.3337 6.33333C13.3337 4.49238 11.8413 3 10.0003 3C8.15938 3 6.66699 4.49238 6.66699 6.33333C6.66699 8.17428 8.15938 9.66667 10.0003 9.66667Z" stroke="#15B300" stroke-width="1.5"/>
<path d="M10 9.66602V15.4993" stroke="#15B300" stroke-width="1.5" stroke-linecap="round"/>
<path d="M14.1663 16.334C14.1663 17.2545 12.3008 18.0007 9.99967 18.0007C7.69849 18.0007 5.83301 17.2545 5.83301 16.334" stroke="#15B300" stroke-width="1.5" stroke-linecap="round"/>
</svg>
