<svg width="54" height="54" viewBox="0 0 54 54" fill="none" xmlns="http://www.w3.org/2000/svg">
<rect x="0.609375" y="0.805176" width="52.4615" height="52.4615" rx="26.2308" fill="#2D7DD2" fill-opacity="0.15"/>
<path opacity="0.97" fill-rule="evenodd" clip-rule="evenodd" d="M17.9567 16.4923C19.3365 16.4681 19.859 17.1239 19.5244 18.4597C16.4035 22.3431 15.6043 26.6671 17.1268 31.4316C17.6704 32.9091 18.4491 34.2411 19.4629 35.4277C19.8544 36.2703 19.6597 36.9363 18.8789 37.4257C18.2449 37.6458 17.7019 37.5126 17.2497 37.0261C14.1268 33.0384 13.0612 28.5505 14.0528 23.5624C14.6303 21.0036 15.7677 18.7391 17.4649 16.769C17.6247 16.6586 17.7886 16.5664 17.9567 16.4923Z" fill="#2D7DD2"/>
<path opacity="0.97" fill-rule="evenodd" clip-rule="evenodd" d="M34.9866 16.4923C35.5752 16.4049 36.0568 16.5893 36.4313 17.0456C39.8021 21.44 40.7447 26.3172 39.2594 31.6774C38.6071 33.7927 37.5517 35.6678 36.0932 37.3027C35.5271 37.6014 34.9738 37.5809 34.4333 37.2412C33.8887 36.67 33.817 36.045 34.2181 35.3661C36.7534 32.2339 37.6961 28.6682 37.0461 24.6689C36.7946 23.2585 36.3233 21.9265 35.6321 20.6728C35.1235 19.8569 34.5906 19.0576 34.0337 18.2751C33.8389 17.3937 34.1565 16.7994 34.9866 16.4923Z" fill="#2D7DD2"/>
<path opacity="0.968" fill-rule="evenodd" clip-rule="evenodd" d="M31.9124 21.5946C32.501 21.5071 32.9826 21.6916 33.3571 22.1479C34.7761 24.6465 35.063 27.2696 34.2178 30.0171C34.0104 30.6192 33.744 31.1929 33.4186 31.7385C32.8489 32.3566 32.2034 32.4488 31.4821 32.0152C30.9956 31.563 30.8624 31.0199 31.0824 30.386C32.3841 28.006 32.3431 25.6493 30.9595 23.316C30.8154 22.4762 31.1331 21.9025 31.9124 21.5946Z" fill="#2D7DD2"/>
<path opacity="0.968" fill-rule="evenodd" clip-rule="evenodd" d="M21.0321 21.718C22.2692 21.7357 22.7713 22.3504 22.5383 23.5624C21.2517 25.9076 21.2722 28.2438 22.5998 30.5709C22.752 31.5862 22.3217 32.1601 21.3087 32.2923C20.8056 32.2561 20.4163 32.0307 20.1406 31.616C18.7544 28.9938 18.57 26.2887 19.5873 23.5009C19.7884 22.9035 20.106 22.3809 20.5402 21.9332C20.7036 21.8423 20.8676 21.7706 21.0321 21.718Z" fill="#2D7DD2"/>
<path opacity="0.971" fill-rule="evenodd" clip-rule="evenodd" d="M26.3173 24.3616C28.4572 24.319 29.4921 25.3641 29.422 27.497C28.9833 29.0645 27.9484 29.7715 26.3173 29.618C24.7498 29.1793 24.0428 28.1444 24.1963 26.5133C24.4636 25.3547 25.1706 24.6374 26.3173 24.3616Z" fill="#2D7DD2"/>
</svg>
