<svg width="41" height="40" viewBox="0 0 41 40" fill="none" xmlns="http://www.w3.org/2000/svg">
<path opacity="0.4" fill-rule="evenodd" clip-rule="evenodd" d="M3.83301 34.8033V23.7957C3.83301 21.5795 5.88854 19.5688 7.46421 18.0275C7.65082 17.845 7.83072 17.669 7.99967 17.5H32.9997C33.1687 17.669 33.3485 17.845 33.5352 18.0275C35.1108 19.5688 37.1663 21.5795 37.1663 23.7957V34.8033C37.1663 35.4345 36.765 36.0117 36.1298 36.294L36.0552 36.3273C35.6697 36.4995 35.2952 36.6667 34.8487 36.6667H31.984C31.5375 36.6667 31.163 36.4995 30.7775 36.3273L30.7028 36.294C30.0677 36.0117 29.6663 35.4345 29.6663 34.8033V31.6667H11.333V34.8033C11.333 35.4345 10.9318 36.0117 10.2965 36.294L10.2218 36.3273C9.83639 36.4995 9.46191 36.6667 9.01537 36.6667H6.15064C5.70411 36.6667 5.32964 36.4995 4.94421 36.3273L4.86947 36.294C4.23426 36.0117 3.83301 35.4345 3.83301 34.8033ZM13.833 30.8333L14.2425 29.8097C14.8514 28.2875 15.1558 27.5263 15.7907 27.0965C16.4256 26.6667 17.2453 26.6667 18.8848 26.6667H22.1145C23.754 26.6667 24.5738 26.6667 25.2087 27.0965C25.8435 27.5263 26.148 28.2875 26.7568 29.8097L27.1663 30.8333H13.833Z" fill="#FDFDFD"/>
<path d="M7.99967 17.5H32.9997C34.595 19.0953 37.1663 21.317 37.1663 23.7957V29.2587C37.1663 30.1567 36.5338 30.9123 35.6943 31.0173L30.4997 31.6667H10.4997L5.30494 31.0173C4.46559 30.9123 3.83301 30.1567 3.83301 29.2587V23.7957C3.83301 21.317 6.40432 19.0953 7.99967 17.5Z" stroke="#FDFDFD" stroke-width="2" stroke-linejoin="round"/>
<path d="M4.66699 21.666L8.00033 23.3327" stroke="#FDFDFD" stroke-width="2" stroke-linecap="round" stroke-linejoin="round"/>
<path d="M36.3333 22.5L33 23.3333" stroke="#FDFDFD" stroke-width="2" stroke-linecap="round" stroke-linejoin="round"/>
<path d="M13.833 30.8327L14.2425 29.809C14.8514 28.2868 15.1558 27.5257 15.7907 27.0958C16.4256 26.666 17.2453 26.666 18.8848 26.666H22.1145C23.754 26.666 24.5738 26.666 25.2087 27.0958C25.8435 27.5257 26.148 28.2868 26.7568 29.809L27.1663 30.8327" stroke="#FDFDFD" stroke-width="2" stroke-linecap="round" stroke-linejoin="round"/>
<path d="M3.83301 30V34.8033C3.83301 35.4345 4.23426 36.0117 4.86947 36.294C5.28164 36.4772 5.67531 36.6667 6.15064 36.6667H9.01537C9.49071 36.6667 9.88437 36.4772 10.2965 36.294C10.9318 36.0117 11.333 35.4345 11.333 34.8033V31.6667" stroke="#FDFDFD" stroke-width="2" stroke-linecap="round" stroke-linejoin="round"/>
<path d="M29.667 31.6667V34.8033C29.667 35.4345 30.0683 36.0117 30.7035 36.294C31.1157 36.4772 31.5093 36.6667 31.9847 36.6667H34.8493C35.3247 36.6667 35.7183 36.4772 36.1305 36.294C36.7657 36.0117 37.167 35.4345 37.167 34.8033V30" stroke="#FDFDFD" stroke-width="2" stroke-linecap="round" stroke-linejoin="round"/>
<path d="M29.667 31.6667V34.8033C29.667 35.4345 30.0683 36.0117 30.7035 36.294C31.1157 36.4772 31.5093 36.6667 31.9847 36.6667H34.8493C35.3247 36.6667 35.7183 36.4772 36.1305 36.294C36.7657 36.0117 37.167 35.4345 37.167 34.8033V30" stroke="#FDFDFD" stroke-width="2" stroke-linecap="round" stroke-linejoin="round"/>
<path d="M33.833 15.8333L35.4997 15" stroke="#FDFDFD" stroke-width="2" stroke-linecap="round" stroke-linejoin="round"/>
<path d="M7.16667 15.8333L5.5 15" stroke="#FDFDFD" stroke-width="2" stroke-linecap="round" stroke-linejoin="round"/>
<path opacity="0.4" d="M22.8805 3.33398H18.1188C16.8528 3.33398 16.2198 3.33398 15.7433 3.9091C14.4955 5.41502 16.4897 7.50065 18.4453 7.50065H22.554C24.5096 7.50065 26.5038 5.41502 25.256 3.9091C24.7795 3.33398 24.1465 3.33398 22.8805 3.33398Z" fill="#FDFDFD"/>
<path d="M26.3337 7.50065C25.9333 5.4897 25.7332 4.4842 25.2567 3.9091C24.7802 3.33398 24.1472 3.33398 22.8812 3.33398H18.1195C16.8535 3.33398 16.2205 3.33398 15.744 3.9091C15.2675 4.4842 15.0673 5.48968 14.667 7.50065" stroke="#FDFDFD" stroke-width="2" stroke-linejoin="round"/>
<path d="M8 17.5L9.81383 12.0585C10.5472 9.85842 10.9139 8.75838 11.7868 8.1292C12.6598 7.5 13.8193 7.5 16.1384 7.5H24.8617C27.1807 7.5 28.3402 7.5 29.2132 8.1292C30.0862 8.75838 30.4528 9.85842 31.1862 12.0585L33 17.5" stroke="#FDFDFD" stroke-width="2" stroke-linejoin="round"/>
</svg>
