<svg width="30" height="30" viewBox="0 0 30 30" fill="none" xmlns="http://www.w3.org/2000/svg">
<path opacity="0.4" fill-rule="evenodd" clip-rule="evenodd" d="M2.5 26.1025V17.8468C2.5 16.1846 4.04165 14.6766 5.2234 13.5206C5.36336 13.3837 5.49829 13.2518 5.625 13.125H24.375C24.5018 13.2518 24.6366 13.3837 24.7766 13.5206C25.9584 14.6766 27.5 16.1846 27.5 17.8468V26.1025C27.5 26.5759 27.199 27.0087 26.7226 27.2205L26.6666 27.2455C26.3775 27.3746 26.0966 27.5 25.7617 27.5H23.6133C23.2784 27.5 22.9975 27.3746 22.7084 27.2455L22.6524 27.2205C22.176 27.0087 21.875 26.5759 21.875 26.1025V23.75H8.125V26.1025C8.125 26.5759 7.82406 27.0087 7.34765 27.2205L7.29161 27.2455C7.00254 27.3746 6.72167 27.5 6.38677 27.5H4.23822C3.90332 27.5 3.62247 27.3746 3.3334 27.2455L3.27735 27.2205C2.80094 27.0087 2.5 26.5759 2.5 26.1025ZM10 23.125L10.3071 22.3572C10.7638 21.2156 10.9921 20.6448 11.4683 20.3224C11.9444 20 12.5593 20 13.7889 20H16.2111C17.4407 20 18.0556 20 18.5317 20.3224C19.0079 20.6448 19.2362 21.2156 19.6929 22.3572L20 23.125H10Z" fill="#2D7CD0"/>
<path d="M5.625 13.125H24.375C25.5715 14.3215 27.5 15.9877 27.5 17.8468V21.944C27.5 22.6175 27.0256 23.1842 26.396 23.263L22.5 23.75H7.5L3.60395 23.263C2.97444 23.1842 2.5 22.6175 2.5 21.944V17.8468C2.5 15.9877 4.42849 14.3215 5.625 13.125Z" stroke="#2D7CD0" stroke-width="2" stroke-linejoin="round"/>
<path d="M3.125 16.25L5.625 17.5" stroke="#2D7CD0" stroke-width="2" stroke-linecap="round" stroke-linejoin="round"/>
<path d="M26.875 16.875L24.375 17.5" stroke="#2D7CD0" stroke-width="2" stroke-linecap="round" stroke-linejoin="round"/>
<path d="M10 23.125L10.3071 22.3572C10.7638 21.2156 10.9921 20.6448 11.4683 20.3224C11.9444 20 12.5593 20 13.7889 20H16.2111C17.4407 20 18.0556 20 18.5318 20.3224C19.0079 20.6448 19.2363 21.2156 19.6929 22.3572L20 23.125" stroke="#2D7CD0" stroke-width="2" stroke-linecap="round" stroke-linejoin="round"/>
<path d="M2.5 22.5V26.1025C2.5 26.5759 2.80094 27.0087 3.27735 27.2205C3.58648 27.3579 3.88172 27.5 4.23822 27.5H6.38677C6.74327 27.5 7.03852 27.3579 7.34765 27.2205C7.82406 27.0087 8.125 26.5759 8.125 26.1025V23.75" stroke="#2D7CD0" stroke-width="2" stroke-linecap="round" stroke-linejoin="round"/>
<path d="M21.875 23.75V26.1025C21.875 26.5759 22.176 27.0087 22.6524 27.2205C22.9615 27.3579 23.2568 27.5 23.6133 27.5H25.7617C26.1182 27.5 26.4135 27.3579 26.7226 27.2205C27.199 27.0087 27.5 26.5759 27.5 26.1025V22.5" stroke="#2D7CD0" stroke-width="2" stroke-linecap="round" stroke-linejoin="round"/>
<path d="M21.875 23.75V26.1025C21.875 26.5759 22.176 27.0087 22.6524 27.2205C22.9615 27.3579 23.2568 27.5 23.6133 27.5H25.7617C26.1182 27.5 26.4135 27.3579 26.7226 27.2205C27.199 27.0087 27.5 26.5759 27.5 26.1025V22.5" stroke="#2D7CD0" stroke-width="2" stroke-linecap="round" stroke-linejoin="round"/>
<path d="M25 11.875L26.25 11.25" stroke="#2D7CD0" stroke-width="2" stroke-linecap="round" stroke-linejoin="round"/>
<path d="M5 11.875L3.75 11.25" stroke="#2D7CD0" stroke-width="2" stroke-linecap="round" stroke-linejoin="round"/>
<path opacity="0.4" d="M16.7854 2.5H13.2141C12.2646 2.5 11.7899 2.5 11.4325 2.93134C10.4967 4.06077 11.9923 5.625 13.459 5.625H16.5405C18.0072 5.625 19.5029 4.06077 18.567 2.93134C18.2096 2.5 17.7349 2.5 16.7854 2.5Z" fill="#2D7CD0"/>
<path d="M19.375 5.625C19.0748 4.11679 18.9246 3.36266 18.5672 2.93134C18.2099 2.5 17.7351 2.5 16.7856 2.5H13.2144C12.2649 2.5 11.7901 2.5 11.4328 2.93134C11.0754 3.36266 10.9252 4.11677 10.625 5.625" stroke="#2D7CD0" stroke-width="2" stroke-linejoin="round"/>
<path d="M5.625 13.125L6.98538 9.04386C7.5354 7.39381 7.8104 6.56879 8.46512 6.0969C9.11984 5.625 9.98949 5.625 11.7288 5.625H18.2712C20.0105 5.625 20.8801 5.625 21.5349 6.0969C22.1896 6.56879 22.4646 7.39381 23.0146 9.04386L24.375 13.125" stroke="#2D7CD0" stroke-width="2" stroke-linejoin="round"/>
</svg>
