<svg width="101" height="100" viewBox="0 0 101 100" fill="none" xmlns="http://www.w3.org/2000/svg">
<path opacity="0.4" d="M23.7399 64.5064C17.845 68.0164 2.38901 75.1835 11.8027 84.1523C16.4013 88.5331 21.5229 91.6664 27.9619 91.6664H64.7046C71.1437 91.6664 76.2654 88.5331 80.8637 84.1523C90.2775 75.1835 74.8216 68.0164 68.9266 64.5064C55.1033 56.2752 37.5633 56.2752 23.7399 64.5064Z" fill="#609400"/>
<path d="M52.5833 91.6663H27.9619C21.5229 91.6663 16.4013 88.5329 11.8027 84.1521C2.389 75.1834 17.845 68.0163 23.7399 64.5063C32.4932 59.2942 42.7367 57.3825 52.5833 58.7713C56.1562 59.275 59.6358 60.2138 63 61.5867" stroke="#609400" stroke-width="6.25" stroke-linecap="round" stroke-linejoin="round"/>
<path d="M69.25 27.083C69.25 37.4383 60.8554 45.833 50.5 45.833C40.1447 45.833 31.75 37.4383 31.75 27.083C31.75 16.7277 40.1447 8.33301 50.5 8.33301C60.8554 8.33301 69.25 16.7277 69.25 27.083Z" stroke="#609400" stroke-width="6.25"/>
<path d="M77.5833 91.6667V62.5M63 77.0833H92.1667" stroke="#609400" stroke-width="6.25" stroke-linecap="round"/>
</svg>
